<?xml version="1.0" encoding="UTF-8" standalone="no"?>
<!-- Created with Inkscape (http://www.inkscape.org/) -->

<svg
   xmlns:dc="http://purl.org/dc/elements/1.1/"
   xmlns:cc="http://creativecommons.org/ns#"
   xmlns:rdf="http://www.w3.org/1999/02/22-rdf-syntax-ns#"
   xmlns:svg="http://www.w3.org/2000/svg"
   xmlns="http://www.w3.org/2000/svg"
   version="1.1"
   width="800"
   height="600"
   id="svg2985">
  <defs
     id="defs2987">
    <marker
       refX="0"
       refY="0"
       orient="auto"
       id="Arrow2Send"
       style="overflow:visible">
      <path
         d="M 8.7185878,4.0337352 -2.2072895,0.01601326 8.7185884,-4.0017078 c -1.7454984,2.3720609 -1.7354408,5.6174519 -6e-7,8.035443 z"
         transform="matrix(-0.3,0,0,-0.3,0.69,0)"
         id="path3806"
         style="fill-rule:evenodd;stroke-width:0.625;stroke-linejoin:round" />
    </marker>
    <marker
       refX="0"
       refY="0"
       orient="auto"
       id="Arrow2Send-8"
       style="overflow:visible">
      <path
         d="M 8.7185878,4.0337352 -2.2072895,0.01601326 8.7185884,-4.0017078 c -1.7454984,2.3720609 -1.7354408,5.6174519 -6e-7,8.035443 z"
         transform="matrix(-0.3,0,0,-0.3,0.69,0)"
         id="path3806-0"
         style="fill-rule:evenodd;stroke-width:0.625;stroke-linejoin:round" />
    </marker>
    <marker
       refX="0"
       refY="0"
       orient="auto"
       id="marker4787"
       style="overflow:visible">
      <path
         d="M 8.7185878,4.0337352 -2.2072895,0.01601326 8.7185884,-4.0017078 c -1.7454984,2.3720609 -1.7354408,5.6174519 -6e-7,8.035443 z"
         transform="matrix(-0.3,0,0,-0.3,0.69,0)"
         id="path4789"
         style="fill-rule:evenodd;stroke-width:0.625;stroke-linejoin:round" />
    </marker>
    <marker
       refX="0"
       refY="0"
       orient="auto"
       id="marker4791"
       style="overflow:visible">
      <path
         d="M 8.7185878,4.0337352 -2.2072895,0.01601326 8.7185884,-4.0017078 c -1.7454984,2.3720609 -1.7354408,5.6174519 -6e-7,8.035443 z"
         transform="matrix(-0.3,0,0,-0.3,0.69,0)"
         id="path4793"
         style="fill-rule:evenodd;stroke-width:0.625;stroke-linejoin:round" />
    </marker>
    <marker
       refX="0"
       refY="0"
       orient="auto"
       id="marker4795"
       style="overflow:visible">
      <path
         d="M 8.7185878,4.0337352 -2.2072895,0.01601326 8.7185884,-4.0017078 c -1.7454984,2.3720609 -1.7354408,5.6174519 -6e-7,8.035443 z"
         transform="matrix(-0.3,0,0,-0.3,0.69,0)"
         id="path4797"
         style="fill-rule:evenodd;stroke-width:0.625;stroke-linejoin:round" />
    </marker>
    <marker
       refX="0"
       refY="0"
       orient="auto"
       id="marker4799"
       style="overflow:visible">
      <path
         d="M 8.7185878,4.0337352 -2.2072895,0.01601326 8.7185884,-4.0017078 c -1.7454984,2.3720609 -1.7354408,5.6174519 -6e-7,8.035443 z"
         transform="matrix(-0.3,0,0,-0.3,0.69,0)"
         id="path4801"
         style="fill-rule:evenodd;stroke-width:0.625;stroke-linejoin:round" />
    </marker>
    <marker
       refX="0"
       refY="0"
       orient="auto"
       id="marker4803"
       style="overflow:visible">
      <path
         d="M 8.7185878,4.0337352 -2.2072895,0.01601326 8.7185884,-4.0017078 c -1.7454984,2.3720609 -1.7354408,5.6174519 -6e-7,8.035443 z"
         transform="matrix(-0.3,0,0,-0.3,0.69,0)"
         id="path4805"
         style="fill-rule:evenodd;stroke-width:0.625;stroke-linejoin:round" />
    </marker>
    <marker
       refX="0"
       refY="0"
       orient="auto"
       id="marker4807"
       style="overflow:visible">
      <path
         d="M 8.7185878,4.0337352 -2.2072895,0.01601326 8.7185884,-4.0017078 c -1.7454984,2.3720609 -1.7354408,5.6174519 -6e-7,8.035443 z"
         transform="matrix(-0.3,0,0,-0.3,0.69,0)"
         id="path4809"
         style="fill-rule:evenodd;stroke-width:0.625;stroke-linejoin:round" />
    </marker>
  </defs>
  <metadata
     id="metadata2990">
    <rdf:RDF>
      <cc:Work
         rdf:about="">
        <dc:format>image/svg+xml</dc:format>
        <dc:type
           rdf:resource="http://purl.org/dc/dcmitype/StillImage" />
        <dc:title></dc:title>
      </cc:Work>
    </rdf:RDF>
  </metadata>
  <g
     transform="matrix(0.61550269,0,0,0.61550269,-50.41235,181.58145)"
     id="g6095">
    <path
       d="m 205.65732,190.56693 a 31.27341,31.27341 0 0 1 -62.54682,0 31.27341,31.27341 0 1 1 62.54682,0 z"
       id="path2993"
       style="fill:none;stroke:#000000;stroke-width:5.6662035;stroke-miterlimit:4;stroke-opacity:1;stroke-dasharray:none;stroke-dashoffset:0" />
    <path
       d="m 178.20343,151.42548 c -1.37846,-33.9444 82.38513,-45.91029 166.87297,-44.51039"
       id="path3767"
       style="fill:none;stroke:#000000;stroke-width:5.76231337;stroke-linecap:butt;stroke-linejoin:miter;stroke-miterlimit:4;stroke-opacity:1;stroke-dasharray:none;marker-end:url(#Arrow2Send)" />
    <text
       x="497.76498"
       y="88.130562"
       id="text4213"
       xml:space="preserve"
       style="font-size:40px;font-style:normal;font-variant:normal;font-weight:bold;font-stretch:normal;text-align:center;line-height:125%;letter-spacing:0px;word-spacing:0px;text-anchor:middle;fill:#000000;fill-opacity:1;stroke:none;font-family:Monospace;-inkscape-font-specification:Sans Bold"><tspan
         x="497.76498"
         y="88.130562"
         id="tspan4215">P</tspan></text>
    <path
       d="m 425.53862,105.10699 a 31.27341,31.27341 0 0 1 -62.54682,0 31.27341,31.27341 0 1 1 62.54682,0 z"
       id="path4273"
       style="fill:none;stroke:#000000;stroke-width:5.6662035;stroke-miterlimit:4;stroke-opacity:1;stroke-dasharray:none;stroke-dashoffset:0" />
    <path
       d="m 424.68709,282.25833 a 31.27341,31.27341 0 0 1 -62.54682,0 31.27341,31.27341 0 1 1 62.54682,0 z"
       id="path4287"
       style="fill:none;stroke:#000000;stroke-width:5.6662035;stroke-miterlimit:4;stroke-opacity:1;stroke-dasharray:none;stroke-dashoffset:0" />
    <path
       d="m 178.20343,236.17145 c -1.37846,33.9444 82.38513,45.91029 166.87297,44.51038"
       id="path4650"
       style="fill:none;stroke:#000000;stroke-width:5.76231337;stroke-linecap:butt;stroke-linejoin:miter;stroke-miterlimit:4;stroke-opacity:1;stroke-dasharray:none;marker-end:url(#Arrow2Send)" />
    <text
       x="500.43558"
       y="325.81604"
       id="text4654"
       xml:space="preserve"
       style="font-size:40px;font-style:normal;font-variant:normal;font-weight:bold;font-stretch:normal;text-align:center;line-height:125%;letter-spacing:0px;word-spacing:0px;text-anchor:middle;fill:#000000;fill-opacity:1;stroke:none;font-family:Monospace;-inkscape-font-specification:Sans Bold"><tspan
         x="500.43558"
         y="325.81604"
         id="tspan4656">P</tspan></text>
    <text
       x="721.49377"
       y="88.130562"
       id="text5957"
       xml:space="preserve"
       style="font-size:40px;font-style:normal;font-variant:normal;font-weight:bold;font-stretch:normal;text-align:center;line-height:125%;letter-spacing:0px;word-spacing:0px;text-anchor:middle;fill:#000000;fill-opacity:1;stroke:none;font-family:Monospace;-inkscape-font-specification:Sans Bold"><tspan
         x="721.49377"
         y="88.130562"
         id="tspan5959">E</tspan></text>
    <path
       d="m 649.26743,105.10699 a 31.27341,31.27341 0 0 1 -62.54682,0 31.27341,31.27341 0 1 1 62.54682,0 z"
       id="path5961"
       style="fill:none;stroke:#000000;stroke-width:5.6662035;stroke-miterlimit:4;stroke-opacity:1;stroke-dasharray:none;stroke-dashoffset:0" />
    <path
       d="m 648.4159,282.25833 a 31.27341,31.27341 0 0 1 -62.54682,0 31.27341,31.27341 0 1 1 62.54682,0 z"
       id="path5965"
       style="fill:none;stroke:#000000;stroke-width:5.6662035;stroke-miterlimit:4;stroke-opacity:1;stroke-dasharray:none;stroke-dashoffset:0" />
    <text
       x="724.16437"
       y="325.81604"
       id="text5975"
       xml:space="preserve"
       style="font-size:40px;font-style:normal;font-variant:normal;font-weight:bold;font-stretch:normal;text-align:center;line-height:125%;letter-spacing:0px;word-spacing:0px;text-anchor:middle;fill:#000000;fill-opacity:1;stroke:none;font-family:Monospace;-inkscape-font-specification:Sans Bold"><tspan
         x="724.16437"
         y="325.81604"
         id="tspan5977">E</tspan></text>
    <path
       d="m 649.26743,105.10699 a 31.27341,31.27341 0 0 1 -62.54682,0 31.27341,31.27341 0 1 1 62.54682,0 z"
       id="path5983"
       style="fill:none;stroke:#000000;stroke-width:5.6662035;stroke-miterlimit:4;stroke-opacity:1;stroke-dasharray:none;stroke-dashoffset:0" />
    <path
       d="m 648.4159,282.25833 a 31.27341,31.27341 0 0 1 -62.54682,0 31.27341,31.27341 0 1 1 62.54682,0 z"
       id="path5987"
       style="fill:none;stroke:#000000;stroke-width:5.6662035;stroke-miterlimit:4;stroke-opacity:1;stroke-dasharray:none;stroke-dashoffset:0" />
    <text
       x="940.13782"
       y="88.130562"
       id="text6001"
       xml:space="preserve"
       style="font-size:40px;font-style:normal;font-variant:normal;font-weight:bold;font-stretch:normal;text-align:center;line-height:125%;letter-spacing:0px;word-spacing:0px;text-anchor:middle;fill:#000000;fill-opacity:1;stroke:none;font-family:Monospace;-inkscape-font-specification:Sans Bold"><tspan
         x="940.13782"
         y="88.130562"
         id="tspan6003">R</tspan></text>
    <path
       d="m 867.9115,105.10699 a 31.27341,31.27341 0 0 1 -62.54682,0 31.27341,31.27341 0 1 1 62.54682,0 z"
       id="path6005"
       style="fill:none;stroke:#000000;stroke-width:5.6662035;stroke-miterlimit:4;stroke-opacity:1;stroke-dasharray:none;stroke-dashoffset:0" />
    <path
       d="m 867.05997,282.25833 a 31.27341,31.27341 0 0 1 -62.54682,0 31.27341,31.27341 0 1 1 62.54682,0 z"
       id="path6009"
       style="fill:none;stroke:#000000;stroke-width:5.6662035;stroke-miterlimit:4;stroke-opacity:1;stroke-dasharray:none;stroke-dashoffset:0" />
    <text
       x="942.80841"
       y="325.81604"
       id="text6019"
       xml:space="preserve"
       style="font-size:40px;font-style:normal;font-variant:normal;font-weight:bold;font-stretch:normal;text-align:center;line-height:125%;letter-spacing:0px;word-spacing:0px;text-anchor:middle;fill:#000000;fill-opacity:1;stroke:none;font-family:Monospace;-inkscape-font-specification:Sans Bold"><tspan
         x="942.80841"
         y="325.81604"
         id="tspan6021">R</tspan></text>
    <text
       x="1161.3242"
       y="88.130562"
       id="text6061"
       xml:space="preserve"
       style="font-size:40px;font-style:normal;font-variant:normal;font-weight:bold;font-stretch:normal;text-align:center;line-height:125%;letter-spacing:0px;word-spacing:0px;text-anchor:middle;fill:#000000;fill-opacity:1;stroke:none;font-family:Monospace;-inkscape-font-specification:Sans Bold"><tspan
         x="1161.3242"
         y="88.130562"
         id="tspan6063">L</tspan></text>
    <path
       d="m 1089.0979,105.10699 a 31.27341,31.27341 0 0 1 -62.5468,0 31.27341,31.27341 0 1 1 62.5468,0 z"
       id="path6065"
       style="fill:none;stroke:#000000;stroke-width:5.6662035;stroke-miterlimit:4;stroke-opacity:1;stroke-dasharray:none;stroke-dashoffset:0" />
    <path
       d="m 1099.0328,105.13468 c 86.8315,-1.07225 144.8652,-2.5163 170.4337,29.37685"
       id="path6067"
       style="fill:none;stroke:#000000;stroke-width:5.76231337;stroke-linecap:butt;stroke-linejoin:miter;stroke-miterlimit:4;stroke-opacity:1;stroke-dasharray:none;marker-end:url(#Arrow2Send)" />
    <path
       d="m 1088.2464,282.25833 a 31.27341,31.27341 0 0 1 -62.5468,0 31.27341,31.27341 0 1 1 62.5468,0 z"
       id="path6069"
       style="fill:none;stroke:#000000;stroke-width:5.6662035;stroke-miterlimit:4;stroke-opacity:1;stroke-dasharray:none;stroke-dashoffset:0" />
    <g
       transform="translate(780.93772,-101.48367)"
       id="g6071">
      <path
         d="m 526.11275,233.23442 a 110.38576,110.38576 0 1 1 -220.77152,0 110.38576,110.38576 0 1 1 220.77152,0 z"
         transform="matrix(0.28331018,0,0,0.28331018,378.14683,225.97292)"
         id="path6073"
         style="fill:none;stroke:#000000;stroke-width:20;stroke-miterlimit:4;stroke-opacity:1;stroke-dasharray:none;stroke-dashoffset:0" />
      <path
         d="m 569.5675,233.23442 a 153.84052,153.84052 0 1 1 -307.68103,0 153.84052,153.84052 0 1 1 307.68103,0 z"
         transform="matrix(0.28331018,0,0,0.28331018,378.14683,225.97292)"
         id="path6075"
         style="fill:none;stroke:#000000;stroke-width:20;stroke-miterlimit:4;stroke-opacity:1;stroke-dasharray:none;stroke-dashoffset:0" />
    </g>
    <path
       d="m 1099.0328,280.59555 c 86.8315,1.07225 144.8652,2.5163 170.4337,-29.37685"
       id="path6077"
       style="fill:none;stroke:#000000;stroke-width:5.76231337;stroke-linecap:butt;stroke-linejoin:miter;stroke-miterlimit:4;stroke-opacity:1;stroke-dasharray:none;marker-end:url(#Arrow2Send)" />
    <text
       x="1163.9949"
       y="325.81604"
       id="text6079"
       xml:space="preserve"
       style="font-size:40px;font-style:normal;font-variant:normal;font-weight:bold;font-stretch:normal;text-align:center;line-height:125%;letter-spacing:0px;word-spacing:0px;text-anchor:middle;fill:#000000;fill-opacity:1;stroke:none;font-family:Monospace;-inkscape-font-specification:Sans Bold"><tspan
         x="1163.9949"
         y="325.81604"
         id="tspan6081">K</tspan></text>
    <path
       d="m 431.04351,106.047 c 40.06332,0 58.12876,-0.12299 142.6166,1.27691"
       id="path6083"
       style="fill:none;stroke:#000000;stroke-width:5.76231337;stroke-linecap:butt;stroke-linejoin:miter;stroke-miterlimit:4;stroke-opacity:1;stroke-dasharray:none;marker-end:url(#Arrow2Send)" />
    <path
       d="m 653.04351,106.047 c 40.06332,0 58.12876,-0.12299 142.6166,1.27691"
       id="path6085"
       style="fill:none;stroke:#000000;stroke-width:5.76231337;stroke-linecap:butt;stroke-linejoin:miter;stroke-miterlimit:4;stroke-opacity:1;stroke-dasharray:none;marker-end:url(#Arrow2Send)" />
    <path
       d="m 872.04351,106.047 c 40.06332,0 58.12876,-0.12299 142.61659,1.27691"
       id="path6087"
       style="fill:none;stroke:#000000;stroke-width:5.76231337;stroke-linecap:butt;stroke-linejoin:miter;stroke-miterlimit:4;stroke-opacity:1;stroke-dasharray:none;marker-end:url(#Arrow2Send)" />
    <path
       d="m 431.04351,282.047 c 40.06332,0 58.12876,-0.12299 142.6166,1.27691"
       id="path6089"
       style="fill:none;stroke:#000000;stroke-width:5.76231337;stroke-linecap:butt;stroke-linejoin:miter;stroke-miterlimit:4;stroke-opacity:1;stroke-dasharray:none;marker-end:url(#Arrow2Send)" />
    <path
       d="m 653.04351,282.047 c 40.06332,0 58.12876,-0.12299 142.6166,1.27691"
       id="path6091"
       style="fill:none;stroke:#000000;stroke-width:5.76231337;stroke-linecap:butt;stroke-linejoin:miter;stroke-miterlimit:4;stroke-opacity:1;stroke-dasharray:none;marker-end:url(#Arrow2Send)" />
    <path
       d="m 872.04351,282.047 c 40.06332,0 58.12876,-0.12299 142.61659,1.27691"
       id="path6093"
       style="fill:none;stroke:#000000;stroke-width:5.76231337;stroke-linecap:butt;stroke-linejoin:miter;stroke-miterlimit:4;stroke-opacity:1;stroke-dasharray:none;marker-end:url(#Arrow2Send)" />
  </g>
</svg>
