<?xml version="1.0" encoding="UTF-8" standalone="no"?>
<!-- Created with Inkscape (http://www.inkscape.org/) -->

<svg
   xmlns:svg="http://www.w3.org/2000/svg"
   xmlns="http://www.w3.org/2000/svg"
   version="1.1"
   width="800"
   height="600"
   id="svg6450">
    <g
       id="g7555">
      <rect
         width="816.66669"
         height="630"
         x="-8.333333"
         y="-15"
         id="rect6460"
         style="fill:#7fc8a2;fill-opacity:1;stroke:none" />
      <text
         x="41.888416"
         y="540.86383"
         id="text6972"
         xml:space="preserve"
         style="font-size:21.36858368px;font-style:normal;font-variant:normal;font-weight:normal;font-stretch:normal;text-align:start;text-anchor:start;fill:#000000;fill-opacity:1;stroke:none;font-family:Andale Mono;-inkscape-font-specification:Andale Mono"><tspan
           x="41.888416"
           y="540.86383"
           id="tspan6974">mm/ The quick brown fox(es)? jump[&lt;?{$0}&gt;|s&lt;!{$0}&gt;|ed] /</tspan></text>
    </g>
    <g
       id="g7492">
      <path
         d="m 493.33333,-16.666666 a 63.333332,63.333332 0 1 1 -126.66666,0 63.333332,63.333332 0 1 1 126.66666,0 z"
         transform="matrix(0.18421051,0,0,0.18421051,299.12281,167.40893)"
         id="path7105"
         style="fill:#000000;fill-opacity:1;stroke:none" />
      <path
         d="m 493.33333,-16.666666 a 63.333332,63.333332 0 1 1 -126.66666,0 63.333332,63.333332 0 1 1 126.66666,0 z"
         transform="matrix(0.18421051,0,0,0.18421051,50.789477,260.74226)"
         id="path7107"
         style="fill:#000000;fill-opacity:1;stroke:none" />
      <path
         d="m 493.33333,-16.666666 a 63.333332,63.333332 0 1 1 -126.66666,0 63.333332,63.333332 0 1 1 126.66666,0 z"
         transform="matrix(0.09363991,0,0,0.09363991,121.77188,259.23275)"
         id="path7126"
         style="fill:#000000;fill-opacity:1;stroke:none" />
      <path
         d="m 493.33333,-16.666666 a 63.333332,63.333332 0 1 1 -126.66666,0 63.333332,63.333332 0 1 1 126.66666,0 z"
         transform="matrix(0.18421051,0,0,0.18421051,114.86355,260.74226)"
         id="path7128"
         style="fill:#000000;fill-opacity:1;stroke:none" />
      <path
         d="m 493.33333,-16.666666 a 63.333332,63.333332 0 1 1 -126.66666,0 63.333332,63.333332 0 1 1 126.66666,0 z"
         transform="matrix(0.18421051,0,0,0.18421051,178.93762,260.74226)"
         id="path7132"
         style="fill:#000000;fill-opacity:1;stroke:none" />
      <path
         d="m 493.33333,-16.666666 a 63.333332,63.333332 0 1 1 -126.66666,0 63.333332,63.333332 0 1 1 126.66666,0 z"
         transform="matrix(0.18421051,0,0,0.18421051,243.01171,260.74226)"
         id="path7136"
         style="fill:#000000;fill-opacity:1;stroke:none" />
      <path
         d="m 493.33333,-16.666666 a 63.333332,63.333332 0 1 1 -126.66666,0 63.333332,63.333332 0 1 1 126.66666,0 z"
         transform="matrix(0.18421051,0,0,0.18421051,275.04874,260.74226)"
         id="path7138"
         style="fill:#000000;fill-opacity:1;stroke:none" />
      <path
         d="m 493.33333,-16.666666 a 63.333332,63.333332 0 1 1 -126.66666,0 63.333332,63.333332 0 1 1 126.66666,0 z"
         transform="matrix(0.18421051,0,0,0.18421051,275.04874,314.07559)"
         id="path7140"
         style="fill:#000000;fill-opacity:1;stroke:none" />
      <path
         d="m 493.33333,-16.666666 a 63.333332,63.333332 0 1 1 -126.66666,0 63.333332,63.333332 0 1 1 126.66666,0 z"
         transform="matrix(0.18421051,0,0,0.18421051,339.12281,260.74226)"
         id="path7144"
         style="fill:#000000;fill-opacity:1;stroke:none" />
      <path
         d="m 493.33333,-16.666666 a 63.333332,63.333332 0 1 1 -126.66666,0 63.333332,63.333332 0 1 1 126.66666,0 z"
         transform="matrix(0.18421051,0,0,0.18421051,523.12395,260.74226)"
         id="path7160"
         style="fill:#000000;fill-opacity:1;stroke:none" />
      <path
         d="m 493.33333,-16.666666 a 63.333332,63.333332 0 1 1 -126.66666,0 63.333332,63.333332 0 1 1 126.66666,0 z"
         transform="matrix(0.18421051,0,0,0.18421051,443.38208,373.73142)"
         id="path7162"
         style="fill:#000000;fill-opacity:1;stroke:none" />
      <path
         d="m 493.33333,-16.666666 a 63.333332,63.333332 0 1 1 -126.66666,0 63.333332,63.333332 0 1 1 126.66666,0 z"
         transform="matrix(0.18421051,0,0,0.18421051,528.38208,373.73142)"
         id="path7166"
         style="fill:#000000;fill-opacity:1;stroke:none" />
      <path
         d="m 493.33333,-16.666666 a 63.333332,63.333332 0 1 1 -126.66666,0 63.333332,63.333332 0 1 1 126.66666,0 z"
         transform="matrix(0.18421051,0,0,0.18421051,610.04875,373.73142)"
         id="path7168"
         style="fill:#000000;fill-opacity:1;stroke:none" />
      <path
         d="m 493.33333,-16.666666 a 63.333332,63.333332 0 1 1 -126.66666,0 63.333332,63.333332 0 1 1 126.66666,0 z"
         transform="matrix(0.18421051,0,0,0.18421051,503.38208,438.73142)"
         id="path7170"
         style="fill:#000000;fill-opacity:1;stroke:none" />
      <path
         d="m 493.33333,-16.666666 a 63.333332,63.333332 0 1 1 -126.66666,0 63.333332,63.333332 0 1 1 126.66666,0 z"
         transform="matrix(0.18421051,0,0,0.18421051,556.71541,438.73142)"
         id="path7172"
         style="fill:#000000;fill-opacity:1;stroke:none" />
      <path
         d="M 130.15367,257.53171 378.84014,163.79008 161.91736,257.53171"
         id="path7174"
         style="fill:none;stroke:#000000;stroke-width:1px;stroke-linecap:butt;stroke-linejoin:miter;stroke-opacity:1" />
      <path
         d="M 193.68105,257.53171 379.61486,163.01535 226.99419,258.30643"
         id="path7176"
         style="fill:none;stroke:#000000;stroke-width:1px;stroke-linecap:butt;stroke-linejoin:miter;stroke-opacity:1" />
      <path
         d="m 257.98316,257.53171 121.6317,-95.29108 -88.31856,96.0658"
         id="path7178"
         style="fill:none;stroke:#000000;stroke-width:1px;stroke-linecap:butt;stroke-linejoin:miter;stroke-opacity:1" />
      <path
         d="m 322.28527,257.53171 57.32959,-94.51636 -25.5659,94.51636 0,106.63066"
         id="path7180"
         style="fill:none;stroke:#000000;stroke-width:1px;stroke-linecap:butt;stroke-linejoin:miter;stroke-opacity:1" />
      <path
         d="m 387.3621,258.30643 -7.74724,-95.29108 39.51094,94.51636"
         id="path7182"
         style="fill:none;stroke:#000000;stroke-width:1px;stroke-linecap:butt;stroke-linejoin:miter;stroke-opacity:1" />
      <path
         d="M 379.61486,165.33953 602.1708,257.53171"
         id="path7184"
         style="fill:none;stroke:#000000;stroke-width:1px;stroke-linecap:butt;stroke-linejoin:miter;stroke-opacity:1" />
      <path
         d="m 493.33333,-16.666666 a 63.333332,63.333332 0 1 1 -126.66666,0 63.333332,63.333332 0 1 1 126.66666,0 z"
         transform="matrix(0.18421051,0,0,0.18421051,523.12395,314.66195)"
         id="path7188"
         style="fill:#000000;fill-opacity:1;stroke:none" />
      <path
         d="m 602.29446,258.97546 0,53.9197 -81.45316,57.36137"
         id="path7190"
         style="fill:none;stroke:#000000;stroke-width:1px;stroke-linecap:butt;stroke-linejoin:miter;stroke-opacity:1" />
      <path
         d="m 689.48375,370.25653 -87.18929,-57.36137 5.73613,57.36137 -26.38623,65.39197"
         id="path7192"
         style="fill:none;stroke:#000000;stroke-width:1px;stroke-linecap:butt;stroke-linejoin:miter;stroke-opacity:1" />
      <path
         d="m 606.88337,370.25653 28.68068,65.39197"
         id="path7194"
         style="fill:none;stroke:#000000;stroke-width:1px;stroke-linecap:butt;stroke-linejoin:miter;stroke-opacity:1" />
      <path
         d="m 493.33333,-16.666666 a 63.333332,63.333332 0 1 1 -126.66666,0 63.333332,63.333332 0 1 1 126.66666,0 z"
         transform="matrix(0.09363991,0,0,0.09363991,192.89999,259.23275)"
         id="path7196"
         style="fill:#000000;fill-opacity:1;stroke:none" />
      <path
         d="m 493.33333,-16.666666 a 63.333332,63.333332 0 1 1 -126.66666,0 63.333332,63.333332 0 1 1 126.66666,0 z"
         transform="matrix(0.09363991,0,0,0.09363991,252.55582,259.23275)"
         id="path7198"
         style="fill:#000000;fill-opacity:1;stroke:none" />
      <path
         d="m 493.33333,-16.666666 a 63.333332,63.333332 0 1 1 -126.66666,0 63.333332,63.333332 0 1 1 126.66666,0 z"
         transform="matrix(0.09363991,0,0,0.09363991,346.62848,259.23275)"
         id="path7200"
         style="fill:#000000;fill-opacity:1;stroke:none" />
      <path
         d="m 493.33333,-16.666666 a 63.333332,63.333332 0 1 1 -126.66666,0 63.333332,63.333332 0 1 1 126.66666,0 z"
         transform="matrix(0.18421051,0,0,0.18421051,275.04874,366.84806)"
         id="path7360"
         style="fill:#000000;fill-opacity:1;stroke:none" />
    </g>
    <g
       id="g7523">
      <text
         x="398.08795"
         y="150.2868"
         id="text7291"
         xml:space="preserve"
         style="font-size:16px;font-style:normal;font-variant:normal;font-weight:normal;font-stretch:normal;text-align:start;text-anchor:start;fill:#000000;fill-opacity:1;stroke:none;font-family:Andale Mono;-inkscape-font-specification:Andale Mono"><tspan
           x="398.08795"
           y="150.2868"
           id="tspan7293">concat</tspan></text>
      <text
         x="115.52311"
         y="295.98471"
         id="text7295"
         xml:space="preserve"
         style="font-size:16px;font-style:normal;font-variant:normal;font-weight:normal;font-stretch:normal;text-align:start;text-anchor:start;fill:#000000;fill-opacity:1;stroke:none;font-family:Andale Mono;-inkscape-font-specification:Andale Mono"><tspan
           x="115.52311"
           y="295.98471"
           id="tspan7297">lit</tspan></text>
      <text
         x="180.47296"
         y="295.98471"
         id="text7299"
         xml:space="preserve"
         style="font-size:16px;font-style:normal;font-variant:normal;font-weight:normal;font-stretch:normal;text-align:start;text-anchor:start;fill:#000000;fill-opacity:1;stroke:none;font-family:Andale Mono;-inkscape-font-specification:Andale Mono"><tspan
           x="180.47296"
           y="295.98471"
           id="tspan7301">lit</tspan></text>
      <text
         x="244.18034"
         y="295.98471"
         id="text7303"
         xml:space="preserve"
         style="font-size:16px;font-style:normal;font-variant:normal;font-weight:normal;font-stretch:normal;text-align:start;text-anchor:start;fill:#000000;fill-opacity:1;stroke:none;font-family:Andale Mono;-inkscape-font-specification:Andale Mono"><tspan
           x="244.18034"
           y="295.98471"
           id="tspan7305">lit</tspan></text>
      <text
         x="306.84711"
         y="295.98471"
         id="text7307"
         xml:space="preserve"
         style="font-size:16px;font-style:normal;font-variant:normal;font-weight:normal;font-stretch:normal;text-align:start;text-anchor:start;fill:#000000;fill-opacity:1;stroke:none;font-family:Andale Mono;-inkscape-font-specification:Andale Mono"><tspan
           x="306.84711"
           y="295.98471"
           id="tspan7309">lit</tspan></text>
      <text
         x="425.61005"
         y="284.69156"
         id="text7319"
         xml:space="preserve"
         style="font-size:16px;font-style:normal;font-variant:normal;font-weight:normal;font-stretch:normal;text-align:start;text-anchor:start;fill:#000000;fill-opacity:1;stroke:none;font-family:Andale Mono;-inkscape-font-specification:Andale Mono"><tspan
           x="425.61005"
           y="284.69156"
           id="tspan7321">lit</tspan></text>
      <text
         x="619.50287"
         y="247.80115"
         id="text7323"
         xml:space="preserve"
         style="font-size:16px;font-style:normal;font-variant:normal;font-weight:normal;font-stretch:normal;text-align:start;text-anchor:start;fill:#000000;fill-opacity:1;stroke:none;font-family:Andale Mono;-inkscape-font-specification:Andale Mono"><tspan
           x="619.50287"
           y="247.80115"
           id="tspan7325">group</tspan></text>
      <text
         x="363.67114"
         y="284.69156"
         id="text7362"
         xml:space="preserve"
         style="font-size:16px;font-style:normal;font-variant:normal;font-weight:normal;font-stretch:normal;text-align:start;text-anchor:start;fill:#000000;fill-opacity:1;stroke:none;font-family:Andale Mono;-inkscape-font-specification:Andale Mono"><tspan
           x="363.67114"
           y="284.69156"
           id="tspan7364">quant</tspan></text>
      <text
         x="365.96558"
         y="331.54877"
         id="text7366"
         xml:space="preserve"
         style="font-size:16px;font-style:normal;font-variant:normal;font-weight:normal;font-stretch:normal;text-align:start;text-anchor:start;fill:#000000;fill-opacity:1;stroke:none;font-family:Andale Mono;-inkscape-font-specification:Andale Mono"><tspan
           x="365.96558"
           y="331.54877"
           id="tspan7368">cgroup</tspan></text>
      <text
         x="339.57935"
         y="403.8241"
         id="text7370"
         xml:space="preserve"
         style="font-size:16px;font-style:normal;font-variant:normal;font-weight:normal;font-stretch:normal;text-align:start;text-anchor:start;fill:#000000;fill-opacity:1;stroke:none;font-family:Andale Mono;-inkscape-font-specification:Andale Mono"><tspan
           x="339.57935"
           y="403.8241"
           id="tspan7372">lit</tspan></text>
      <text
         x="624.0918"
         y="305.16251"
         id="text7374"
         xml:space="preserve"
         style="font-size:16px;font-style:normal;font-variant:normal;font-weight:normal;font-stretch:normal;text-align:start;text-anchor:start;fill:#000000;fill-opacity:1;stroke:none;font-family:Andale Mono;-inkscape-font-specification:Andale Mono"><tspan
           x="624.0918"
           y="305.16251"
           id="tspan7376">alt</tspan></text>
      <text
         x="491.0134"
         y="408.41299"
         id="text7378"
         xml:space="preserve"
         style="font-size:16px;font-style:normal;font-variant:normal;font-weight:normal;font-stretch:normal;text-align:start;text-anchor:start;fill:#000000;fill-opacity:1;stroke:none;font-family:Andale Mono;-inkscape-font-specification:Andale Mono"><tspan
           x="491.0134"
           y="408.41299"
           id="tspan7380">closure</tspan></text>
      <text
         x="606.88336"
         y="476.09943"
         id="text7382"
         xml:space="preserve"
         style="font-size:16px;font-style:normal;font-variant:normal;font-weight:normal;font-stretch:normal;text-align:start;text-anchor:start;fill:#000000;fill-opacity:1;stroke:none;font-family:Andale Mono;-inkscape-font-specification:Andale Mono"><tspan
           x="606.88336"
           y="476.09943"
           id="tspan7384">closure</tspan></text>
      <text
         x="676.8642"
         y="408.41299"
         id="text7386"
         xml:space="preserve"
         style="font-size:16px;font-style:normal;font-variant:normal;font-weight:normal;font-stretch:normal;text-align:start;text-anchor:start;fill:#000000;fill-opacity:1;stroke:none;font-family:Andale Mono;-inkscape-font-specification:Andale Mono"><tspan
           x="676.8642"
           y="408.41299"
           id="tspan7388">lit</tspan></text>
      <text
         x="564.43591"
         y="476.09943"
         id="text7390"
         xml:space="preserve"
         style="font-size:16px;font-style:normal;font-variant:normal;font-weight:normal;font-stretch:normal;text-align:start;text-anchor:start;fill:#000000;fill-opacity:1;stroke:none;font-family:Andale Mono;-inkscape-font-specification:Andale Mono"><tspan
           x="564.43591"
           y="476.09943"
           id="tspan7392">lit</tspan></text>
    </g>
</svg>
