<?xml version="1.0" encoding="UTF-8" standalone="no"?>
<!-- Created with Inkscape (http://www.inkscape.org/) -->

<svg
   xmlns:dc="http://purl.org/dc/elements/1.1/"
   xmlns:cc="http://creativecommons.org/ns#"
   xmlns:rdf="http://www.w3.org/1999/02/22-rdf-syntax-ns#"
   xmlns:svg="http://www.w3.org/2000/svg"
   xmlns="http://www.w3.org/2000/svg"
   xmlns:sodipodi="http://sodipodi.sourceforge.net/DTD/sodipodi-0.dtd"
   xmlns:inkscape="http://www.inkscape.org/namespaces/inkscape"
   width="800"
   height="600"
   id="svg2"
   version="1.1"
   inkscape:version="0.48.1 r9760"
   sodipodi:docname="nodes.svg">
  <defs
     id="defs4">
    <marker
       inkscape:stockid="Arrow2Lend"
       orient="auto"
       refY="0.0"
       refX="0.0"
       id="Arrow2Lend"
       style="overflow:visible;">
      <path
         id="path3910"
         style="font-size:12.0;fill-rule:evenodd;stroke-width:0.62500000;stroke-linejoin:round;"
         d="M 8.7185878,4.0337352 L -2.2072895,0.016013256 L 8.7185884,-4.0017078 C 6.9730900,-1.6296469 6.9831476,1.6157441 8.7185878,4.0337352 z "
         transform="scale(1.1) rotate(180) translate(1,0)" />
    </marker>
    <marker
       inkscape:stockid="Arrow2Mend"
       orient="auto"
       refY="0.0"
       refX="0.0"
       id="Arrow2Mend"
       style="overflow:visible;">
      <path
         id="path3916"
         style="font-size:12.0;fill-rule:evenodd;stroke-width:0.62500000;stroke-linejoin:round;"
         d="M 8.7185878,4.0337352 L -2.2072895,0.016013256 L 8.7185884,-4.0017078 C 6.9730900,-1.6296469 6.9831476,1.6157441 8.7185878,4.0337352 z "
         transform="scale(0.6) rotate(180) translate(0,0)" />
    </marker>
  </defs>
  <sodipodi:namedview
     id="base"
     pagecolor="#ffffff"
     bordercolor="#666666"
     borderopacity="1.0"
     inkscape:pageopacity="0.0"
     inkscape:pageshadow="2"
     inkscape:zoom="1.0883333"
     inkscape:cx="284.68606"
     inkscape:cy="300"
     inkscape:document-units="px"
     inkscape:current-layer="layer1"
     showgrid="false"
     inkscape:window-width="1600"
     inkscape:window-height="870"
     inkscape:window-x="0"
     inkscape:window-y="0"
     inkscape:window-maximized="1" />
  <metadata
     id="metadata7">
    <rdf:RDF>
      <cc:Work
         rdf:about="">
        <dc:format>image/svg+xml</dc:format>
        <dc:type
           rdf:resource="http://purl.org/dc/dcmitype/StillImage" />
        <dc:title></dc:title>
      </cc:Work>
    </rdf:RDF>
  </metadata>
  <g
     inkscape:label="Layer 1"
     inkscape:groupmode="layer"
     id="layer1"
     transform="translate(0,-452.36218)">
    <path
       style="fill:none;stroke:#000000;stroke-width:1px;stroke-linecap:butt;stroke-linejoin:miter;stroke-opacity:1"
       d="m -260.6432,518.51838 0,462.17458 248.085757,-248.08576 z"
       id="path2985"
       inkscape:connector-curvature="0" />
    <path
       sodipodi:type="arc"
       style="fill:#7b7b7b;fill-opacity:1;stroke:none"
       id="path3848"
       sodipodi:cx="59.264935"
       sodipodi:cy="99.693703"
       sodipodi:rx="12.404288"
       sodipodi:ry="12.404288"
       d="m 71.669223,99.693703 a 12.404288,12.404288 0 1 1 -24.808577,0 12.404288,12.404288 0 1 1 24.808577,0 z"
       transform="translate(234.30322,464.30704)" />
    <path
       transform="translate(289.4334,506.57351)"
       d="m 71.669223,99.693703 a 12.404288,12.404288 0 1 1 -24.808577,0 12.404288,12.404288 0 1 1 24.808577,0 z"
       sodipodi:ry="12.404288"
       sodipodi:rx="12.404288"
       sodipodi:cy="99.693703"
       sodipodi:cx="59.264935"
       id="path3850"
       style="fill:#7b7b7b;fill-opacity:1;stroke:none"
       sodipodi:type="arc" />
    <path
       sodipodi:type="arc"
       style="fill:#7b7b7b;fill-opacity:1;stroke:none"
       id="path3852"
       sodipodi:cx="59.264935"
       sodipodi:cy="99.693703"
       sodipodi:rx="12.404288"
       sodipodi:ry="12.404288"
       d="m 71.669223,99.693703 a 12.404288,12.404288 0 1 1 -24.808577,0 12.404288,12.404288 0 1 1 24.808577,0 z"
       transform="translate(234.30322,553.43414)" />
    <path
       transform="translate(335.83461,550.67765)"
       d="m 71.669223,99.693703 a 12.404288,12.404288 0 1 1 -24.808577,0 12.404288,12.404288 0 1 1 24.808577,0 z"
       sodipodi:ry="12.404288"
       sodipodi:rx="12.404288"
       sodipodi:cy="99.693703"
       sodipodi:cx="59.264935"
       id="path3854"
       style="fill:#7b7b7b;fill-opacity:1;stroke:none"
       sodipodi:type="arc" />
    <path
       sodipodi:type="arc"
       style="fill:#7b7b7b;fill-opacity:1;stroke:none"
       id="path3856"
       sodipodi:cx="59.264935"
       sodipodi:cy="99.693703"
       sodipodi:rx="12.404288"
       sodipodi:ry="12.404288"
       d="m 71.669223,99.693703 a 12.404288,12.404288 0 1 1 -24.808577,0 12.404288,12.404288 0 1 1 24.808577,0 z"
       transform="translate(289.4334,600.2948)" />
    <path
       transform="translate(234.30322,642.56125)"
       d="m 71.669223,99.693703 a 12.404288,12.404288 0 1 1 -24.808577,0 12.404288,12.404288 0 1 1 24.808577,0 z"
       sodipodi:ry="12.404288"
       sodipodi:rx="12.404288"
       sodipodi:cy="99.693703"
       sodipodi:cx="59.264935"
       id="path3858"
       style="fill:#7b7b7b;fill-opacity:1;stroke:none"
       sodipodi:type="arc" />
    <path
       sodipodi:type="arc"
       style="fill:#7b7b7b;fill-opacity:1;stroke:none"
       id="path3862"
       sodipodi:cx="59.264935"
       sodipodi:cy="99.693703"
       sodipodi:rx="12.404288"
       sodipodi:ry="12.404288"
       d="m 71.669223,99.693703 a 12.404288,12.404288 0 1 1 -24.808577,0 12.404288,12.404288 0 1 1 24.808577,0 z"
       transform="translate(393.26188,592.94411)" />
    <path
       transform="translate(335.83461,637.04825)"
       d="m 71.669223,99.693703 a 12.404288,12.404288 0 1 1 -24.808577,0 12.404288,12.404288 0 1 1 24.808577,0 z"
       sodipodi:ry="12.404288"
       sodipodi:rx="12.404288"
       sodipodi:cy="99.693703"
       sodipodi:cx="59.264935"
       id="path3864"
       style="fill:#7b7b7b;fill-opacity:1;stroke:none"
       sodipodi:type="arc" />
    <path
       sodipodi:type="arc"
       style="fill:#7b7b7b;fill-opacity:1;stroke:none"
       id="path3866"
       sodipodi:cx="59.264935"
       sodipodi:cy="99.693703"
       sodipodi:rx="12.404288"
       sodipodi:ry="12.404288"
       d="m 71.669223,99.693703 a 12.404288,12.404288 0 1 1 -24.808577,0 12.404288,12.404288 0 1 1 24.808577,0 z"
       transform="translate(440.12252,637.04825)" />
    <path
       transform="translate(393.26188,686.6654)"
       d="m 71.669223,99.693703 a 12.404288,12.404288 0 1 1 -24.808577,0 12.404288,12.404288 0 1 1 24.808577,0 z"
       sodipodi:ry="12.404288"
       sodipodi:rx="12.404288"
       sodipodi:cy="99.693703"
       sodipodi:cx="59.264935"
       id="path3868"
       style="fill:#7b7b7b;fill-opacity:1;stroke:none"
       sodipodi:type="arc" />
    <path
       sodipodi:type="arc"
       style="fill:#7b7b7b;fill-opacity:1;stroke:none"
       id="path3870"
       sodipodi:cx="59.264935"
       sodipodi:cy="99.693703"
       sodipodi:rx="12.404288"
       sodipodi:ry="12.404288"
       d="m 71.669223,99.693703 a 12.404288,12.404288 0 1 1 -24.808577,0 12.404288,12.404288 0 1 1 24.808577,0 z"
       transform="translate(335.83461,727.09419)" />
    <path
       transform="translate(289.4334,686.6654)"
       d="m 71.669223,99.693703 a 12.404288,12.404288 0 1 1 -24.808577,0 12.404288,12.404288 0 1 1 24.808577,0 z"
       sodipodi:ry="12.404288"
       sodipodi:rx="12.404288"
       sodipodi:cy="99.693703"
       sodipodi:cx="59.264935"
       id="path3874"
       style="fill:#7b7b7b;fill-opacity:1;stroke:none"
       sodipodi:type="arc" />
    <path
       sodipodi:type="arc"
       style="fill:#7b7b7b;fill-opacity:1;stroke:none"
       id="path3876"
       sodipodi:cx="59.264935"
       sodipodi:cy="99.693703"
       sodipodi:rx="12.404288"
       sodipodi:ry="12.404288"
       d="m 71.669223,99.693703 a 12.404288,12.404288 0 1 1 -24.808577,0 12.404288,12.404288 0 1 1 24.808577,0 z"
       transform="translate(234.30322,731.68837)" />
    <path
       sodipodi:type="arc"
       style="fill:#7b7b7b;fill-opacity:1;stroke:none"
       id="path3880"
       sodipodi:cx="59.264935"
       sodipodi:cy="99.693703"
       sodipodi:rx="12.404288"
       sodipodi:ry="12.404288"
       d="m 71.669223,99.693703 a 12.404288,12.404288 0 1 1 -24.808577,0 12.404288,12.404288 0 1 1 24.808577,0 z"
       transform="translate(289.4334,780.38669)" />
    <path
       transform="translate(234.30322,820.81548)"
       d="m 71.669223,99.693703 a 12.404288,12.404288 0 1 1 -24.808577,0 12.404288,12.404288 0 1 1 24.808577,0 z"
       sodipodi:ry="12.404288"
       sodipodi:rx="12.404288"
       sodipodi:cy="99.693703"
       sodipodi:cx="59.264935"
       id="path3882"
       style="fill:#7b7b7b;fill-opacity:1;stroke:none"
       sodipodi:type="arc" />
    <path
       style="fill:none;stroke:#000000;stroke-width:1px;stroke-linecap:butt;stroke-linejoin:miter;stroke-opacity:1;marker-end:url(#Arrow2Lend)"
       d="m 294.95906,630.11053 -1.83767,-42.26647"
       id="path3884"
       inkscape:connector-curvature="0" />
    <path
       inkscape:connector-curvature="0"
       id="path4516"
       d="M 327.10568,595.70061 305.97244,576.40504"
       style="fill:none;stroke:#000000;stroke-width:1px;stroke-linecap:butt;stroke-linejoin:miter;stroke-opacity:1;marker-end:url(#Arrow2Lend)"
       sodipodi:nodetypes="cc" />
    <path
       sodipodi:nodetypes="cc"
       style="fill:none;stroke:#000000;stroke-width:1px;stroke-linecap:butt;stroke-linejoin:miter;stroke-opacity:1;marker-end:url(#Arrow2Lend)"
       d="M 375.80399,635.21057 354.67076,615.915"
       id="path4518"
       inkscape:connector-curvature="0" />
    <path
       inkscape:connector-curvature="0"
       id="path4520"
       d="M 429.09649,682.99005 407.96326,663.69448"
       style="fill:none;stroke:#000000;stroke-width:1px;stroke-linecap:butt;stroke-linejoin:miter;stroke-opacity:1;marker-end:url(#Arrow2Lend)"
       sodipodi:nodetypes="cc" />
    <path
       sodipodi:nodetypes="cc"
       style="fill:none;stroke:#000000;stroke-width:1px;stroke-linecap:butt;stroke-linejoin:miter;stroke-opacity:1;marker-end:url(#Arrow2Lend)"
       d="M 486.98317,726.17535 465.84994,706.87978"
       id="path4522"
       inkscape:connector-curvature="0" />
    <path
       inkscape:connector-curvature="0"
       id="path4524"
       d="m 469.95152,769.36065 21.13323,-19.29557"
       style="fill:none;stroke:#000000;stroke-width:1px;stroke-linecap:butt;stroke-linejoin:miter;stroke-opacity:1;marker-end:url(#Arrow2Lend)"
       sodipodi:nodetypes="cc" />
    <path
       sodipodi:nodetypes="cc"
       style="fill:none;stroke:#000000;stroke-width:1px;stroke-linecap:butt;stroke-linejoin:miter;stroke-opacity:1;marker-end:url(#Arrow2Lend)"
       d="M 415.74019,818.05897 436.87342,798.7634"
       id="path4526"
       inkscape:connector-curvature="0" />
    <path
       inkscape:connector-curvature="0"
       id="path4528"
       d="M 364.28537,861.24427 385.4186,841.9487"
       style="fill:none;stroke:#000000;stroke-width:1px;stroke-linecap:butt;stroke-linejoin:miter;stroke-opacity:1;marker-end:url(#Arrow2Lend)"
       sodipodi:nodetypes="cc" />
    <path
       sodipodi:nodetypes="cc"
       style="fill:none;stroke:#000000;stroke-width:1px;stroke-linecap:butt;stroke-linejoin:miter;stroke-opacity:1;marker-end:url(#Arrow2Lend)"
       d="m 316.50589,909.94259 21.13323,-19.29557"
       id="path4530"
       inkscape:connector-curvature="0" />
    <path
       sodipodi:nodetypes="cc"
       style="fill:none;stroke:#000000;stroke-width:1px;stroke-linecap:butt;stroke-linejoin:miter;stroke-opacity:1;marker-end:url(#Arrow2Lend)"
       d="m 304.56101,637.04824 21.13323,-19.29557"
       id="path4532"
       inkscape:connector-curvature="0" />
    <path
       inkscape:connector-curvature="0"
       id="path4534"
       d="m 294.95906,719.23764 -1.83767,-42.26647"
       style="fill:none;stroke:#000000;stroke-width:1px;stroke-linecap:butt;stroke-linejoin:miter;stroke-opacity:1;marker-end:url(#Arrow2Lend)" />
    <path
       style="fill:none;stroke:#000000;stroke-width:1px;stroke-linecap:butt;stroke-linejoin:miter;stroke-opacity:1;marker-end:url(#Arrow2Lend)"
       d="m 294.95906,808.36474 -1.83767,-42.26647"
       id="path4536"
       inkscape:connector-curvature="0" />
    <path
       inkscape:connector-curvature="0"
       id="path4538"
       d="m 294.95907,897.49186 -1.83768,-42.26647"
       style="fill:none;stroke:#000000;stroke-width:1px;stroke-linecap:butt;stroke-linejoin:miter;stroke-opacity:1;marker-end:url(#Arrow2Lend)" />
    <path
       inkscape:connector-curvature="0"
       id="path4540"
       d="m 350.08924,677.47702 -1.83767,-42.26647"
       style="fill:none;stroke:#000000;stroke-width:1px;stroke-linecap:butt;stroke-linejoin:miter;stroke-opacity:1;marker-end:url(#Arrow2Lend)" />
    <path
       inkscape:connector-curvature="0"
       id="path4542"
       d="m 308.23636,729.85069 21.13323,-19.29557"
       style="fill:none;stroke:#000000;stroke-width:1px;stroke-linecap:butt;stroke-linejoin:miter;stroke-opacity:1;marker-end:url(#Arrow2Lend)"
       sodipodi:nodetypes="cc" />
    <path
       sodipodi:nodetypes="cc"
       style="fill:none;stroke:#000000;stroke-width:1px;stroke-linecap:butt;stroke-linejoin:miter;stroke-opacity:1;marker-end:url(#Arrow2Lend)"
       d="m 360.61002,685.74655 21.13323,-19.29557"
       id="path4544"
       inkscape:connector-curvature="0" />
    <path
       sodipodi:nodetypes="cc"
       style="fill:none;stroke:#000000;stroke-width:1px;stroke-linecap:butt;stroke-linejoin:miter;stroke-opacity:1;marker-end:url(#Arrow2Lend)"
       d="M 328.9196,682.99005 307.78637,663.69448"
       id="path4546"
       inkscape:connector-curvature="0" />
    <path
       inkscape:connector-curvature="0"
       id="path4548"
       d="M 339.02679,855.73125 317.89356,836.43568"
       style="fill:none;stroke:#000000;stroke-width:1px;stroke-linecap:butt;stroke-linejoin:miter;stroke-opacity:1;marker-end:url(#Arrow2Lend)"
       sodipodi:nodetypes="cc" />
    <path
       inkscape:connector-curvature="0"
       id="path4550"
       d="M 330.75727,765.68531 309.62404,746.38974"
       style="fill:none;stroke:#000000;stroke-width:1px;stroke-linecap:butt;stroke-linejoin:miter;stroke-opacity:1;marker-end:url(#Arrow2Lend)"
       sodipodi:nodetypes="cc" />
    <path
       sodipodi:nodetypes="cc"
       style="fill:none;stroke:#000000;stroke-width:1px;stroke-linecap:butt;stroke-linejoin:miter;stroke-opacity:1;marker-end:url(#Arrow2Lend)"
       d="m 315.58705,816.22129 21.13322,-19.29557"
       id="path4552"
       inkscape:connector-curvature="0" />
    <path
       style="fill:none;stroke:#000000;stroke-width:1px;stroke-linecap:butt;stroke-linejoin:miter;stroke-opacity:1;marker-end:url(#Arrow2Lend)"
       d="m 350.08924,850.21822 -1.83767,-42.26647"
       id="path4554"
       inkscape:connector-curvature="0" />
    <path
       style="fill:none;stroke:#000000;stroke-width:1px;stroke-linecap:butt;stroke-linejoin:miter;stroke-opacity:1;marker-end:url(#Arrow2Lend)"
       d="m 396.49046,717.90581 -1.83767,-42.26647"
       id="path4556"
       inkscape:connector-curvature="0" />
    <path
       style="fill:none;stroke:#000000;stroke-width:1px;stroke-linecap:butt;stroke-linejoin:miter;stroke-opacity:1;marker-end:url(#Arrow2Lend)"
       d="m 396.49046,803.35758 -1.83767,-42.26647"
       id="path4558"
       inkscape:connector-curvature="0" />
    <path
       inkscape:connector-curvature="0"
       id="path4560"
       d="M 438.2611,770.27949 417.12787,750.98392"
       style="fill:none;stroke:#000000;stroke-width:1px;stroke-linecap:butt;stroke-linejoin:miter;stroke-opacity:1;marker-end:url(#Arrow2Lend)"
       sodipodi:nodetypes="cc" />
    <path
       sodipodi:nodetypes="cc"
       style="fill:none;stroke:#000000;stroke-width:1px;stroke-linecap:butt;stroke-linejoin:miter;stroke-opacity:1;marker-end:url(#Arrow2Lend)"
       d="M 412.98368,724.33767 434.11691,705.0421"
       id="path4562"
       inkscape:connector-curvature="0" />
    <path
       sodipodi:nodetypes="cc"
       style="fill:none;stroke:#000000;stroke-width:1px;stroke-linecap:butt;stroke-linejoin:miter;stroke-opacity:1;marker-end:url(#Arrow2Lend)"
       d="M 384.04977,812.54595 362.91653,793.25038"
       id="path4566"
       inkscape:connector-curvature="0" />
  </g>
</svg>
