<?xml version="1.0" encoding="UTF-8" standalone="no"?>
<!-- Created with Inkscape (http://www.inkscape.org/) -->
<svg
   xmlns:svg="http://www.w3.org/2000/svg"
   xmlns="http://www.w3.org/2000/svg"
   xmlns:xlink="http://www.w3.org/1999/xlink"
   version="1.0"
   width="297mm"
   height="210mm"
   id="svg18358">
  <image
     xlink:href="3583523428-dancingshiva.jpg"
     x="-6.3408203"
     y="-27.864227"
     width="1065.0438"
     height="799.82294"
     id="image4849" />
  <g
     id="g3886">
    <path
       d="M 416.77402,362.89717 C 416.77402,376.25402 405.94615,387.0819 392.58929,387.0819 C 379.23244,387.0819 368.40457,376.25402 368.40457,362.89717 C 368.40457,349.54032 379.23244,338.71245 392.58929,338.71245 C 405.94615,338.71245 416.77402,349.54032 416.77402,362.89717 L 416.77402,362.89717 z"
       id="path18882"
       style="fill:#ffffff;fill-opacity:1;stroke:#000000;stroke-width:14.17322826;stroke-linecap:round;stroke-linejoin:miter;stroke-miterlimit:4;stroke-dasharray:none;stroke-dashoffset:0;stroke-opacity:1" />
    <path
       d="M 105.82756,207.42395 C 269.36626,209.72465 397.00201,215.2309 396.04424,338.71245"
       id="path18369"
       style="fill:none;fill-rule:evenodd;stroke:#000000;stroke-width:14.17322826;stroke-linecap:butt;stroke-linejoin:miter;stroke-miterlimit:4;stroke-dasharray:none;stroke-opacity:1" />
    <text
       x="209.47638"
       y="161.3578"
       id="text18886"
       xml:space="preserve"
       style="font-size:48px;font-style:normal;font-variant:normal;font-weight:normal;font-stretch:normal;text-align:center;text-anchor:middle;fill:#000000;fill-opacity:1;stroke:none;stroke-width:1px;stroke-linecap:butt;stroke-linejoin:miter;stroke-opacity:1;font-family:Optima;-inkscape-font-specification:Optima"><tspan
         x="209.47638"
         y="161.3578"
         id="tspan18888">The Web</tspan></text>
    <path
       d="M 102.37259,207.42394 C 102.37259,220.78079 91.54472,231.60867 78.18787,231.60867 C 64.83101,231.60867 54.00314,220.78079 54.00314,207.42394 C 54.00314,194.06709 64.83101,183.23922 78.18787,183.23922 C 91.54472,183.23922 102.37259,194.06709 102.37259,207.42394 L 102.37259,207.42394 z"
       id="path18924"
       style="fill:#ffffff;fill-opacity:1;stroke:#000000;stroke-width:14.17322826;stroke-linecap:round;stroke-linejoin:miter;stroke-miterlimit:4;stroke-dasharray:none;stroke-dashoffset:0;stroke-opacity:1" />
  </g>
  <g
     id="g3893">
    <path
       d="M 105.82756,521.82535 C 269.36626,519.52465 397.00201,514.0184 396.04424,390.53685"
       id="path18880"
       style="fill:none;fill-rule:evenodd;stroke:#000000;stroke-width:14.17322826;stroke-linecap:butt;stroke-linejoin:miter;stroke-miterlimit:4;stroke-dasharray:none;stroke-opacity:1" />
    <text
       x="216.38631"
       y="598.98615"
       id="text18890"
       xml:space="preserve"
       style="font-size:48px;font-style:normal;font-variant:normal;font-weight:normal;font-stretch:normal;text-align:center;text-anchor:middle;fill:#000000;fill-opacity:1;stroke:none;stroke-width:1px;stroke-linecap:butt;stroke-linejoin:miter;stroke-opacity:1;font-family:Optima;-inkscape-font-specification:Optima"><tspan
         x="216.38631"
         y="598.98615"
         id="tspan18892">Perl 6</tspan></text>
    <path
       d="M 100.0693,520.6737 C 100.0693,534.03055 89.24143,544.85843 75.88458,544.85843 C 62.52772,544.85843 51.69985,534.03055 51.69985,520.6737 C 51.69985,507.31685 62.52772,496.48898 75.88458,496.48898 C 89.24143,496.48898 100.0693,507.31685 100.0693,520.6737 L 100.0693,520.6737 z"
       id="path18926"
       style="fill:#ffffff;fill-opacity:1;stroke:#000000;stroke-width:14.17322826;stroke-linecap:round;stroke-linejoin:miter;stroke-miterlimit:4;stroke-dasharray:none;stroke-dashoffset:0;stroke-opacity:1" />
  </g>
  <g
     id="g3899">
    <path
       d="M 421.38063,361.74552 L 951.14125,361.74552"
       id="path18884"
       style="fill:none;fill-rule:evenodd;stroke:#000000;stroke-width:14.17322826;stroke-linecap:butt;stroke-linejoin:miter;stroke-miterlimit:4;stroke-dasharray:none;stroke-opacity:1" />
    <text
       x="686.26093"
       y="315.67938"
       id="text18894"
       xml:space="preserve"
       style="font-size:48px;font-style:normal;font-variant:normal;font-weight:normal;font-stretch:normal;text-align:center;text-anchor:middle;fill:#000000;fill-opacity:1;stroke:none;stroke-width:1px;stroke-linecap:butt;stroke-linejoin:miter;stroke-opacity:1;font-family:Optima;-inkscape-font-specification:Optima"><tspan
         x="686.26093"
         y="315.67938"
         id="tspan18896">Web.pm for Perl 6</tspan></text>
    <path
       d="M 1000.6623,357.1389 C 1000.6623,370.49575 989.83446,381.32363 976.47761,381.32363 C 963.12075,381.32363 952.29288,370.49575 952.29288,357.1389 C 952.29288,343.78205 963.12075,332.95418 976.47761,332.95418 C 989.83446,332.95418 1000.6623,343.78205 1000.6623,357.1389 L 1000.6623,357.1389 z"
       id="path18898"
       style="fill:#ffffff;fill-opacity:1;stroke:#000000;stroke-width:14.17322826;stroke-linecap:round;stroke-linejoin:miter;stroke-miterlimit:4;stroke-dasharray:none;stroke-dashoffset:0;stroke-opacity:1" />
  </g>
</svg>
