<?xml version="1.0" encoding="UTF-8" standalone="no"?>
<!-- Created with Inkscape (http://www.inkscape.org/) -->
<svg
   xmlns:svg="http://www.w3.org/2000/svg"
   xmlns="http://www.w3.org/2000/svg"
   xmlns:xlink="http://www.w3.org/1999/xlink"
   version="1.0"
   width="297mm"
   height="210mm"
   id="svg21546">
  <defs
     id="defs21548">
    <marker
       refX="0"
       refY="0"
       orient="auto"
       id="Arrow2Lend"
       style="overflow:visible">
      <path
         d="M 8.7185878,4.0337352 L -2.2072895,0.016013256 L 8.7185884,-4.0017078 C 6.97309,-1.6296469 6.9831476,1.6157441 8.7185878,4.0337352 z"
         transform="matrix(-1.1,0,0,-1.1,-1.1,0)"
         id="path19216"
         style="font-size:12px;fill-rule:evenodd;stroke-width:0.625;stroke-linejoin:round" />
    </marker>
  </defs>
    <image
       xlink:href="3583523428-dancingshiva.jpg"
       x="-6.3408203"
       y="-27.864227"
       width="1065.0438"
       height="799.82294"
       id="image4849" />
    <g
       id="g6065">
      <path
         d="M 527.51143,552.32008 L 229.23317,254.04182"
         id="path21616"
         style="fill:none;fill-rule:evenodd;stroke:#000000;stroke-width:0.99921262;stroke-linecap:butt;stroke-linejoin:miter;marker-end:url(#Arrow2Lend);stroke-miterlimit:4;stroke-dasharray:none;stroke-opacity:1" />
      <path
         d="M 526.85399,552.38926 L 825.13225,254.111"
         id="path22644"
         style="fill:none;fill-rule:evenodd;stroke:#000000;stroke-width:0.99921262;stroke-linecap:butt;stroke-linejoin:miter;marker-end:url(#Arrow2Lend);stroke-miterlimit:4;stroke-dasharray:none;stroke-opacity:1" />
      <text
         x="754.98932"
         y="215.26961"
         id="text22646"
         xml:space="preserve"
         style="font-size:48px;font-style:normal;font-variant:normal;font-weight:normal;font-stretch:normal;text-align:start;text-anchor:start;fill:#000000;fill-opacity:1;stroke:none;stroke-width:1px;stroke-linecap:butt;stroke-linejoin:miter;stroke-opacity:1;font-family:Optima;-inkscape-font-specification:Optima"><tspan
           x="754.98932"
           y="215.26961"
           id="tspan22648"
           style="font-size:32px">Manipulexity</tspan></text>
      <text
         x="116.34834"
         y="216.91133"
         id="text22650"
         xml:space="preserve"
         style="font-size:32px;font-style:normal;font-variant:normal;font-weight:normal;font-stretch:normal;text-align:start;text-anchor:start;fill:#000000;fill-opacity:1;stroke:none;stroke-width:1px;stroke-linecap:butt;stroke-linejoin:miter;stroke-opacity:1;font-family:Optima;-inkscape-font-specification:Optima"><tspan
           x="116.34834"
           y="216.91133"
           id="tspan22652">Whipuptitude</tspan></text>
    </g>
    <g
       id="g6073">
      <path
         d="M 326.70838,269.62854 A 9.8505039,9.8505039 0 1 1 307.00738,269.62854 A 9.8505039,9.8505039 0 1 1 326.70838,269.62854 z"
         id="path22728"
         style="opacity:1;fill:none;fill-opacity:1;stroke:#222222;stroke-width:7.08661413;stroke-linecap:round;stroke-linejoin:miter;stroke-miterlimit:4;stroke-dasharray:none;stroke-dashoffset:0;stroke-opacity:1" />
      <path
         d="M 326.70838,269.62854 A 9.8505039,9.8505039 0 1 1 307.00738,269.62854 A 9.8505039,9.8505039 0 1 1 326.70838,269.62854 z"
         transform="translate(47.61077,19.701005)"
         id="path22730"
         style="opacity:1;fill:none;fill-opacity:1;stroke:#222222;stroke-width:7.08661413;stroke-linecap:round;stroke-linejoin:miter;stroke-miterlimit:4;stroke-dasharray:none;stroke-dashoffset:0;stroke-opacity:1" />
      <path
         d="M 326.70838,269.62854 A 9.8505039,9.8505039 0 1 1 307.00738,269.62854 A 9.8505039,9.8505039 0 1 1 326.70838,269.62854 z"
         transform="translate(34.476765,-22.984512)"
         id="path22732"
         style="opacity:1;fill:none;fill-opacity:1;stroke:#222222;stroke-width:7.08661413;stroke-linecap:round;stroke-linejoin:miter;stroke-miterlimit:4;stroke-dasharray:none;stroke-dashoffset:0;stroke-opacity:1" />
      <path
         d="M 326.70838,269.62854 A 9.8505039,9.8505039 0 1 1 307.00738,269.62854 A 9.8505039,9.8505039 0 1 1 326.70838,269.62854 z"
         transform="translate(21.342759,32.835011)"
         id="path22734"
         style="opacity:1;fill:none;fill-opacity:1;stroke:#222222;stroke-width:7.08661413;stroke-linecap:round;stroke-linejoin:miter;stroke-miterlimit:4;stroke-dasharray:none;stroke-dashoffset:0;stroke-opacity:1" />
      <path
         d="M 326.70838,269.62854 A 9.8505039,9.8505039 0 1 1 307.00738,269.62854 A 9.8505039,9.8505039 0 1 1 326.70838,269.62854 z"
         transform="translate(83.729285,14.775753)"
         id="path22736"
         style="opacity:1;fill:none;fill-opacity:1;stroke:#222222;stroke-width:7.08661413;stroke-linecap:round;stroke-linejoin:miter;stroke-miterlimit:4;stroke-dasharray:none;stroke-dashoffset:0;stroke-opacity:1" />
      <text
         x="420.28815"
         y="194.10802"
         id="text22740"
         xml:space="preserve"
         style="font-size:32px;font-style:normal;font-variant:normal;font-weight:bold;font-stretch:normal;text-align:center;text-anchor:middle;fill:#000000;fill-opacity:1;stroke:none;stroke-width:1px;stroke-linecap:butt;stroke-linejoin:miter;stroke-opacity:1;font-family:Optima;-inkscape-font-specification:Optima Bold"><tspan
           x="420.28815"
           y="194.10802"
           id="tspan22742">scripty</tspan><tspan
           x="420.28815"
           y="234.10802"
           id="tspan22744">things</tspan></text>
    </g>
    <g
       id="g6083">
      <path
         d="M 326.70838,269.62854 A 9.8505039,9.8505039 0 1 1 307.00738,269.62854 A 9.8505039,9.8505039 0 1 1 326.70838,269.62854 z"
         transform="translate(441.63093,-13.134008)"
         id="path22884"
         style="opacity:1;fill:none;fill-opacity:1;stroke:#222222;stroke-width:7.08661413;stroke-linecap:round;stroke-linejoin:miter;stroke-miterlimit:4;stroke-dasharray:none;stroke-dashoffset:0;stroke-opacity:1" />
      <path
         d="M 326.70838,269.62854 A 9.8505039,9.8505039 0 1 1 307.00738,269.62854 A 9.8505039,9.8505039 0 1 1 326.70838,269.62854 z"
         transform="translate(408.79592,18.059255)"
         id="path22886"
         style="opacity:1;fill:none;fill-opacity:1;stroke:#222222;stroke-width:7.08661413;stroke-linecap:round;stroke-linejoin:miter;stroke-miterlimit:4;stroke-dasharray:none;stroke-dashoffset:0;stroke-opacity:1" />
      <path
         d="M 326.70838,269.62854 A 9.8505039,9.8505039 0 1 1 307.00738,269.62854 A 9.8505039,9.8505039 0 1 1 326.70838,269.62854 z"
         transform="translate(405.51242,-27.909764)"
         id="path22888"
         style="opacity:1;fill:none;fill-opacity:1;stroke:#222222;stroke-width:7.08661413;stroke-linecap:round;stroke-linejoin:miter;stroke-miterlimit:4;stroke-dasharray:none;stroke-dashoffset:0;stroke-opacity:1" />
      <path
         d="M 326.70838,269.62854 A 9.8505039,9.8505039 0 1 1 307.00738,269.62854 A 9.8505039,9.8505039 0 1 1 326.70838,269.62854 z"
         transform="translate(371.03565,-8.208756)"
         id="path22890"
         style="opacity:1;fill:none;fill-opacity:1;stroke:#222222;stroke-width:7.08661413;stroke-linecap:round;stroke-linejoin:miter;stroke-miterlimit:4;stroke-dasharray:none;stroke-dashoffset:0;stroke-opacity:1" />
      <path
         d="M 326.70838,269.62854 A 9.8505039,9.8505039 0 1 1 307.00738,269.62854 A 9.8505039,9.8505039 0 1 1 326.70838,269.62854 z"
         transform="translate(377.60266,29.55151)"
         id="path22892"
         style="opacity:1;fill:none;fill-opacity:1;stroke:#222222;stroke-width:7.08661413;stroke-linecap:round;stroke-linejoin:miter;stroke-miterlimit:4;stroke-dasharray:none;stroke-dashoffset:0;stroke-opacity:1" />
      <text
         x="651.59906"
         y="188.33902"
         id="text22894"
         xml:space="preserve"
         style="font-size:32px;font-style:normal;font-variant:normal;font-weight:bold;font-stretch:normal;text-align:center;text-anchor:middle;fill:#000000;fill-opacity:1;stroke:none;stroke-width:1px;stroke-linecap:butt;stroke-linejoin:miter;stroke-opacity:1;font-family:Optima;-inkscape-font-specification:Optima Bold"><tspan
           x="651.59906"
           y="188.33902"
           id="tspan22898">appy</tspan><tspan
           x="651.59906"
           y="228.33902"
           id="tspan22902">things</tspan></text>
    </g>
    <g
       id="g6093">
      <path
         d="M 423.57167,292.61305 C 536.57822,367.05856 608.54577,337.32812 664.90902,267.98679"
         id="path22924"
         style="fill:none;fill-rule:evenodd;stroke:#000000;stroke-width:0.99921262;stroke-linecap:butt;stroke-linejoin:miter;stroke-miterlimit:4;stroke-dasharray:11.99055147, 11.99055147;stroke-dashoffset:0;stroke-opacity:1" />
      <path
         d="M 384.16966,307.3888 C 499.23932,392.07596 595.80507,394.52349 671.47603,304.1053"
         id="path23441"
         style="fill:none;fill-rule:evenodd;stroke:#000000;stroke-width:1;stroke-linecap:butt;stroke-linejoin:miter;stroke-miterlimit:4;stroke-dasharray:12, 12;stroke-dashoffset:0;stroke-opacity:1" />
      <path
         d="M 356.2599,320.52281 C 462.09835,404.08502 571.26753,449.38862 694.46054,320.52281"
         id="path23443"
         style="fill:none;fill-rule:evenodd;stroke:#000000;stroke-width:1;stroke-linecap:butt;stroke-linejoin:miter;stroke-miterlimit:4;stroke-dasharray:12, 12;stroke-dashoffset:0;stroke-opacity:1" />
    </g>
</svg>
