<?xml version="1.0" encoding="UTF-8" standalone="no"?>
<!-- Created with Inkscape (http://www.inkscape.org/) -->

<svg
   xmlns:svg="http://www.w3.org/2000/svg"
   xmlns="http://www.w3.org/2000/svg"
   version="1.1"
   width="297mm"
   height="210mm"
   id="svg2816">
  <defs
     id="defs2818">
    <marker
       refX="0"
       refY="0"
       orient="auto"
       id="Arrow1Mend"
       style="overflow:visible">
      <path
         d="M 0,0 5,-5 -12.5,0 5,5 0,0 z"
         transform="matrix(-0.4,0,0,-0.4,-4,0)"
         id="path4401"
         style="fill-rule:evenodd;stroke:#000000;stroke-width:1pt;marker-start:none;fill:#2244ff;stroke:#2244ff" />
    </marker>
  </defs>
  <g
     id="layer1">
    <text
       x="368.49359"
       y="130.47678"
       id="text2827"
       xml:space="preserve"
       style="font-size:48px;font-style:normal;font-variant:normal;font-weight:normal;font-stretch:normal;text-align:start;text-anchor:start;fill:#000000;fill-opacity:1;stroke:none;font-family:Andale Mono;-inkscape-font-specification:Andale Mono"><tspan
         x="368.49359"
         y="130.47678"
         id="tspan2829">^ x [a*?] y</tspan></text>
    <path
       d="M 311.49297,369.36611 526.96179,246.01802 453.57748,370.92748"
       id="path3633"
       style="fill:none;stroke:#000000;stroke-width:3.54330707;stroke-linecap:butt;stroke-linejoin:miter;stroke-miterlimit:4;stroke-opacity:1;stroke-dasharray:none" />
    <path
       d="m 597.22336,370.92748 -1.56137,242.01207"
       id="path3639"
       style="fill:none;stroke:#000000;stroke-width:3.54330707;stroke-linecap:butt;stroke-linejoin:miter;stroke-miterlimit:4;stroke-opacity:1;stroke-dasharray:none" />
    <path
       d="m 528.52316,244.45665 70.26157,124.90946"
       id="path3635"
       style="fill:none;stroke:#000000;stroke-width:3.54330707;stroke-linecap:butt;stroke-linejoin:miter;stroke-miterlimit:4;stroke-opacity:1;stroke-dasharray:none" />
    <path
       d="M 525.40041,246.01802 743.99197,369.36611"
       id="path3637"
       style="fill:none;stroke:#000000;stroke-width:3.54330707;stroke-linecap:butt;stroke-linejoin:miter;stroke-miterlimit:4;stroke-opacity:1;stroke-dasharray:none" />
    <path
       d="m 159.25956,396.69006 a 35.130787,35.130787 0 1 1 -70.26157,0 35.130787,35.130787 0 1 1 70.26157,0 z"
       transform="matrix(0.51111114,0,0,0.51111114,247.26872,166.3532)"
       id="path2831"
       style="opacity:0.98999999;fill:#731066;fill-opacity:1;stroke:none" />
    <path
       d="m 159.25956,396.69006 a 35.130787,35.130787 0 1 1 -70.26157,0 35.130787,35.130787 0 1 1 70.26157,0 z"
       transform="matrix(0.51111114,0,0,0.51111114,390.91458,166.3532)"
       id="path3605"
       style="opacity:0.98999999;fill:#731066;fill-opacity:1;stroke:none" />
    <path
       d="m 159.25956,396.69006 a 35.130787,35.130787 0 1 1 -70.26157,0 35.130787,35.130787 0 1 1 70.26157,0 z"
       transform="matrix(0.51111114,0,0,0.51111114,534.56043,166.3532)"
       id="path3607"
       style="opacity:0.98999999;fill:#731066;fill-opacity:1;stroke:none" />
    <path
       d="m 159.25956,396.69006 a 35.130787,35.130787 0 1 1 -70.26157,0 35.130787,35.130787 0 1 1 70.26157,0 z"
       transform="matrix(0.51111114,0,0,0.51111114,678.20627,166.3532)"
       id="path3609"
       style="opacity:0.98999999;fill:#731066;fill-opacity:1;stroke:none" />
    <path
       d="m 159.25956,396.69006 a 35.130787,35.130787 0 1 1 -70.26157,0 35.130787,35.130787 0 1 1 70.26157,0 z"
       transform="matrix(0.51111114,0,0,0.51111114,534.56043,288.66033)"
       id="path3611"
       style="opacity:0.98999999;fill:#731066;fill-opacity:1;stroke:none" />
    <path
       d="m 159.25956,396.69006 a 35.130787,35.130787 0 1 1 -70.26157,0 35.130787,35.130787 0 1 1 70.26157,0 z"
       transform="matrix(0.51111114,0,0,0.51111114,534.56043,410.96753)"
       id="path3613"
       style="opacity:0.98999999;fill:#731066;fill-opacity:1;stroke:none" />
    <path
       d="m 159.25956,396.69006 a 35.130787,35.130787 0 1 1 -70.26157,0 35.130787,35.130787 0 1 1 70.26157,0 z"
       transform="matrix(0.51111114,0,0,0.51111114,462.73749,44.046001)"
       id="path3615"
       style="opacity:0.98999999;fill:#731066;fill-opacity:1;stroke:none" />
    <text
       x="257.62576"
       y="378.03897"
       id="text3658"
       xml:space="preserve"
       style="font-size:24px;font-style:normal;font-variant:normal;font-weight:normal;font-stretch:normal;text-align:start;text-anchor:start;fill:#000000;fill-opacity:1;stroke:none;font-family:Andale Mono;-inkscape-font-specification:Andale Mono"><tspan
         x="257.62576"
         y="378.03897"
         id="tspan3660">^</tspan></text>
    <text
       x="415.32394"
       y="378.03897"
       id="text3662"
       xml:space="preserve"
       style="font-size:24px;font-style:normal;font-variant:normal;font-weight:normal;font-stretch:normal;text-align:start;text-anchor:start;fill:#000000;fill-opacity:1;stroke:none;font-family:Andale Mono;-inkscape-font-specification:Andale Mono"><tspan
         x="415.32394"
         y="378.03897"
         id="tspan3664">x</tspan></text>
    <text
       x="704.17706"
       y="378.03897"
       id="text3666"
       xml:space="preserve"
       style="font-size:24px;font-style:normal;font-variant:normal;font-weight:normal;font-stretch:normal;text-align:start;text-anchor:start;fill:#000000;fill-opacity:1;stroke:none;font-family:Andale Mono;-inkscape-font-specification:Andale Mono"><tspan
         x="704.17706"
         y="378.03897"
         id="tspan3668">y</tspan></text>
    <text
       x="556.58044"
       y="619.185"
       id="text3670"
       xml:space="preserve"
       style="font-size:24px;font-style:normal;font-variant:normal;font-weight:normal;font-stretch:normal;text-align:start;text-anchor:start;fill:#000000;fill-opacity:1;stroke:none;font-family:Andale Mono;-inkscape-font-specification:Andale Mono"><tspan
         x="556.58044"
         y="619.185"
         id="tspan3672">a</tspan></text>
    <text
       x="543.26794"
       y="500.52103"
       id="text3674"
       xml:space="preserve"
       style="font-size:24px;font-style:normal;font-variant:normal;font-weight:normal;font-stretch:normal;text-align:start;text-anchor:start;fill:#000000;fill-opacity:1;stroke:none;font-family:Andale Mono;-inkscape-font-specification:Andale Mono"><tspan
         x="543.26794"
         y="500.52103"
         id="tspan3676">*?</tspan></text>
    <text
       x="546.47888"
       y="378.03897"
       id="text3678"
       xml:space="preserve"
       style="font-size:24px;font-style:normal;font-variant:normal;font-weight:normal;font-stretch:normal;text-align:start;text-anchor:start;fill:#000000;fill-opacity:1;stroke:none;font-family:Andale Mono;-inkscape-font-specification:Andale Mono"><tspan
         x="546.47888"
         y="378.03897"
         id="tspan3680">[]</tspan></text>
    <text
       x="554.28571"
       y="238.21118"
       id="text3682"
       xml:space="preserve"
       style="font-size:24px;font-style:normal;font-variant:normal;font-weight:normal;font-stretch:normal;text-align:start;text-anchor:start;fill:#000000;fill-opacity:1;stroke:none;font-family:Andale Mono;-inkscape-font-specification:Andale Mono"><tspan
         x="554.28571"
         y="238.21118"
         id="tspan3684">Concat</tspan></text>
    <text
       x="268.34317"
       y="419.3299"
       id="text3686"
       xml:space="preserve"
       style="font-size:24px;font-style:normal;font-variant:normal;font-weight:normal;font-stretch:normal;text-align:start;text-anchor:start;fill:#000000;fill-opacity:1;stroke:none;font-family:Andale Mono;-inkscape-font-specification:Andale Mono"><tspan
         x="268.34317"
         y="419.3299"
         id="tspan3688">Anchor</tspan></text>
    <text
       x="404.16678"
       y="419.3299"
       id="text3690"
       xml:space="preserve"
       style="font-size:24px;font-style:normal;font-variant:normal;font-weight:normal;font-stretch:normal;text-align:start;text-anchor:start;fill:#000000;fill-opacity:1;stroke:none;font-family:Andale Mono;-inkscape-font-specification:Andale Mono"><tspan
         x="404.16678"
         y="419.3299"
         id="tspan3692">Literal</tspan></text>
    <text
       x="612.05634"
       y="402.15485"
       id="text3694"
       xml:space="preserve"
       style="font-size:24px;font-style:normal;font-variant:normal;font-weight:normal;font-stretch:normal;text-align:start;text-anchor:start;fill:#000000;fill-opacity:1;stroke:none;font-family:Andale Mono;-inkscape-font-specification:Andale Mono"><tspan
         x="612.05634"
         y="402.15485"
         id="tspan3696">Group</tspan></text>
    <text
       x="619.86316"
       y="516.1347"
       id="text3698"
       xml:space="preserve"
       style="font-size:24px;font-style:normal;font-variant:normal;font-weight:normal;font-stretch:normal;text-align:start;text-anchor:start;fill:#000000;fill-opacity:1;stroke:none;font-family:Andale Mono;-inkscape-font-specification:Andale Mono"><tspan
         x="619.86316"
         y="516.1347"
         id="tspan3700">Quant</tspan></text>
    <text
       x="621.42456"
       y="625.43048"
       id="text3702"
       xml:space="preserve"
       style="font-size:24px;font-style:normal;font-variant:normal;font-weight:normal;font-stretch:normal;text-align:start;text-anchor:start;fill:#000000;fill-opacity:1;stroke:none;font-family:Andale Mono;-inkscape-font-specification:Andale Mono"><tspan
         x="621.42456"
         y="625.43048"
         id="tspan3704">Literal</tspan></text>
    <text
       x="752.57947"
       y="402.15485"
       id="text3706"
       xml:space="preserve"
       style="font-size:24px;font-style:normal;font-variant:normal;font-weight:normal;font-stretch:normal;text-align:start;text-anchor:start;fill:#000000;fill-opacity:1;stroke:none;font-family:Andale Mono;-inkscape-font-specification:Andale Mono"><tspan
         x="752.57947"
         y="402.15485"
         id="tspan3708">Literal</tspan></text>
    <path
       d="m 340.37826,371.70816 a 30.44668,30.44668 0 1 1 -60.89336,0 30.44668,30.44668 0 1 1 60.89336,0 z"
       transform="matrix(0.86219163,0,0,0.86219163,43.491907,48.622246)"
       id="path5219"
       style="opacity:0.98999999;fill:none;stroke:#2244ff;stroke-width:8.21930313;stroke-linecap:round;stroke-miterlimit:4;stroke-opacity:1;stroke-dasharray:none" />
    <path
       d="m 340.37826,371.70816 a 30.44668,30.44668 0 1 1 -60.89336,0 30.44668,30.44668 0 1 1 60.89336,0 z"
       transform="matrix(0.86219163,0,0,0.86219163,187.13777,48.622246)"
       id="path5858"
       style="opacity:0.98999999;fill:none;stroke:#2244ff;stroke-width:8.21930313;stroke-linecap:round;stroke-miterlimit:4;stroke-opacity:1;stroke-dasharray:none" />
    <path
       d="m 340.37826,371.70816 a 30.44668,30.44668 0 1 1 -60.89336,0 30.44668,30.44668 0 1 1 60.89336,0 z"
       transform="matrix(0.86219163,0,0,0.86219163,330.78362,170.92938)"
       id="path5860"
       style="opacity:0.98999999;fill:none;stroke:#2244ff;stroke-width:8.21930313;stroke-linecap:round;stroke-miterlimit:4;stroke-opacity:1;stroke-dasharray:none" />
    <path
       d="m 340.37826,371.70816 a 30.44668,30.44668 0 1 1 -60.89336,0 30.44668,30.44668 0 1 1 60.89336,0 z"
       transform="matrix(0.86219163,0,0,0.86219163,474.42946,48.622246)"
       id="path5862"
       style="opacity:0.98999999;fill:none;stroke:#2244ff;stroke-width:8.21930313;stroke-linecap:round;stroke-miterlimit:4;stroke-opacity:1;stroke-dasharray:none" />
    <path
       d="m 335.69417,369.36611 82.65568,0"
       id="path5864"
       style="fill:none;stroke:#2244ff;stroke-width:3.54330707;stroke-linecap:butt;stroke-linejoin:miter;stroke-miterlimit:4;stroke-opacity:1;stroke-dasharray:none;marker-end:url(#Arrow1Mend)" />
    <path
       d="m 474.65594,383.41842 99.92756,82.75252"
       id="path6426"
       style="fill:none;stroke:#2244ff;stroke-width:3.54330707;stroke-linecap:butt;stroke-linejoin:miter;stroke-miterlimit:4;stroke-opacity:1;stroke-dasharray:none;marker-end:url(#Arrow1Mend)" />
    <path
       d="M 621.42455,478.66188 716.79726,395.6763"
       id="path6428"
       style="fill:none;stroke:#2244ff;stroke-width:3.54330707;stroke-linecap:butt;stroke-linejoin:miter;stroke-miterlimit:4;stroke-opacity:1;stroke-dasharray:none;marker-end:url(#Arrow1Mend)" />
    <path
       d="m 768.19316,364.682 113.97988,-1.56136"
       id="path6430"
       style="fill:none;stroke:#2244ff;stroke-width:3.54330707;stroke-linecap:butt;stroke-linejoin:miter;stroke-miterlimit:4;stroke-opacity:1;stroke-dasharray:none;marker-end:url(#Arrow1Mend)" />
    <path
       d="m 163.94366,372.48884 113.97988,-1.56136"
       id="path6432"
       style="fill:none;stroke:#2244ff;stroke-width:3.54330707;stroke-linecap:butt;stroke-linejoin:miter;stroke-miterlimit:4;stroke-opacity:1;stroke-dasharray:none;marker-end:url(#Arrow1Mend)" />
  </g>
</svg>
