<?xml version="1.0" encoding="UTF-8" standalone="no"?>
<!-- Created with Inkscape (http://www.inkscape.org/) -->

<svg
   xmlns:dc="http://purl.org/dc/elements/1.1/"
   xmlns:cc="http://creativecommons.org/ns#"
   xmlns:rdf="http://www.w3.org/1999/02/22-rdf-syntax-ns#"
   xmlns:svg="http://www.w3.org/2000/svg"
   xmlns="http://www.w3.org/2000/svg"
   xmlns:sodipodi="http://sodipodi.sourceforge.net/DTD/sodipodi-0.dtd"
   xmlns:inkscape="http://www.inkscape.org/namespaces/inkscape"
   width="297mm"
   height="210mm"
   id="svg6633"
   version="1.1"
   inkscape:version="0.47pre4 r22446"
   sodipodi:docname="strange-loop.svg">
  <g
     id="g7186"
     transform="translate(26.125631,-65.875568)">
    <path
       id="path7156"
       d="m 500.05545,199.12388 0,113.78507"
       style="fill:none;stroke:#000000;stroke-width:7.08661413;stroke-linecap:butt;stroke-linejoin:miter;stroke-miterlimit:4;stroke-opacity:1;stroke-dasharray:none" />
    <path
       d="m 522.51304,198.37529 c 0,11.98955 -9.71945,21.70899 -21.70899,21.70899 -11.98955,0 -21.709,-9.71944 -21.709,-21.70899 0,-11.98955 9.71945,-21.70899 21.709,-21.70899 11.98954,0 21.70899,9.71944 21.70899,21.70899 z"
       sodipodi:ry="21.708994"
       sodipodi:rx="21.708994"
       sodipodi:cy="198.37529"
       sodipodi:cx="500.80405"
       id="path6644"
       style="fill:#762000;fill-opacity:1;stroke:none"
       sodipodi:type="arc" />
    <path
       id="path7168"
       d="m 501.55262,308.41743 77.10436,77.10436"
       style="fill:none;stroke:#000000;stroke-width:7.08661413;stroke-linecap:butt;stroke-linejoin:miter;stroke-miterlimit:4;stroke-opacity:1;stroke-dasharray:none" />
    <g
       transform="matrix(0.74922848,0.66231163,-0.66231163,0.74922848,257.44586,-169.54778)"
       id="g7162">
      <path
         id="path7164"
         d="m 500.05545,199.12388 0,113.78507"
         style="fill:none;stroke:#000000;stroke-width:7.08661413;stroke-linecap:butt;stroke-linejoin:miter;stroke-miterlimit:4;stroke-opacity:1;stroke-dasharray:none" />
      <path
         d="m 522.51304,198.37529 c 0,11.98955 -9.71945,21.70899 -21.70899,21.70899 -11.98955,0 -21.709,-9.71944 -21.709,-21.70899 0,-11.98955 9.71945,-21.70899 21.709,-21.70899 11.98954,0 21.70899,9.71944 21.70899,21.70899 z"
         sodipodi:ry="21.708994"
         sodipodi:rx="21.708994"
         sodipodi:cy="198.37529"
         sodipodi:cx="500.80405"
         id="path7166"
         style="fill:#762000;fill-opacity:1;stroke:none"
         sodipodi:type="arc" />
    </g>
    <g
       transform="translate(-71.864256,190.14084)"
       id="g7170">
      <path
         id="path7172"
         d="m 500.05545,199.12388 0,113.78507"
         style="fill:none;stroke:#000000;stroke-width:7.08661413;stroke-linecap:butt;stroke-linejoin:miter;stroke-miterlimit:4;stroke-opacity:1;stroke-dasharray:none" />
      <path
         d="m 522.51304,198.37529 c 0,11.98955 -9.71945,21.70899 -21.70899,21.70899 -11.98955,0 -21.709,-9.71944 -21.709,-21.70899 0,-11.98955 9.71945,-21.70899 21.709,-21.70899 11.98954,0 21.70899,9.71944 21.70899,21.70899 z"
         sodipodi:ry="21.708994"
         sodipodi:rx="21.708994"
         sodipodi:cy="198.37529"
         sodipodi:cx="500.80405"
         id="path7174"
         style="fill:#762000;fill-opacity:1;stroke:none"
         sodipodi:type="arc" />
    </g>
    <path
       transform="translate(-74.8586,300.93157)"
       sodipodi:type="arc"
       style="fill:#762000;fill-opacity:1;stroke:none"
       id="path7178"
       sodipodi:cx="500.80405"
       sodipodi:cy="198.37529"
       sodipodi:rx="21.708994"
       sodipodi:ry="21.708994"
       d="m 522.51304,198.37529 c 0,11.98955 -9.71945,21.70899 -21.70899,21.70899 -11.98955,0 -21.709,-9.71944 -21.709,-21.70899 0,-11.98955 9.71945,-21.70899 21.709,-21.70899 11.98954,0 21.70899,9.71944 21.70899,21.70899 z" />
    <path
       d="m 522.51304,198.37529 c 0,11.98955 -9.71945,21.70899 -21.70899,21.70899 -11.98955,0 -21.709,-9.71944 -21.709,-21.70899 0,-11.98955 9.71945,-21.70899 21.709,-21.70899 11.98954,0 21.70899,9.71944 21.70899,21.70899 z"
       sodipodi:ry="21.708994"
       sodipodi:rx="21.708994"
       sodipodi:cy="198.37529"
       sodipodi:cx="500.80405"
       id="path7180"
       style="fill:#762000;fill-opacity:1;stroke:none"
       sodipodi:type="arc"
       transform="translate(73.361428,187.1465)" />
  </g>
  <text
     xml:space="preserve"
     style="font-size:48px;font-style:normal;font-variant:normal;font-weight:normal;font-stretch:normal;text-align:start;text-anchor:start;fill:#000000;fill-opacity:1;stroke:none;font-family:Baskerville;-inkscape-font-specification:Baskerville"
     x="394.22797"
     y="615.33765"
     id="text7182"><tspan
       sodipodi:role="line"
       id="tspan7184"
       x="394.22797"
       y="615.33765">Strange Loop</tspan></text>
  <text
     xml:space="preserve"
     style="font-size:48px;font-style:normal;font-variant:normal;font-weight:normal;font-stretch:normal;text-align:start;text-anchor:start;fill:#000000;fill-opacity:1;stroke:none;font-family:Andale Mono;-inkscape-font-specification:Andale Mono"
     x="488.07809"
     y="449.15161"
     id="text7199"><tspan
       sodipodi:role="line"
       id="tspan7201"
       x="488.07809"
       y="449.15161">a</tspan></text>
  <text
     xml:space="preserve"
     style="font-size:48px;font-style:normal;font-variant:normal;font-weight:normal;font-stretch:normal;text-align:start;text-anchor:start;fill:#000000;fill-opacity:1;stroke:none;font-family:Andale Mono;-inkscape-font-specification:Andale Mono"
     x="492.56958"
     y="338.36087"
     id="text7203"><tspan
       sodipodi:role="line"
       id="tspan7205"
       x="492.56958"
       y="338.36087">b</tspan></text>
  <text
     xml:space="preserve"
     style="font-size:48px;font-style:normal;font-variant:normal;font-weight:normal;font-stretch:normal;text-align:start;text-anchor:start;fill:#000000;fill-opacity:1;stroke:none;font-family:Andale Mono;-inkscape-font-specification:Andale Mono"
     x="562.93671"
     y="251.52489"
     id="text7207"><tspan
       sodipodi:role="line"
       id="tspan7209"
       x="562.93671"
       y="251.52489">c</tspan></text>
  <text
     xml:space="preserve"
     style="font-size:48px;font-style:normal;font-variant:normal;font-weight:normal;font-stretch:normal;text-align:start;text-anchor:start;fill:#000000;fill-opacity:1;stroke:none;font-family:Andale Mono;-inkscape-font-specification:Andale Mono"
     x="562.93671"
     y="143.72852"
     id="text7211"><tspan
       sodipodi:role="line"
       id="tspan7213"
       x="562.93671"
       y="143.72852">a</tspan></text>
</svg>
