<?xml version="1.0" encoding="UTF-8" standalone="no"?>
<!-- Created with Inkscape (http://www.inkscape.org/) -->

<svg
   xmlns:dc="http://purl.org/dc/elements/1.1/"
   xmlns:cc="http://creativecommons.org/ns#"
   xmlns:rdf="http://www.w3.org/1999/02/22-rdf-syntax-ns#"
   xmlns:svg="http://www.w3.org/2000/svg"
   xmlns="http://www.w3.org/2000/svg"
   xmlns:sodipodi="http://sodipodi.sourceforge.net/DTD/sodipodi-0.dtd"
   xmlns:inkscape="http://www.inkscape.org/namespaces/inkscape"
   width="800px"
   height="600px"
   id="svg2985"
   version="1.1"
   inkscape:version="0.48.1 r9760"
   sodipodi:docname="linked-matrix-4.svg">
  <defs
     id="defs2987" />
  <sodipodi:namedview
     id="base"
     pagecolor="#ffffff"
     bordercolor="#666666"
     borderopacity="1.0"
     inkscape:pageopacity="0.0"
     inkscape:pageshadow="2"
     inkscape:zoom="1.0883333"
     inkscape:cx="400"
     inkscape:cy="300"
     inkscape:current-layer="layer1"
     inkscape:document-units="px"
     showgrid="false"
     inkscape:window-width="1600"
     inkscape:window-height="870"
     inkscape:window-x="0"
     inkscape:window-y="0"
     inkscape:window-maximized="1" />
  <metadata
     id="metadata2990">
    <rdf:RDF>
      <cc:Work
         rdf:about="">
        <dc:format>image/svg+xml</dc:format>
        <dc:type
           rdf:resource="http://purl.org/dc/dcmitype/StillImage" />
        <dc:title></dc:title>
      </cc:Work>
    </rdf:RDF>
  </metadata>
  <g
     id="layer1"
     inkscape:label="Layer 1"
     inkscape:groupmode="layer">
    <rect
       style="fill:none;stroke:#000000;stroke-width:2;stroke-linecap:round;stroke-linejoin:round;stroke-miterlimit:4;stroke-opacity:1;stroke-dasharray:none"
       id="rect14680"
       width="46.860645"
       height="46.860645"
       x="500.15314"
       y="127.71821"
       rx="10"
       ry="10" />
    <rect
       ry="10"
       rx="10"
       y="127.71821"
       x="438.8974"
       height="46.860645"
       width="46.860645"
       id="rect15190"
       style="fill:none;stroke:#000000;stroke-width:2;stroke-linecap:round;stroke-linejoin:round;stroke-miterlimit:4;stroke-opacity:1;stroke-dasharray:none" />
    <rect
       ry="10"
       rx="10"
       y="127.71821"
       x="316.38593"
       height="46.860645"
       width="46.860645"
       id="rect15194"
       style="fill:none;stroke:#000000;stroke-width:2;stroke-linecap:round;stroke-linejoin:round;stroke-miterlimit:4;stroke-opacity:1;stroke-dasharray:none" />
    <rect
       ry="10"
       rx="10"
       y="187.62633"
       x="377.64166"
       height="46.860645"
       width="46.860645"
       id="rect15287"
       style="fill:none;stroke:#000000;stroke-width:2;stroke-linecap:round;stroke-linejoin:round;stroke-miterlimit:4;stroke-opacity:1;stroke-dasharray:none" />
    <rect
       ry="10"
       rx="10"
       y="187.62633"
       x="561.40887"
       height="46.860645"
       width="46.860645"
       id="rect15291"
       style="fill:none;stroke:#000000;stroke-width:2;stroke-linecap:round;stroke-linejoin:round;stroke-miterlimit:4;stroke-opacity:1;stroke-dasharray:none" />
    <rect
       ry="10"
       rx="10"
       y="187.62633"
       x="193.87442"
       height="46.860645"
       width="46.860645"
       id="rect15295"
       style="fill:none;stroke:#000000;stroke-width:2;stroke-linecap:round;stroke-linejoin:round;stroke-miterlimit:4;stroke-opacity:1;stroke-dasharray:none" />
    <rect
       style="fill:none;stroke:#000000;stroke-width:2;stroke-linecap:round;stroke-linejoin:round;stroke-miterlimit:4;stroke-opacity:1;stroke-dasharray:none"
       id="rect15299"
       width="46.860645"
       height="46.860645"
       x="500.15314"
       y="247.53442"
       rx="10"
       ry="10" />
    <rect
       ry="10"
       rx="10"
       y="247.53442"
       x="316.38593"
       height="46.860645"
       width="46.860645"
       id="rect15305"
       style="fill:none;stroke:#000000;stroke-width:2;stroke-linecap:round;stroke-linejoin:round;stroke-miterlimit:4;stroke-opacity:1;stroke-dasharray:none" />
    <rect
       ry="10"
       rx="10"
       y="247.53442"
       x="255.13016"
       height="46.860645"
       width="46.860645"
       id="rect15309"
       style="fill:none;stroke:#000000;stroke-width:2;stroke-linecap:round;stroke-linejoin:round;stroke-miterlimit:4;stroke-opacity:1;stroke-dasharray:none" />
    <rect
       ry="10"
       rx="10"
       y="307.44254"
       x="377.64166"
       height="46.860645"
       width="46.860645"
       id="rect15319"
       style="fill:none;stroke:#000000;stroke-width:2;stroke-linecap:round;stroke-linejoin:round;stroke-miterlimit:4;stroke-opacity:1;stroke-dasharray:none" />
    <rect
       ry="10"
       rx="10"
       y="307.44254"
       x="193.87442"
       height="46.860645"
       width="46.860645"
       id="rect15327"
       style="fill:none;stroke:#000000;stroke-width:2;stroke-linecap:round;stroke-linejoin:round;stroke-miterlimit:4;stroke-opacity:1;stroke-dasharray:none" />
    <rect
       style="fill:none;stroke:#000000;stroke-width:2;stroke-linecap:round;stroke-linejoin:round;stroke-miterlimit:4;stroke-opacity:1;stroke-dasharray:none"
       id="rect15339"
       width="46.860645"
       height="46.860645"
       x="561.40887"
       y="367.35068"
       rx="10"
       ry="10" />
    <rect
       ry="10"
       rx="10"
       y="367.35068"
       x="255.13016"
       height="46.860645"
       width="46.860645"
       id="rect15341"
       style="fill:none;stroke:#000000;stroke-width:2;stroke-linecap:round;stroke-linejoin:round;stroke-miterlimit:4;stroke-opacity:1;stroke-dasharray:none" />
    <rect
       style="fill:none;stroke:#000000;stroke-width:2;stroke-linecap:round;stroke-linejoin:round;stroke-miterlimit:4;stroke-opacity:1;stroke-dasharray:none"
       id="rect15349"
       width="46.860645"
       height="46.860645"
       x="438.8974"
       y="427.25879"
       rx="10"
       ry="10" />
    <rect
       ry="10"
       rx="10"
       y="427.25879"
       x="377.64166"
       height="46.860645"
       width="46.860645"
       id="rect15351"
       style="fill:none;stroke:#000000;stroke-width:2;stroke-linecap:round;stroke-linejoin:round;stroke-miterlimit:4;stroke-opacity:1;stroke-dasharray:none" />
    <rect
       ry="10"
       rx="10"
       y="427.25879"
       x="561.40887"
       height="46.860645"
       width="46.860645"
       id="rect15355"
       style="fill:none;stroke:#000000;stroke-width:2;stroke-linecap:round;stroke-linejoin:round;stroke-miterlimit:4;stroke-opacity:1;stroke-dasharray:none" />
    <rect
       ry="10"
       rx="10"
       y="50.535969"
       x="500.15314"
       height="46.860645"
       width="46.860645"
       id="rect15441"
       style="fill:none;stroke:#000000;stroke-width:2;stroke-linecap:round;stroke-linejoin:round;stroke-miterlimit:4;stroke-opacity:1;stroke-dasharray:none" />
    <rect
       style="fill:none;stroke:#000000;stroke-width:2;stroke-linecap:round;stroke-linejoin:round;stroke-miterlimit:4;stroke-opacity:1;stroke-dasharray:none"
       id="rect15443"
       width="46.860645"
       height="46.860645"
       x="438.8974"
       y="50.535969"
       rx="10"
       ry="10" />
    <rect
       style="fill:none;stroke:#000000;stroke-width:2;stroke-linecap:round;stroke-linejoin:round;stroke-miterlimit:4;stroke-opacity:1;stroke-dasharray:none"
       id="rect15445"
       width="46.860645"
       height="46.860645"
       x="316.38593"
       y="50.535969"
       rx="10"
       ry="10" />
    <rect
       style="fill:none;stroke:#000000;stroke-width:2;stroke-linecap:round;stroke-linejoin:round;stroke-miterlimit:4;stroke-opacity:1;stroke-dasharray:none"
       id="rect15447"
       width="46.860645"
       height="46.860645"
       x="377.64166"
       y="50.535969"
       rx="10"
       ry="10" />
    <rect
       style="fill:none;stroke:#000000;stroke-width:2;stroke-linecap:round;stroke-linejoin:round;stroke-miterlimit:4;stroke-opacity:1;stroke-dasharray:none"
       id="rect15449"
       width="46.860645"
       height="46.860645"
       x="561.40887"
       y="50.535969"
       rx="10"
       ry="10" />
    <rect
       style="fill:none;stroke:#000000;stroke-width:2;stroke-linecap:round;stroke-linejoin:round;stroke-miterlimit:4;stroke-opacity:1;stroke-dasharray:none"
       id="rect15451"
       width="46.860645"
       height="46.860645"
       x="193.87442"
       y="50.535969"
       rx="10"
       ry="10" />
    <rect
       style="fill:none;stroke:#000000;stroke-width:2;stroke-linecap:round;stroke-linejoin:round;stroke-miterlimit:4;stroke-opacity:1;stroke-dasharray:none"
       id="rect15457"
       width="46.860645"
       height="46.860645"
       x="255.13016"
       y="50.535969"
       rx="10"
       ry="10" />
    <rect
       ry="10"
       rx="10"
       y="50.535969"
       x="113.93568"
       height="46.860645"
       width="46.860645"
       id="rect15459"
       style="fill:none;stroke:#000000;stroke-width:2;stroke-linecap:round;stroke-linejoin:round;stroke-miterlimit:4;stroke-opacity:1;stroke-dasharray:none" />
    <g
       id="g15496">
      <path
         inkscape:connector-curvature="0"
         id="path15480"
         d="m 160.79633,67.075022 32.15927,0"
         style="fill:none;stroke:#000000;stroke-width:1px;stroke-linecap:butt;stroke-linejoin:miter;stroke-opacity:1" />
      <path
         sodipodi:nodetypes="cc"
         style="fill:none;stroke:#000000;stroke-width:1px;stroke-linecap:butt;stroke-linejoin:miter;stroke-opacity:1"
         d="m 240.73508,67.075022 14.32855,0"
         id="path15482"
         inkscape:connector-curvature="0" />
      <path
         inkscape:connector-curvature="0"
         id="path15484"
         d="m 302.02424,67.075022 14.32855,0"
         style="fill:none;stroke:#000000;stroke-width:1px;stroke-linecap:butt;stroke-linejoin:miter;stroke-opacity:1"
         sodipodi:nodetypes="cc" />
      <path
         sodipodi:nodetypes="cc"
         style="fill:none;stroke:#000000;stroke-width:1px;stroke-linecap:butt;stroke-linejoin:miter;stroke-opacity:1"
         d="m 363.14479,67.075022 14.32855,0"
         id="path15486"
         inkscape:connector-curvature="0" />
      <path
         inkscape:connector-curvature="0"
         id="path15488"
         d="m 424.60256,67.075022 14.32855,0"
         style="fill:none;stroke:#000000;stroke-width:1px;stroke-linecap:butt;stroke-linejoin:miter;stroke-opacity:1"
         sodipodi:nodetypes="cc" />
      <path
         sodipodi:nodetypes="cc"
         style="fill:none;stroke:#000000;stroke-width:1px;stroke-linecap:butt;stroke-linejoin:miter;stroke-opacity:1"
         d="m 485.80742,67.075022 14.32855,0"
         id="path15490"
         inkscape:connector-curvature="0" />
      <path
         inkscape:connector-curvature="0"
         id="path15492"
         d="m 547.01228,67.075022 14.32855,0"
         style="fill:none;stroke:#000000;stroke-width:1px;stroke-linecap:butt;stroke-linejoin:miter;stroke-opacity:1"
         sodipodi:nodetypes="cc" />
      <path
         sodipodi:nodetypes="cssssc"
         style="fill:none;stroke:#000000;stroke-width:1px;stroke-linecap:butt;stroke-linejoin:miter;stroke-opacity:1"
         d="m 608.48291,67.075022 c 0,0 11.7004,-0.278114 17.54068,0 3.41101,0.162433 3.08615,13.782554 0,13.782558 -176.20899,2.14e-4 -352.41861,-0.475107 -528.626959,0 -5.891161,0.01588 -4.407512,-12.445823 -0.252879,-12.461419 4.156868,-0.01561 17.121568,0 17.121568,0"
         id="path15494"
         inkscape:connector-curvature="0" />
    </g>
    <path
       sodipodi:nodetypes="cc"
       style="fill:none;stroke:#000000;stroke-width:1px;stroke-linecap:butt;stroke-linejoin:miter;stroke-opacity:1"
       d="m 363.14479,147.01377 75.236,0"
       id="path15514"
       inkscape:connector-curvature="0" />
    <path
       sodipodi:nodetypes="cc"
       style="fill:none;stroke:#000000;stroke-width:1px;stroke-linecap:butt;stroke-linejoin:miter;stroke-opacity:1"
       d="m 485.80742,147.01377 14.32855,0"
       id="path15518"
       inkscape:connector-curvature="0" />
    <path
       sodipodi:nodetypes="cssssc"
       style="fill:none;stroke:#000000;stroke-width:1px;stroke-linecap:butt;stroke-linejoin:miter;stroke-opacity:1"
       d="m 548.36363,147.01377 c 0,0 11.7004,-0.27812 17.54068,0 3.41101,0.16243 3.08615,13.78255 0,13.78255 -176.20899,2.2e-4 -91.173,-0.4751 -267.38135,0 -5.89116,0.0159 -4.40751,-12.44582 -0.25287,-12.46142 4.15686,-0.0156 17.12156,0 17.12156,0"
       id="path15522"
       inkscape:connector-curvature="0" />
    <path
       inkscape:connector-curvature="0"
       id="path15528"
       d="m 240.73508,206.37058 136.51742,0"
       style="fill:none;stroke:#000000;stroke-width:1px;stroke-linecap:butt;stroke-linejoin:miter;stroke-opacity:1"
       sodipodi:nodetypes="cc" />
    <path
       sodipodi:nodetypes="cc"
       style="fill:none;stroke:#000000;stroke-width:1px;stroke-linecap:butt;stroke-linejoin:miter;stroke-opacity:1"
       d="m 424.60256,206.37058 136.51742,0"
       id="path15534"
       inkscape:connector-curvature="0" />
    <path
       inkscape:connector-curvature="0"
       id="path15540"
       d="m 608.48291,206.37058 c 0,0 11.7004,-0.27811 17.54068,0 3.41101,0.16243 3.08615,13.78256 0,13.78256 -176.20899,2.1e-4 -274.08136,-0.47511 -450.28971,0 -5.89116,0.0159 -4.40751,-12.44582 -0.25288,-12.46142 4.15687,-0.0156 17.12157,0 17.12157,0"
       style="fill:none;stroke:#000000;stroke-width:1px;stroke-linecap:butt;stroke-linejoin:miter;stroke-opacity:1"
       sodipodi:nodetypes="cssssc" />
    <path
       inkscape:connector-curvature="0"
       id="path15548"
       d="m 302.02424,265.7274 14.32855,0"
       style="fill:none;stroke:#000000;stroke-width:1px;stroke-linecap:butt;stroke-linejoin:miter;stroke-opacity:1"
       sodipodi:nodetypes="cc" />
    <path
       sodipodi:nodetypes="cc"
       style="fill:none;stroke:#000000;stroke-width:1px;stroke-linecap:butt;stroke-linejoin:miter;stroke-opacity:1"
       d="m 363.14479,265.7274 136.19603,0"
       id="path15550"
       inkscape:connector-curvature="0" />
    <path
       sodipodi:nodetypes="cssssc"
       style="fill:none;stroke:#000000;stroke-width:1px;stroke-linecap:butt;stroke-linejoin:miter;stroke-opacity:1"
       d="m 548.36363,265.7274 c 0,0 11.7004,-0.27811 17.54068,0 3.41101,0.16243 3.08615,13.78256 0,13.78256 -176.20899,2.1e-4 -152.74972,-0.47511 -328.95807,0 -5.89116,0.0159 -4.40751,-12.44582 -0.25288,-12.46142 4.15687,-0.0156 17.12157,0 17.12157,0"
       id="path15558"
       inkscape:connector-curvature="0" />
    <path
       inkscape:connector-curvature="0"
       id="path15564"
       d="m 240.73508,325.0842 136.69754,0"
       style="fill:none;stroke:#000000;stroke-width:1px;stroke-linecap:butt;stroke-linejoin:miter;stroke-opacity:1"
       sodipodi:nodetypes="cc" />
    <path
       inkscape:connector-curvature="0"
       id="path15576"
       d="m 425.57454,325.0842 c 0,0 11.7004,-0.27811 17.54068,0 3.41101,0.16244 3.08615,13.78256 0,13.78256 -176.20899,2.1e-4 -90.44427,-0.47511 -266.65262,0 -5.89116,0.0159 -4.40751,-12.44582 -0.25288,-12.46142 4.15687,-0.0156 17.12157,0 17.12157,0"
       style="fill:none;stroke:#000000;stroke-width:1px;stroke-linecap:butt;stroke-linejoin:miter;stroke-opacity:1"
       sodipodi:nodetypes="cssssc" />
    <path
       inkscape:connector-curvature="0"
       id="path15584"
       d="m 302.02424,384.44102 259.21244,0"
       style="fill:none;stroke:#000000;stroke-width:1px;stroke-linecap:butt;stroke-linejoin:miter;stroke-opacity:1"
       sodipodi:nodetypes="cc" />
    <path
       sodipodi:nodetypes="cssssc"
       style="fill:none;stroke:#000000;stroke-width:1px;stroke-linecap:butt;stroke-linejoin:miter;stroke-opacity:1"
       d="m 608.48291,384.44102 c 0,0 11.7004,-0.27811 17.54068,0 3.41101,0.16243 3.08615,13.78256 0,13.78256 -176.20899,2.1e-4 -212.869,-0.47511 -389.07735,0 -5.89116,0.0159 -4.40751,-12.44582 -0.25288,-12.46142 4.15687,-0.0156 17.12157,0 17.12157,0"
       id="path15594"
       inkscape:connector-curvature="0" />
    <path
       sodipodi:nodetypes="cc"
       style="fill:none;stroke:#000000;stroke-width:1px;stroke-linecap:butt;stroke-linejoin:miter;stroke-opacity:1"
       d="m 424.60256,443.79783 14.32855,0"
       id="path15606"
       inkscape:connector-curvature="0" />
    <path
       inkscape:connector-curvature="0"
       id="path15608"
       d="m 485.80742,443.79783 74.90877,0"
       style="fill:none;stroke:#000000;stroke-width:1px;stroke-linecap:butt;stroke-linejoin:miter;stroke-opacity:1"
       sodipodi:nodetypes="cc" />
    <path
       inkscape:connector-curvature="0"
       id="path15612"
       d="m 608.48291,443.79783 c 0,0 11.7004,-0.27811 17.54068,0 3.41101,0.16243 3.08615,13.78256 0,13.78256 -176.20899,2.1e-4 -90.44427,-0.47511 -266.65262,0 -5.89116,0.0159 -4.40751,-12.44582 -0.25288,-12.46142 4.15687,-0.0156 17.12157,0 17.12157,0"
       style="fill:none;stroke:#000000;stroke-width:1px;stroke-linecap:butt;stroke-linejoin:miter;stroke-opacity:1"
       sodipodi:nodetypes="cssssc" />
  </g>
</svg>
