<?xml version="1.0" encoding="UTF-8" standalone="no"?>
<!-- Created with Inkscape (http://www.inkscape.org/) -->

<svg
   xmlns:dc="http://purl.org/dc/elements/1.1/"
   xmlns:cc="http://creativecommons.org/ns#"
   xmlns:rdf="http://www.w3.org/1999/02/22-rdf-syntax-ns#"
   xmlns:svg="http://www.w3.org/2000/svg"
   xmlns="http://www.w3.org/2000/svg"
   xmlns:sodipodi="http://sodipodi.sourceforge.net/DTD/sodipodi-0.dtd"
   xmlns:inkscape="http://www.inkscape.org/namespaces/inkscape"
   width="800"
   height="600"
   id="svg2"
   sodipodi:version="0.32"
   inkscape:version="0.48.1 r9760"
   version="1.0"
   sodipodi:docname="sudoku-unsolved.svg">
  <defs
     id="defs4" />
  <sodipodi:namedview
     id="base"
     pagecolor="#ffffff"
     bordercolor="#666666"
     borderopacity="1.0"
     gridtolerance="10000"
     guidetolerance="10"
     objecttolerance="10"
     inkscape:pageopacity="0.0"
     inkscape:pageshadow="2"
     inkscape:zoom="1.0883333"
     inkscape:cx="284.68606"
     inkscape:cy="300"
     inkscape:document-units="px"
     inkscape:current-layer="layer1"
     inkscape:window-width="1600"
     inkscape:window-height="870"
     inkscape:window-x="0"
     inkscape:window-y="0"
     showgrid="false"
     inkscape:window-maximized="1" />
  <metadata
     id="metadata7">
    <rdf:RDF>
      <cc:Work
         rdf:about="">
        <dc:format>image/svg+xml</dc:format>
        <dc:type
           rdf:resource="http://purl.org/dc/dcmitype/StillImage" />
      </cc:Work>
    </rdf:RDF>
  </metadata>
  <g
     inkscape:label="Layer 1"
     inkscape:groupmode="layer"
     id="layer1"
     transform="translate(-50.12524,130.6378)">
    <g
       id="g3281"
       transform="translate(218,-117.99998)">
      <path
         inkscape:connector-curvature="0"
         id="rect1872"
         d="m 131.84616,107.86955 40,0 0,40 -40,0 0,-40 z"
         style="fill:#ffffff;fill-opacity:1;stroke:#000000;stroke-width:2;stroke-miterlimit:4;stroke-opacity:1" />
      <path
         inkscape:connector-curvature="0"
         id="rect2768"
         d="m 171.84616,107.86955 40,0 0,40 -40,0 0,-40 z"
         style="fill:#ffffff;fill-opacity:1;stroke:#000000;stroke-width:2;stroke-miterlimit:4;stroke-opacity:1" />
      <path
         inkscape:connector-curvature="0"
         id="rect2806"
         d="m 251.84619,187.86955 40,0 0,40 -40,0 0,-40 z"
         style="fill:#ffffff;fill-opacity:1;stroke:#000000;stroke-width:2;stroke-miterlimit:4;stroke-opacity:1" />
      <path
         inkscape:connector-curvature="0"
         id="rect2818"
         d="m 211.84613,147.86955 40,0 0,40 -40,0 0,-40 z"
         style="fill:#ffffff;fill-opacity:1;stroke:#000000;stroke-width:2;stroke-miterlimit:4;stroke-opacity:1" />
      <path
         inkscape:connector-curvature="0"
         id="flowRoot2820"
         d="m 55.607422,128.58938 0,-2.51562 c 0.692704,0.32813 1.394527,0.57878 2.105469,0.75195 0.710931,0.17318 1.408196,0.25977 2.091797,0.25977 1.822907,0 3.215158,-0.61296 4.176757,-1.83887 0.961576,-1.22591 1.51073,-3.08756 1.647461,-5.58496 -0.528658,0.78386 -1.198579,1.38542 -2.009765,1.80469 -0.811209,0.41927 -1.708994,0.62891 -2.69336,0.6289 -2.041673,10e-6 -3.657231,-0.6175 -4.846679,-1.85254 -1.189456,-1.23501 -1.784182,-2.92349 -1.78418,-5.06543 -2e-6,-2.09633 0.619789,-3.77797 1.859375,-5.04492 1.239578,-1.2669 2.889316,-1.90037 4.949219,-1.90039 2.360666,2e-5 4.163073,0.90464 5.407226,2.71387 1.244126,1.80926 1.866195,4.43654 1.866211,7.88183 -1.6e-5,3.21746 -0.763361,5.78549 -2.290039,7.70411 -1.526705,1.91862 -3.579763,2.87793 -6.15918,2.87793 -0.692715,0 -1.394537,-0.0684 -2.105468,-0.20508 -0.710942,-0.13672 -1.449223,-0.3418 -2.214844,-0.61524 l 0,0 z m 5.496094,-8.65429 c 1.239573,1e-5 2.221669,-0.42382 2.946289,-1.27149 0.724597,-0.84764 1.086901,-2.00975 1.086914,-3.48633 -1.3e-5,-1.46743 -0.362317,-2.62726 -1.086914,-3.47949 -0.72462,-0.85219 -1.706716,-1.2783 -2.946289,-1.27832 -1.239591,2e-5 -2.221686,0.42613 -2.946289,1.27832 -0.724615,0.85223 -1.086919,2.01206 -1.086914,3.47949 -5e-6,1.47658 0.362299,2.63869 1.086914,3.48633 0.724603,0.84767 1.706698,1.2715 2.946289,1.27149 l 0,0 z"
         style="font-size:28px;stroke-width:2;stroke-miterlimit:4"
         transform="translate(170.5512,48.86415)" />
      <path
         inkscape:connector-curvature="0"
         id="rect2830"
         d="m 171.84616,147.86955 40,0 0,40 -40,0 0,-40 z"
         style="fill:#ffffff;fill-opacity:1;stroke:#000000;stroke-width:2;stroke-miterlimit:4;stroke-opacity:1" />
      <path
         inkscape:connector-curvature="0"
         id="flowRoot2832"
         d="m 56.003906,126.68899 4.511719,0 0,-15.57226 -4.908203,0.98437 0,-2.51562 4.880859,-0.98438 2.761719,0 0,18.08789 4.511719,0 0,2.32422 -11.757813,0 0,-2.32422 z"
         style="font-size:28px;stroke-width:2;stroke-miterlimit:4"
         transform="translate(130.5512,48.86416)" />
      <path
         inkscape:connector-curvature="0"
         id="rect2842"
         d="m 251.84619,147.86955 40,0 0,40 -40,0 0,-40 z"
         style="fill:#ffffff;fill-opacity:1;stroke:#000000;stroke-width:2;stroke-miterlimit:4;stroke-opacity:1" />
      <path
         inkscape:connector-curvature="0"
         id="flowRoot2844"
         d="m 55.552734,108.6011 10.841797,0 0,2.32422 -8.3125,0 0,5.00391 c 0.401036,-0.13671 0.802077,-0.23925 1.203125,-0.30762 0.401035,-0.0684 0.802076,-0.10253 1.203125,-0.10254 2.278636,1e-5 4.083322,0.62436 5.414063,1.87305 1.330714,1.24871 1.996078,2.93946 1.996094,5.07226 -1.6e-5,2.19662 -0.683609,3.90333 -2.050782,5.12012 -1.367199,1.2168 -3.294932,1.8252 -5.783203,1.8252 -0.856777,0 -1.729498,-0.0729 -2.618164,-0.21875 -0.888676,-0.14584 -1.806969,-0.36459 -2.754883,-0.65625 l 0,-2.77539 c 0.82031,0.44661 1.667965,0.77929 2.542969,0.99804 0.874994,0.21875 1.800124,0.32813 2.775391,0.32813 1.576813,0 2.82551,-0.41471 3.746093,-1.24414 0.920561,-0.82943 1.380847,-1.95508 1.38086,-3.37696 -1.3e-5,-1.42186 -0.460299,-2.54751 -1.38086,-3.37695 -0.920583,-0.82942 -2.16928,-1.24413 -3.746093,-1.24414 -0.738288,1e-5 -1.47429,0.082 -2.208008,0.24609 -0.733729,0.16408 -1.483402,0.41928 -2.249024,0.76563 l 0,-10.25391 z"
         style="font-size:28px;stroke-width:2;stroke-miterlimit:4"
         transform="translate(210.5512,48.86416)" />
      <path
         inkscape:connector-curvature="0"
         id="rect2854"
         d="m 51.846165,107.86955 40,0 0,40 -40,0 0,-40 z"
         style="fill:#ffffff;fill-opacity:1;stroke:#000000;stroke-width:2;stroke-miterlimit:4;stroke-opacity:1" />
      <path
         inkscape:connector-curvature="0"
         id="flowRoot2856"
         d="m 55.552734,108.6011 10.841797,0 0,2.32422 -8.3125,0 0,5.00391 c 0.401036,-0.13671 0.802077,-0.23925 1.203125,-0.30762 0.401035,-0.0684 0.802076,-0.10253 1.203125,-0.10254 2.278636,1e-5 4.083322,0.62436 5.414063,1.87305 1.330714,1.24871 1.996078,2.93946 1.996094,5.07226 -1.6e-5,2.19662 -0.683609,3.90333 -2.050782,5.12012 -1.367199,1.2168 -3.294932,1.8252 -5.783203,1.8252 -0.856777,0 -1.729498,-0.0729 -2.618164,-0.21875 -0.888676,-0.14584 -1.806969,-0.36459 -2.754883,-0.65625 l 0,-2.77539 c 0.82031,0.44661 1.667965,0.77929 2.542969,0.99804 0.874994,0.21875 1.800124,0.32813 2.775391,0.32813 1.576813,0 2.82551,-0.41471 3.746093,-1.24414 0.920561,-0.82943 1.380847,-1.95508 1.38086,-3.37696 -1.3e-5,-1.42186 -0.460299,-2.54751 -1.38086,-3.37695 -0.920583,-0.82942 -2.16928,-1.24413 -3.746093,-1.24414 -0.738288,1e-5 -1.47429,0.082 -2.208008,0.24609 -0.733729,0.16408 -1.483402,0.41928 -2.249024,0.76563 l 0,-10.25391 z"
         style="font-size:28px;stroke-width:2;stroke-miterlimit:4"
         transform="translate(10.55124,8.864154)" />
      <path
         inkscape:connector-curvature="0"
         id="rect2866"
         d="m 131.84616,147.86955 40,0 0,40 -40,0 0,-40 z"
         style="fill:#ffffff;fill-opacity:1;stroke:#000000;stroke-width:2;stroke-miterlimit:4;stroke-opacity:1" />
      <path
         inkscape:connector-curvature="0"
         id="rect2878"
         d="m 91.846161,107.86955 39.999999,0 0,40 -39.999999,0 0,-40 z"
         style="fill:#ffffff;fill-opacity:1;stroke:#000000;stroke-width:2;stroke-miterlimit:4;stroke-opacity:1" />
      <path
         inkscape:connector-curvature="0"
         id="flowRoot2880"
         d="m 63.892578,118.00735 c 1.321602,0.28256 2.353828,0.87045 3.09668,1.76367 0.742823,0.89324 1.114242,1.9961 1.114258,3.3086 -1.6e-5,2.01432 -0.692724,3.57292 -2.078125,4.67578 -1.385429,1.10286 -3.354177,1.6543 -5.90625,1.6543 -0.856778,0 -1.738613,-0.0843 -2.645508,-0.25293 -0.906905,-0.16862 -1.843428,-0.42155 -2.80957,-0.75879 l 0,-2.66602 c 0.765622,0.44662 1.604162,0.78386 2.515625,1.01172 0.911452,0.22787 1.863925,0.3418 2.857421,0.3418 1.731762,0 3.051097,-0.3418 3.958008,-1.02539 0.906889,-0.68359 1.360339,-1.67708 1.360352,-2.98047 -1.3e-5,-1.20312 -0.421562,-2.1442 -1.264649,-2.82324 -0.843109,-0.67903 -2.016611,-1.01855 -3.520507,-1.01856 l -2.378907,0 0,-2.26953 2.488282,0 c 1.358063,1e-5 2.397124,-0.27115 3.117187,-0.81348 0.72004,-0.5423 1.080066,-1.32388 1.080078,-2.34472 -1.2e-5,-1.04816 -0.371431,-1.85253 -1.114258,-2.41309 -0.742849,-0.56053 -1.806975,-0.8408 -3.192382,-0.84082 -0.756518,2e-5 -1.567715,0.082 -2.433594,0.24609 -0.86589,0.16408 -1.818363,0.41929 -2.857422,0.76563 l 0,-2.46094 c 1.048173,-0.29165 2.030269,-0.51039 2.946289,-0.65625 0.916009,-0.14581 1.779615,-0.21873 2.59082,-0.21875 2.096344,2e-5 3.755197,0.47626 4.976563,1.42871 1.221339,0.95249 1.832016,2.23993 1.832031,3.86231 -1.5e-5,1.13022 -0.323582,2.08497 -0.970703,2.86425 -0.647149,0.77931 -1.567721,1.31935 -2.761719,1.62012 l 0,0 z"
         style="font-size:28px;stroke-width:2;stroke-miterlimit:4"
         transform="translate(50.55121,8.864157)" />
      <path
         inkscape:connector-curvature="0"
         id="rect2890"
         d="m 211.84613,187.86955 40,0 0,40 -40,0 0,-40 z"
         style="fill:#ffffff;fill-opacity:1;stroke:#000000;stroke-width:2;stroke-miterlimit:4;stroke-opacity:1" />
      <path
         inkscape:connector-curvature="0"
         id="rect2902"
         d="m 51.846165,227.8696 40,0 0,40 -40,0 0,-40 z"
         style="fill:#ffffff;fill-opacity:1;stroke:#000000;stroke-width:2;stroke-miterlimit:4;stroke-opacity:1" />
      <path
         inkscape:connector-curvature="0"
         id="flowRoot2904"
         d="m 61.431641,119.31985 c -1.312508,1e-5 -2.344733,0.35092 -3.09668,1.05274 -0.751958,0.70183 -1.127934,1.66797 -1.12793,2.89843 -4e-6,1.23048 0.375972,2.19662 1.12793,2.89844 0.751947,0.70183 1.784172,1.05274 3.09668,1.05274 1.312489,0 2.346994,-0.35319 3.103515,-1.05957 0.756498,-0.70638 1.134753,-1.67025 1.134766,-2.89161 -1.3e-5,-1.23046 -0.375989,-2.1966 -1.12793,-2.89843 -0.751964,-0.70182 -1.788747,-1.05273 -3.110351,-1.05274 l 0,0 z m -2.761719,-1.17578 c -1.184901,-0.29165 -2.107752,-0.84309 -2.768555,-1.6543 -0.66081,-0.81118 -0.991213,-1.80011 -0.991211,-2.96679 -2e-6,-1.6315 0.581052,-2.92121 1.743164,-3.86914 1.162104,-0.9479 2.754876,-1.42186 4.778321,-1.42188 2.032541,2e-5 3.627591,0.47398 4.785156,1.42188 1.157537,0.94793 1.736313,2.23764 1.736328,3.86914 -1.5e-5,1.16668 -0.330419,2.15561 -0.991211,2.96679 -0.660821,0.81121 -1.579114,1.36265 -2.754883,1.6543 1.330716,0.30991 2.367499,0.91603 3.110352,1.81836 0.742823,0.90235 1.114242,2.00522 1.114258,3.30859 -1.6e-5,1.97787 -0.603857,3.49545 -1.811524,4.55274 -1.207695,1.05729 -2.937185,1.58594 -5.188476,1.58594 -2.251309,0 -3.9808,-0.52865 -5.188477,-1.58594 -1.207685,-1.05729 -1.811525,-2.57487 -1.811523,-4.55274 -2e-6,-1.30337 0.373695,-2.40624 1.121093,-3.30859 0.747392,-0.90233 1.786454,-1.50845 3.117188,-1.81836 l 0,0 z m -1.011719,-4.36133 c -5e-6,1.05731 0.330398,1.88218 0.991211,2.47461 0.660801,0.59246 1.588209,0.88869 2.782227,0.88867 1.184885,2e-5 2.112293,-0.29621 2.782226,-0.88867 0.66991,-0.59243 1.00487,-1.4173 1.004883,-2.47461 -1.3e-5,-1.05727 -0.334973,-1.88214 -1.004883,-2.47461 -0.669933,-0.59243 -1.597341,-0.88865 -2.782226,-0.88867 -1.194018,2e-5 -2.121426,0.29624 -2.782227,0.88867 -0.660813,0.59247 -0.991216,1.41734 -0.991211,2.47461 l 0,0 z"
         style="font-size:28px;stroke-width:2;stroke-miterlimit:4"
         transform="translate(10.55121,128.8642)" />
      <path
         inkscape:connector-curvature="0"
         id="rect2914"
         d="m 371.84619,267.8696 40,0 0,40 -40,0 0,-40 z"
         style="fill:#ffffff;fill-opacity:1;stroke:#000000;stroke-width:2;stroke-miterlimit:4;stroke-opacity:1" />
      <path
         inkscape:connector-curvature="0"
         id="flowRoot2916"
         d="m 56.003906,126.68899 4.511719,0 0,-15.57226 -4.908203,0.98437 0,-2.51562 4.880859,-0.98438 2.761719,0 0,18.08789 4.511719,0 0,2.32422 -11.757813,0 0,-2.32422 z"
         style="font-size:28px;stroke-width:2;stroke-miterlimit:4"
         transform="translate(330.5512,168.8642)" />
      <path
         inkscape:connector-curvature="0"
         id="rect2926"
         d="m 371.84613,187.86955 40,0 0,40 -40,0 0,-40 z"
         style="fill:#ffffff;fill-opacity:1;stroke:#000000;stroke-width:2;stroke-miterlimit:4;stroke-opacity:1" />
      <path
         inkscape:connector-curvature="0"
         id="rect2938"
         d="m 331.84619,187.86955 40,0 0,40 -40,0 0,-40 z"
         style="fill:#ffffff;fill-opacity:1;stroke:#000000;stroke-width:2;stroke-miterlimit:4;stroke-opacity:1" />
      <path
         inkscape:connector-curvature="0"
         id="flowRoot2940"
         d="m 61.773438,117.70657 c -1.239592,1e-5 -2.221687,0.42384 -2.94629,1.27149 -0.724615,0.84766 -1.086919,2.00977 -1.086914,3.48632 -5e-6,1.46746 0.362299,2.62729 1.086914,3.4795 0.724603,0.85221 1.706698,1.27832 2.94629,1.27832 1.239572,0 2.221668,-0.42611 2.946289,-1.27832 0.724596,-0.85221 1.0869,-2.01204 1.086914,-3.4795 -1.4e-5,-1.47655 -0.362318,-2.63866 -1.086914,-3.48632 -0.724621,-0.84765 -1.706717,-1.27148 -2.946289,-1.27149 l 0,0 z m 5.482421,-8.6543 0,2.51563 c -0.692722,-0.32811 -1.392266,-0.57876 -2.098632,-0.75195 -0.706393,-0.17316 -1.405936,-0.25975 -2.098633,-0.25977 -1.822926,2e-5 -3.215177,0.61525 -4.176758,1.8457 -0.961594,1.23049 -1.510747,3.08986 -1.647461,5.57813 0.537755,-0.79296 1.212234,-1.40136 2.023438,-1.8252 0.81119,-0.42381 1.704418,-0.63573 2.679687,-0.63574 2.05077,1e-5 3.670885,0.62208 4.860352,1.86621 1.189437,1.24415 1.784163,2.93718 1.784179,5.0791 -1.6e-5,2.09636 -0.619807,3.778 -1.859375,5.04493 -1.239596,1.26692 -2.889334,1.90039 -4.949218,1.90039 -2.360684,0 -4.16537,-0.90463 -5.414063,-2.71387 -1.2487,-1.80924 -1.873049,-4.43196 -1.873047,-7.86817 -2e-6,-3.22654 0.765622,-5.79913 2.296875,-7.71777 1.531244,-1.9186 3.586581,-2.87791 6.166016,-2.87793 0.692697,2e-5 1.392241,0.0684 2.098633,0.20508 0.706367,0.13674 1.442368,0.34182 2.208007,0.61523 l 0,0 z"
         style="font-size:28px;stroke-width:2;stroke-miterlimit:4"
         transform="translate(290.5512,88.86416)" />
      <path
         inkscape:connector-curvature="0"
         id="rect2950"
         d="m 91.846161,307.8696 39.999999,0 0,40 -39.999999,0 0,-40 z"
         style="fill:#ffffff;fill-opacity:1;stroke:#000000;stroke-width:2;stroke-miterlimit:4;stroke-opacity:1" />
      <path
         inkscape:connector-curvature="0"
         id="rect2962"
         d="m 91.846161,147.86955 39.999999,0 0,40 -39.999999,0 0,-40 z"
         style="fill:#ffffff;fill-opacity:1;stroke:#000000;stroke-width:2;stroke-miterlimit:4;stroke-opacity:1" />
      <path
         inkscape:connector-curvature="0"
         id="rect2974"
         d="m 291.84619,187.86955 40,0 0,40 -40,0 0,-40 z"
         style="fill:#ffffff;fill-opacity:1;stroke:#000000;stroke-width:2;stroke-miterlimit:4;stroke-opacity:1" />
      <path
         inkscape:connector-curvature="0"
         id="rect2986"
         d="m 171.84616,187.86955 40,0 0,40 -40,0 0,-40 z"
         style="fill:#ffffff;fill-opacity:1;stroke:#000000;stroke-width:2;stroke-miterlimit:4;stroke-opacity:1" />
      <path
         inkscape:connector-curvature="0"
         id="rect2998"
         d="m 331.84613,267.86957 40,0 0,40 -40,0 0,-40 z"
         style="fill:#ffffff;fill-opacity:1;stroke:#000000;stroke-width:2;stroke-miterlimit:4;stroke-opacity:1" />
      <path
         inkscape:connector-curvature="0"
         id="rect3010"
         d="m 51.846165,307.8696 40,0 0,40 -40,0 0,-40 z"
         style="fill:#ffffff;fill-opacity:1;stroke:#000000;stroke-width:2;stroke-miterlimit:4;stroke-opacity:1" />
      <path
         inkscape:connector-curvature="0"
         id="flowRoot3012"
         d="m 54.828125,108.6011 13.125,0 0,1.17578 -7.410156,19.23633 -2.884766,0 6.972656,-18.08789 -9.802734,0 0,-2.32422 z"
         style="font-size:28px;stroke-width:2;stroke-miterlimit:4"
         transform="translate(10.55121,208.8642)" />
      <path
         inkscape:connector-curvature="0"
         id="rect3022"
         d="m 51.846165,387.8696 40,0 0,40 -40,0 0,-40 z"
         style="fill:#ffffff;fill-opacity:1;stroke:#000000;stroke-width:2;stroke-miterlimit:4;stroke-opacity:1" />
      <path
         inkscape:connector-curvature="0"
         id="rect3034"
         d="m 91.846161,387.86957 39.999999,0 0,40 -39.999999,0 0,-40 z"
         style="fill:#ffffff;fill-opacity:1;stroke:#000000;stroke-width:2;stroke-miterlimit:4;stroke-opacity:1" />
      <path
         inkscape:connector-curvature="0"
         id="rect3046"
         d="m 371.84619,347.8696 40,0 0,40 -40,0 0,-40 z"
         style="fill:#ffffff;fill-opacity:1;stroke:#000000;stroke-width:2;stroke-miterlimit:4;stroke-opacity:1" />
      <path
         inkscape:connector-curvature="0"
         id="rect3058"
         d="m 171.84616,387.8696 40,0 0,40 -40,0 0,-40 z"
         style="fill:#ffffff;fill-opacity:1;stroke:#000000;stroke-width:2;stroke-miterlimit:4;stroke-opacity:1" />
      <path
         inkscape:connector-curvature="0"
         id="flowRoot3060"
         d="m 63.113281,111.00735 -6.972656,10.89649 6.972656,0 0,-10.89649 z m -0.724609,-2.40625 3.472656,0 0,13.30274 2.91211,0 0,2.29687 -2.91211,0 0,4.8125 -2.748047,0 0,-4.8125 -9.214843,0 0,-2.66601 8.490234,-12.9336 z"
         style="font-size:28px;stroke-width:2;stroke-miterlimit:4"
         transform="translate(130.5512,288.8642)" />
      <path
         inkscape:connector-curvature="0"
         id="rect3070"
         d="m 291.84613,267.86957 40,0 0,40 -40,0 0,-40 z"
         style="fill:#ffffff;fill-opacity:1;stroke:#000000;stroke-width:2;stroke-miterlimit:4;stroke-opacity:1" />
      <path
         inkscape:connector-curvature="0"
         id="rect3082"
         d="m 331.84619,347.8696 40,0 0,40 -40,0 0,-40 z"
         style="fill:#ffffff;fill-opacity:1;stroke:#000000;stroke-width:2;stroke-miterlimit:4;stroke-opacity:1" />
      <path
         inkscape:connector-curvature="0"
         id="flowRoot3084"
         d="m 61.431641,119.31985 c -1.312508,1e-5 -2.344733,0.35092 -3.09668,1.05274 -0.751958,0.70183 -1.127934,1.66797 -1.12793,2.89843 -4e-6,1.23048 0.375972,2.19662 1.12793,2.89844 0.751947,0.70183 1.784172,1.05274 3.09668,1.05274 1.312489,0 2.346994,-0.35319 3.103515,-1.05957 0.756498,-0.70638 1.134753,-1.67025 1.134766,-2.89161 -1.3e-5,-1.23046 -0.375989,-2.1966 -1.12793,-2.89843 -0.751964,-0.70182 -1.788747,-1.05273 -3.110351,-1.05274 l 0,0 z m -2.761719,-1.17578 c -1.184901,-0.29165 -2.107752,-0.84309 -2.768555,-1.6543 -0.66081,-0.81118 -0.991213,-1.80011 -0.991211,-2.96679 -2e-6,-1.6315 0.581052,-2.92121 1.743164,-3.86914 1.162104,-0.9479 2.754876,-1.42186 4.778321,-1.42188 2.032541,2e-5 3.627591,0.47398 4.785156,1.42188 1.157537,0.94793 1.736313,2.23764 1.736328,3.86914 -1.5e-5,1.16668 -0.330419,2.15561 -0.991211,2.96679 -0.660821,0.81121 -1.579114,1.36265 -2.754883,1.6543 1.330716,0.30991 2.367499,0.91603 3.110352,1.81836 0.742823,0.90235 1.114242,2.00522 1.114258,3.30859 -1.6e-5,1.97787 -0.603857,3.49545 -1.811524,4.55274 -1.207695,1.05729 -2.937185,1.58594 -5.188476,1.58594 -2.251309,0 -3.9808,-0.52865 -5.188477,-1.58594 -1.207685,-1.05729 -1.811525,-2.57487 -1.811523,-4.55274 -2e-6,-1.30337 0.373695,-2.40624 1.121093,-3.30859 0.747392,-0.90233 1.786454,-1.50845 3.117188,-1.81836 l 0,0 z m -1.011719,-4.36133 c -5e-6,1.05731 0.330398,1.88218 0.991211,2.47461 0.660801,0.59246 1.588209,0.88869 2.782227,0.88867 1.184885,2e-5 2.112293,-0.29621 2.782226,-0.88867 0.66991,-0.59243 1.00487,-1.4173 1.004883,-2.47461 -1.3e-5,-1.05727 -0.334973,-1.88214 -1.004883,-2.47461 -0.669933,-0.59243 -1.597341,-0.88865 -2.782226,-0.88867 -1.194018,2e-5 -2.121426,0.29624 -2.782227,0.88867 -0.660813,0.59247 -0.991216,1.41734 -0.991211,2.47461 l 0,0 z"
         style="font-size:28px;stroke-width:2;stroke-miterlimit:4"
         transform="translate(290.5512,248.8642)" />
      <path
         inkscape:connector-curvature="0"
         id="rect3094"
         d="m 251.84619,267.8696 40,0 0,40 -40,0 0,-40 z"
         style="fill:#ffffff;fill-opacity:1;stroke:#000000;stroke-width:2;stroke-miterlimit:4;stroke-opacity:1" />
      <path
         inkscape:connector-curvature="0"
         id="flowRoot3096"
         d="m 63.892578,118.00735 c 1.321602,0.28256 2.353828,0.87045 3.09668,1.76367 0.742823,0.89324 1.114242,1.9961 1.114258,3.3086 -1.6e-5,2.01432 -0.692724,3.57292 -2.078125,4.67578 -1.385429,1.10286 -3.354177,1.6543 -5.90625,1.6543 -0.856778,0 -1.738613,-0.0843 -2.645508,-0.25293 -0.906905,-0.16862 -1.843428,-0.42155 -2.80957,-0.75879 l 0,-2.66602 c 0.765622,0.44662 1.604162,0.78386 2.515625,1.01172 0.911452,0.22787 1.863925,0.3418 2.857421,0.3418 1.731762,0 3.051097,-0.3418 3.958008,-1.02539 0.906889,-0.68359 1.360339,-1.67708 1.360352,-2.98047 -1.3e-5,-1.20312 -0.421562,-2.1442 -1.264649,-2.82324 -0.843109,-0.67903 -2.016611,-1.01855 -3.520507,-1.01856 l -2.378907,0 0,-2.26953 2.488282,0 c 1.358063,1e-5 2.397124,-0.27115 3.117187,-0.81348 0.72004,-0.5423 1.080066,-1.32388 1.080078,-2.34472 -1.2e-5,-1.04816 -0.371431,-1.85253 -1.114258,-2.41309 -0.742849,-0.56053 -1.806975,-0.8408 -3.192382,-0.84082 -0.756518,2e-5 -1.567715,0.082 -2.433594,0.24609 -0.86589,0.16408 -1.818363,0.41929 -2.857422,0.76563 l 0,-2.46094 c 1.048173,-0.29165 2.030269,-0.51039 2.946289,-0.65625 0.916009,-0.14581 1.779615,-0.21873 2.59082,-0.21875 2.096344,2e-5 3.755197,0.47626 4.976563,1.42871 1.221339,0.95249 1.832016,2.23993 1.832031,3.86231 -1.5e-5,1.13022 -0.323582,2.08497 -0.970703,2.86425 -0.647149,0.77931 -1.567721,1.31935 -2.761719,1.62012 l 0,0 z"
         style="font-size:28px;stroke-width:2;stroke-miterlimit:4"
         transform="translate(210.5512,168.8642)" />
      <path
         inkscape:connector-curvature="0"
         id="rect3106"
         d="m 251.84613,107.86955 40,0 0,40 -40,0 0,-40 z"
         style="fill:#ffffff;fill-opacity:1;stroke:#000000;stroke-width:2;stroke-miterlimit:4;stroke-opacity:1" />
      <path
         inkscape:connector-curvature="0"
         id="rect3118"
         d="m 291.84619,107.86955 40,0 0,40 -40,0 0,-40 z"
         style="fill:#ffffff;fill-opacity:1;stroke:#000000;stroke-width:2;stroke-miterlimit:4;stroke-opacity:1" />
      <path
         inkscape:connector-curvature="0"
         id="rect3130"
         d="m 211.84619,227.8696 40,0 0,40 -40,0 0,-40 z"
         style="fill:#ffffff;fill-opacity:1;stroke:#000000;stroke-width:2;stroke-miterlimit:4;stroke-opacity:1" />
      <path
         inkscape:connector-curvature="0"
         id="flowRoot3132"
         d="m 61.773438,117.70657 c -1.239592,1e-5 -2.221687,0.42384 -2.94629,1.27149 -0.724615,0.84766 -1.086919,2.00977 -1.086914,3.48632 -5e-6,1.46746 0.362299,2.62729 1.086914,3.4795 0.724603,0.85221 1.706698,1.27832 2.94629,1.27832 1.239572,0 2.221668,-0.42611 2.946289,-1.27832 0.724596,-0.85221 1.0869,-2.01204 1.086914,-3.4795 -1.4e-5,-1.47655 -0.362318,-2.63866 -1.086914,-3.48632 -0.724621,-0.84765 -1.706717,-1.27148 -2.946289,-1.27149 l 0,0 z m 5.482421,-8.6543 0,2.51563 c -0.692722,-0.32811 -1.392266,-0.57876 -2.098632,-0.75195 -0.706393,-0.17316 -1.405936,-0.25975 -2.098633,-0.25977 -1.822926,2e-5 -3.215177,0.61525 -4.176758,1.8457 -0.961594,1.23049 -1.510747,3.08986 -1.647461,5.57813 0.537755,-0.79296 1.212234,-1.40136 2.023438,-1.8252 0.81119,-0.42381 1.704418,-0.63573 2.679687,-0.63574 2.05077,1e-5 3.670885,0.62208 4.860352,1.86621 1.189437,1.24415 1.784163,2.93718 1.784179,5.0791 -1.6e-5,2.09636 -0.619807,3.778 -1.859375,5.04493 -1.239596,1.26692 -2.889334,1.90039 -4.949218,1.90039 -2.360684,0 -4.16537,-0.90463 -5.414063,-2.71387 -1.2487,-1.80924 -1.873049,-4.43196 -1.873047,-7.86817 -2e-6,-3.22654 0.765622,-5.79913 2.296875,-7.71777 1.531244,-1.9186 3.586581,-2.87791 6.166016,-2.87793 0.692697,2e-5 1.392241,0.0684 2.098633,0.20508 0.706367,0.13674 1.442368,0.34182 2.208007,0.61523 l 0,0 z"
         style="font-size:28px;stroke-width:2;stroke-miterlimit:4"
         transform="translate(170.5512,128.8642)" />
      <path
         inkscape:connector-curvature="0"
         id="rect3142"
         d="m 371.84613,147.86955 40,0 0,40 -40,0 0,-40 z"
         style="fill:#ffffff;fill-opacity:1;stroke:#000000;stroke-width:2;stroke-miterlimit:4;stroke-opacity:1" />
      <path
         inkscape:connector-curvature="0"
         id="rect3154"
         d="m 331.84619,147.86955 40,0 0,40 -40,0 0,-40 z"
         style="fill:#ffffff;fill-opacity:1;stroke:#000000;stroke-width:2;stroke-miterlimit:4;stroke-opacity:1" />
      <path
         inkscape:connector-curvature="0"
         id="rect3166"
         d="m 291.84619,227.8696 40,0 0,40 -40,0 0,-40 z"
         style="fill:#ffffff;fill-opacity:1;stroke:#000000;stroke-width:2;stroke-miterlimit:4;stroke-opacity:1" />
      <path
         inkscape:connector-curvature="0"
         id="rect3178"
         d="m 211.84613,107.86955 40,0 0,40 -40,0 0,-40 z"
         style="fill:#ffffff;fill-opacity:1;stroke:#000000;stroke-width:2;stroke-miterlimit:4;stroke-opacity:1" />
      <path
         inkscape:connector-curvature="0"
         id="flowRoot3180"
         d="m 54.828125,108.6011 13.125,0 0,1.17578 -7.410156,19.23633 -2.884766,0 6.972656,-18.08789 -9.802734,0 0,-2.32422 z"
         style="font-size:28px;stroke-width:2;stroke-miterlimit:4"
         transform="translate(170.5512,8.864154)" />
      <path
         inkscape:connector-curvature="0"
         id="rect3190"
         d="m 131.84616,227.8696 40,0 0,40 -40,0 0,-40 z"
         style="fill:#ffffff;fill-opacity:1;stroke:#000000;stroke-width:2;stroke-miterlimit:4;stroke-opacity:1" />
      <path
         inkscape:connector-curvature="0"
         id="rect3202"
         d="m 291.84619,147.86955 40,0 0,40 -40,0 0,-40 z"
         style="fill:#ffffff;fill-opacity:1;stroke:#000000;stroke-width:2;stroke-miterlimit:4;stroke-opacity:1" />
      <path
         inkscape:connector-curvature="0"
         id="rect3214"
         d="m 171.84613,227.86955 40,0 0,40 -40,0 0,-40 z"
         style="fill:#ffffff;fill-opacity:1;stroke:#000000;stroke-width:2;stroke-miterlimit:4;stroke-opacity:1" />
      <path
         inkscape:connector-curvature="0"
         id="rect3226"
         d="m 251.84619,227.8696 40,0 0,40 -40,0 0,-40 z"
         style="fill:#ffffff;fill-opacity:1;stroke:#000000;stroke-width:2;stroke-miterlimit:4;stroke-opacity:1" />
      <path
         inkscape:connector-curvature="0"
         id="rect3238"
         d="m 371.84619,307.8696 40,0 0,40 -40,0 0,-40 z"
         style="fill:#ffffff;fill-opacity:1;stroke:#000000;stroke-width:2;stroke-miterlimit:4;stroke-opacity:1" />
      <path
         inkscape:connector-curvature="0"
         id="flowRoot3240"
         d="m 61.773438,117.70657 c -1.239592,1e-5 -2.221687,0.42384 -2.94629,1.27149 -0.724615,0.84766 -1.086919,2.00977 -1.086914,3.48632 -5e-6,1.46746 0.362299,2.62729 1.086914,3.4795 0.724603,0.85221 1.706698,1.27832 2.94629,1.27832 1.239572,0 2.221668,-0.42611 2.946289,-1.27832 0.724596,-0.85221 1.0869,-2.01204 1.086914,-3.4795 -1.4e-5,-1.47655 -0.362318,-2.63866 -1.086914,-3.48632 -0.724621,-0.84765 -1.706717,-1.27148 -2.946289,-1.27149 l 0,0 z m 5.482421,-8.6543 0,2.51563 c -0.692722,-0.32811 -1.392266,-0.57876 -2.098632,-0.75195 -0.706393,-0.17316 -1.405936,-0.25975 -2.098633,-0.25977 -1.822926,2e-5 -3.215177,0.61525 -4.176758,1.8457 -0.961594,1.23049 -1.510747,3.08986 -1.647461,5.57813 0.537755,-0.79296 1.212234,-1.40136 2.023438,-1.8252 0.81119,-0.42381 1.704418,-0.63573 2.679687,-0.63574 2.05077,1e-5 3.670885,0.62208 4.860352,1.86621 1.189437,1.24415 1.784163,2.93718 1.784179,5.0791 -1.6e-5,2.09636 -0.619807,3.778 -1.859375,5.04493 -1.239596,1.26692 -2.889334,1.90039 -4.949218,1.90039 -2.360684,0 -4.16537,-0.90463 -5.414063,-2.71387 -1.2487,-1.80924 -1.873049,-4.43196 -1.873047,-7.86817 -2e-6,-3.22654 0.765622,-5.79913 2.296875,-7.71777 1.531244,-1.9186 3.586581,-2.87791 6.166016,-2.87793 0.692697,2e-5 1.392241,0.0684 2.098633,0.20508 0.706367,0.13674 1.442368,0.34182 2.208007,0.61523 l 0,0 z"
         style="font-size:28px;stroke-width:2;stroke-miterlimit:4"
         transform="translate(330.5512,208.8642)" />
      <path
         inkscape:connector-curvature="0"
         id="rect3250"
         d="m 211.84613,307.86957 40,0 0,40 -40,0 0,-40 z"
         style="fill:#ffffff;fill-opacity:1;stroke:#000000;stroke-width:2;stroke-miterlimit:4;stroke-opacity:1" />
      <path
         inkscape:connector-curvature="0"
         id="flowRoot3252"
         d="m 57.904297,126.68899 9.638672,0 0,2.32422 -12.960938,0 0,-2.32422 c 1.048174,-1.08463 2.476884,-2.54068 4.286133,-4.36816 1.809237,-1.82747 2.94628,-3.00553 3.411133,-3.53418 0.884104,-0.99348 1.501616,-1.8343 1.852539,-2.52246 0.350899,-0.68814 0.526355,-1.3649 0.526367,-2.03028 -1.2e-5,-1.08462 -0.380545,-1.96873 -1.141601,-2.65234 -0.761078,-0.68357 -1.752288,-1.02537 -2.973633,-1.02539 -0.865893,2e-5 -1.779629,0.15041 -2.741211,0.45117 -0.961593,0.3008 -1.989261,0.75653 -3.083008,1.36719 l 0,-2.78906 c 1.111976,-0.4466 2.151037,-0.78384 3.117188,-1.01172 0.966139,-0.22785 1.850253,-0.34178 2.652343,-0.3418 2.114574,2e-5 3.80077,0.52867 5.058594,1.58594 1.257798,1.05731 1.886704,2.47007 1.886719,4.23828 -1.5e-5,0.83856 -0.157242,1.6338 -0.47168,2.38574 -0.314467,0.75197 -0.886407,1.63836 -1.71582,2.65918 -0.227877,0.26433 -0.952486,1.02768 -2.173828,2.29004 -1.221364,1.26238 -2.944018,3.02833 -5.167969,5.29785 l 0,0 z"
         style="font-size:28px;stroke-width:2;stroke-miterlimit:4"
         transform="translate(170.5512,208.8642)" />
      <path
         inkscape:connector-curvature="0"
         id="rect3262"
         d="m 171.84616,307.8696 40,0 0,40 -40,0 0,-40 z"
         style="fill:#ffffff;fill-opacity:1;stroke:#000000;stroke-width:2;stroke-miterlimit:4;stroke-opacity:1" />
      <path
         inkscape:connector-curvature="0"
         id="rect3274"
         d="m 51.846165,347.8696 40,0 0,40 -40,0 0,-40 z"
         style="fill:#ffffff;fill-opacity:1;stroke:#000000;stroke-width:2;stroke-miterlimit:4;stroke-opacity:1" />
      <path
         inkscape:connector-curvature="0"
         id="rect3286"
         d="m 91.846161,227.86955 39.999999,0 0,40 -39.999999,0 0,-40 z"
         style="fill:#ffffff;fill-opacity:1;stroke:#000000;stroke-width:2;stroke-miterlimit:4;stroke-opacity:1" />
      <path
         inkscape:connector-curvature="0"
         id="rect3298"
         d="m 331.84619,307.8696 40,0 0,40 -40,0 0,-40 z"
         style="fill:#ffffff;fill-opacity:1;stroke:#000000;stroke-width:2;stroke-miterlimit:4;stroke-opacity:1" />
      <path
         inkscape:connector-curvature="0"
         id="rect3310"
         d="m 131.84616,307.8696 40,0 0,40 -40,0 0,-40 z"
         style="fill:#ffffff;fill-opacity:1;stroke:#000000;stroke-width:2;stroke-miterlimit:4;stroke-opacity:1" />
      <path
         inkscape:connector-curvature="0"
         id="rect3322"
         d="m 131.84616,387.86957 40,0 0,40 -40,0 0,-40 z"
         style="fill:#ffffff;fill-opacity:1;stroke:#000000;stroke-width:2;stroke-miterlimit:4;stroke-opacity:1" />
      <path
         inkscape:connector-curvature="0"
         id="rect3334"
         d="m 51.846165,427.8696 40,0 0,40 -40,0 0,-40 z"
         style="fill:#ffffff;fill-opacity:1;stroke:#000000;stroke-width:2;stroke-miterlimit:4;stroke-opacity:1" />
      <path
         inkscape:connector-curvature="0"
         id="rect3346"
         d="m 331.84619,387.8696 40,0 0,40 -40,0 0,-40 z"
         style="fill:#ffffff;fill-opacity:1;stroke:#000000;stroke-width:2;stroke-miterlimit:4;stroke-opacity:1" />
      <path
         inkscape:connector-curvature="0"
         id="rect3358"
         d="m 371.84613,387.86957 40,0 0,40 -40,0 0,-40 z"
         style="fill:#ffffff;fill-opacity:1;stroke:#000000;stroke-width:2;stroke-miterlimit:4;stroke-opacity:1" />
      <path
         inkscape:connector-curvature="0"
         id="flowRoot3360"
         d="m 55.552734,108.6011 10.841797,0 0,2.32422 -8.3125,0 0,5.00391 c 0.401036,-0.13671 0.802077,-0.23925 1.203125,-0.30762 0.401035,-0.0684 0.802076,-0.10253 1.203125,-0.10254 2.278636,1e-5 4.083322,0.62436 5.414063,1.87305 1.330714,1.24871 1.996078,2.93946 1.996094,5.07226 -1.6e-5,2.19662 -0.683609,3.90333 -2.050782,5.12012 -1.367199,1.2168 -3.294932,1.8252 -5.783203,1.8252 -0.856777,0 -1.729498,-0.0729 -2.618164,-0.21875 -0.888676,-0.14584 -1.806969,-0.36459 -2.754883,-0.65625 l 0,-2.77539 c 0.82031,0.44661 1.667965,0.77929 2.542969,0.99804 0.874994,0.21875 1.800124,0.32813 2.775391,0.32813 1.576813,0 2.82551,-0.41471 3.746093,-1.24414 0.920561,-0.82943 1.380847,-1.95508 1.38086,-3.37696 -1.3e-5,-1.42186 -0.460299,-2.54751 -1.38086,-3.37695 -0.920583,-0.82942 -2.16928,-1.24413 -3.746093,-1.24414 -0.738288,1e-5 -1.47429,0.082 -2.208008,0.24609 -0.733729,0.16408 -1.483402,0.41928 -2.249024,0.76563 l 0,-10.25391 z"
         style="font-size:28px;stroke-width:2;stroke-miterlimit:4"
         transform="translate(330.5512,288.8642)" />
      <path
         inkscape:connector-curvature="0"
         id="rect3370"
         d="m 291.84619,387.8696 40,0 0,40 -40,0 0,-40 z"
         style="fill:#ffffff;fill-opacity:1;stroke:#000000;stroke-width:2;stroke-miterlimit:4;stroke-opacity:1" />
      <path
         inkscape:connector-curvature="0"
         id="rect3382"
         d="m 91.846161,427.8696 39.999999,0 0,40 -39.999999,0 0,-40 z"
         style="fill:#ffffff;fill-opacity:1;stroke:#000000;stroke-width:2;stroke-miterlimit:4;stroke-opacity:1" />
      <path
         inkscape:connector-curvature="0"
         id="rect3394"
         d="m 291.84613,307.86957 40,0 0,40 -40,0 0,-40 z"
         style="fill:#ffffff;fill-opacity:1;stroke:#000000;stroke-width:2;stroke-miterlimit:4;stroke-opacity:1" />
      <path
         inkscape:connector-curvature="0"
         id="rect3406"
         d="m 251.84619,387.8696 40,0 0,40 -40,0 0,-40 z"
         style="fill:#ffffff;fill-opacity:1;stroke:#000000;stroke-width:2;stroke-miterlimit:4;stroke-opacity:1" />
      <path
         inkscape:connector-curvature="0"
         id="flowRoot3408"
         d="m 55.607422,128.58938 0,-2.51562 c 0.692704,0.32813 1.394527,0.57878 2.105469,0.75195 0.710931,0.17318 1.408196,0.25977 2.091797,0.25977 1.822907,0 3.215158,-0.61296 4.176757,-1.83887 0.961576,-1.22591 1.51073,-3.08756 1.647461,-5.58496 -0.528658,0.78386 -1.198579,1.38542 -2.009765,1.80469 -0.811209,0.41927 -1.708994,0.62891 -2.69336,0.6289 -2.041673,10e-6 -3.657231,-0.6175 -4.846679,-1.85254 -1.189456,-1.23501 -1.784182,-2.92349 -1.78418,-5.06543 -2e-6,-2.09633 0.619789,-3.77797 1.859375,-5.04492 1.239578,-1.2669 2.889316,-1.90037 4.949219,-1.90039 2.360666,2e-5 4.163073,0.90464 5.407226,2.71387 1.244126,1.80926 1.866195,4.43654 1.866211,7.88183 -1.6e-5,3.21746 -0.763361,5.78549 -2.290039,7.70411 -1.526705,1.91862 -3.579763,2.87793 -6.15918,2.87793 -0.692715,0 -1.394537,-0.0684 -2.105468,-0.20508 -0.710942,-0.13672 -1.449223,-0.3418 -2.214844,-0.61524 l 0,0 z m 5.496094,-8.65429 c 1.239573,1e-5 2.221669,-0.42382 2.946289,-1.27149 0.724597,-0.84764 1.086901,-2.00975 1.086914,-3.48633 -1.3e-5,-1.46743 -0.362317,-2.62726 -1.086914,-3.47949 -0.72462,-0.85219 -1.706716,-1.2783 -2.946289,-1.27832 -1.239591,2e-5 -2.221686,0.42613 -2.946289,1.27832 -0.724615,0.85223 -1.086919,2.01206 -1.086914,3.47949 -5e-6,1.47658 0.362299,2.63869 1.086914,3.48633 0.724603,0.84767 1.706698,1.2715 2.946289,1.27149 l 0,0 z"
         style="font-size:28px;stroke-width:2;stroke-miterlimit:4"
         transform="translate(210.5512,288.8642)" />
      <path
         inkscape:connector-curvature="0"
         id="rect3418"
         d="m 211.84619,387.8696 40,0 0,40 -40,0 0,-40 z"
         style="fill:#ffffff;fill-opacity:1;stroke:#000000;stroke-width:2;stroke-miterlimit:4;stroke-opacity:1" />
      <path
         inkscape:connector-curvature="0"
         id="flowRoot3420"
         d="m 56.003906,126.68899 4.511719,0 0,-15.57226 -4.908203,0.98437 0,-2.51562 4.880859,-0.98438 2.761719,0 0,18.08789 4.511719,0 0,2.32422 -11.757813,0 0,-2.32422 z"
         style="font-size:28px;stroke-width:2;stroke-miterlimit:4"
         transform="translate(170.5512,288.8642)" />
      <path
         inkscape:connector-curvature="0"
         id="rect3430"
         d="m 371.84613,107.86955 40,0 0,40 -40,0 0,-40 z"
         style="fill:#ffffff;fill-opacity:1;stroke:#000000;stroke-width:2;stroke-miterlimit:4;stroke-opacity:1" />
      <path
         inkscape:connector-curvature="0"
         id="rect3442"
         d="m 51.846165,147.86955 40,0 0,40 -40,0 0,-40 z"
         style="fill:#ffffff;fill-opacity:1;stroke:#000000;stroke-width:2;stroke-miterlimit:4;stroke-opacity:1" />
      <path
         inkscape:connector-curvature="0"
         id="flowRoot3444"
         d="m 61.773438,117.70657 c -1.239592,1e-5 -2.221687,0.42384 -2.94629,1.27149 -0.724615,0.84766 -1.086919,2.00977 -1.086914,3.48632 -5e-6,1.46746 0.362299,2.62729 1.086914,3.4795 0.724603,0.85221 1.706698,1.27832 2.94629,1.27832 1.239572,0 2.221668,-0.42611 2.946289,-1.27832 0.724596,-0.85221 1.0869,-2.01204 1.086914,-3.4795 -1.4e-5,-1.47655 -0.362318,-2.63866 -1.086914,-3.48632 -0.724621,-0.84765 -1.706717,-1.27148 -2.946289,-1.27149 l 0,0 z m 5.482421,-8.6543 0,2.51563 c -0.692722,-0.32811 -1.392266,-0.57876 -2.098632,-0.75195 -0.706393,-0.17316 -1.405936,-0.25975 -2.098633,-0.25977 -1.822926,2e-5 -3.215177,0.61525 -4.176758,1.8457 -0.961594,1.23049 -1.510747,3.08986 -1.647461,5.57813 0.537755,-0.79296 1.212234,-1.40136 2.023438,-1.8252 0.81119,-0.42381 1.704418,-0.63573 2.679687,-0.63574 2.05077,1e-5 3.670885,0.62208 4.860352,1.86621 1.189437,1.24415 1.784163,2.93718 1.784179,5.0791 -1.6e-5,2.09636 -0.619807,3.778 -1.859375,5.04493 -1.239596,1.26692 -2.889334,1.90039 -4.949218,1.90039 -2.360684,0 -4.16537,-0.90463 -5.414063,-2.71387 -1.2487,-1.80924 -1.873049,-4.43196 -1.873047,-7.86817 -2e-6,-3.22654 0.765622,-5.79913 2.296875,-7.71777 1.531244,-1.9186 3.586581,-2.87791 6.166016,-2.87793 0.692697,2e-5 1.392241,0.0684 2.098633,0.20508 0.706367,0.13674 1.442368,0.34182 2.208007,0.61523 l 0,0 z"
         style="font-size:28px;stroke-width:2;stroke-miterlimit:4"
         transform="translate(10.55121,48.86416)" />
      <path
         inkscape:connector-curvature="0"
         id="rect3454"
         d="m 91.846161,267.8696 39.999999,0 0,40 -39.999999,0 0,-40 z"
         style="fill:#ffffff;fill-opacity:1;stroke:#000000;stroke-width:2;stroke-miterlimit:4;stroke-opacity:1" />
      <path
         inkscape:connector-curvature="0"
         id="rect3466"
         d="m 131.84616,187.86955 40,0 0,40 -40,0 0,-40 z"
         style="fill:#ffffff;fill-opacity:1;stroke:#000000;stroke-width:2;stroke-miterlimit:4;stroke-opacity:1" />
      <path
         inkscape:connector-curvature="0"
         id="flowRoot3468"
         d="m 61.431641,119.31985 c -1.312508,1e-5 -2.344733,0.35092 -3.09668,1.05274 -0.751958,0.70183 -1.127934,1.66797 -1.12793,2.89843 -4e-6,1.23048 0.375972,2.19662 1.12793,2.89844 0.751947,0.70183 1.784172,1.05274 3.09668,1.05274 1.312489,0 2.346994,-0.35319 3.103515,-1.05957 0.756498,-0.70638 1.134753,-1.67025 1.134766,-2.89161 -1.3e-5,-1.23046 -0.375989,-2.1966 -1.12793,-2.89843 -0.751964,-0.70182 -1.788747,-1.05273 -3.110351,-1.05274 l 0,0 z m -2.761719,-1.17578 c -1.184901,-0.29165 -2.107752,-0.84309 -2.768555,-1.6543 -0.66081,-0.81118 -0.991213,-1.80011 -0.991211,-2.96679 -2e-6,-1.6315 0.581052,-2.92121 1.743164,-3.86914 1.162104,-0.9479 2.754876,-1.42186 4.778321,-1.42188 2.032541,2e-5 3.627591,0.47398 4.785156,1.42188 1.157537,0.94793 1.736313,2.23764 1.736328,3.86914 -1.5e-5,1.16668 -0.330419,2.15561 -0.991211,2.96679 -0.660821,0.81121 -1.579114,1.36265 -2.754883,1.6543 1.330716,0.30991 2.367499,0.91603 3.110352,1.81836 0.742823,0.90235 1.114242,2.00522 1.114258,3.30859 -1.6e-5,1.97787 -0.603857,3.49545 -1.811524,4.55274 -1.207695,1.05729 -2.937185,1.58594 -5.188476,1.58594 -2.251309,0 -3.9808,-0.52865 -5.188477,-1.58594 -1.207685,-1.05729 -1.811525,-2.57487 -1.811523,-4.55274 -2e-6,-1.30337 0.373695,-2.40624 1.121093,-3.30859 0.747392,-0.90233 1.786454,-1.50845 3.117188,-1.81836 l 0,0 z m -1.011719,-4.36133 c -5e-6,1.05731 0.330398,1.88218 0.991211,2.47461 0.660801,0.59246 1.588209,0.88869 2.782227,0.88867 1.184885,2e-5 2.112293,-0.29621 2.782226,-0.88867 0.66991,-0.59243 1.00487,-1.4173 1.004883,-2.47461 -1.3e-5,-1.05727 -0.334973,-1.88214 -1.004883,-2.47461 -0.669933,-0.59243 -1.597341,-0.88865 -2.782226,-0.88867 -1.194018,2e-5 -2.121426,0.29624 -2.782227,0.88867 -0.660813,0.59247 -0.991216,1.41734 -0.991211,2.47461 l 0,0 z"
         style="font-size:28px;stroke-width:2;stroke-miterlimit:4"
         transform="translate(90.55124,88.86415)" />
      <path
         inkscape:connector-curvature="0"
         id="rect3478"
         d="m 91.846161,187.86955 39.999999,0 0,40 -39.999999,0 0,-40 z"
         style="fill:#ffffff;fill-opacity:1;stroke:#000000;stroke-width:2;stroke-miterlimit:4;stroke-opacity:1" />
      <path
         inkscape:connector-curvature="0"
         id="flowRoot3480"
         d="m 55.607422,128.58938 0,-2.51562 c 0.692704,0.32813 1.394527,0.57878 2.105469,0.75195 0.710931,0.17318 1.408196,0.25977 2.091797,0.25977 1.822907,0 3.215158,-0.61296 4.176757,-1.83887 0.961576,-1.22591 1.51073,-3.08756 1.647461,-5.58496 -0.528658,0.78386 -1.198579,1.38542 -2.009765,1.80469 -0.811209,0.41927 -1.708994,0.62891 -2.69336,0.6289 -2.041673,10e-6 -3.657231,-0.6175 -4.846679,-1.85254 -1.189456,-1.23501 -1.784182,-2.92349 -1.78418,-5.06543 -2e-6,-2.09633 0.619789,-3.77797 1.859375,-5.04492 1.239578,-1.2669 2.889316,-1.90037 4.949219,-1.90039 2.360666,2e-5 4.163073,0.90464 5.407226,2.71387 1.244126,1.80926 1.866195,4.43654 1.866211,7.88183 -1.6e-5,3.21746 -0.763361,5.78549 -2.290039,7.70411 -1.526705,1.91862 -3.579763,2.87793 -6.15918,2.87793 -0.692715,0 -1.394537,-0.0684 -2.105468,-0.20508 -0.710942,-0.13672 -1.449223,-0.3418 -2.214844,-0.61524 l 0,0 z m 5.496094,-8.65429 c 1.239573,1e-5 2.221669,-0.42382 2.946289,-1.27149 0.724597,-0.84764 1.086901,-2.00975 1.086914,-3.48633 -1.3e-5,-1.46743 -0.362317,-2.62726 -1.086914,-3.47949 -0.72462,-0.85219 -1.706716,-1.2783 -2.946289,-1.27832 -1.239591,2e-5 -2.221686,0.42613 -2.946289,1.27832 -0.724615,0.85223 -1.086919,2.01206 -1.086914,3.47949 -5e-6,1.47658 0.362299,2.63869 1.086914,3.48633 0.724603,0.84767 1.706698,1.2715 2.946289,1.27149 l 0,0 z"
         style="font-size:28px;stroke-width:2;stroke-miterlimit:4"
         transform="translate(50.55121,88.86416)" />
      <path
         inkscape:connector-curvature="0"
         id="rect3490"
         d="m 131.84616,267.8696 40,0 0,40 -40,0 0,-40 z"
         style="fill:#ffffff;fill-opacity:1;stroke:#000000;stroke-width:2;stroke-miterlimit:4;stroke-opacity:1" />
      <path
         inkscape:connector-curvature="0"
         id="rect3502"
         d="m 331.84613,107.86955 40,0 0,40 -40,0 0,-40 z"
         style="fill:#ffffff;fill-opacity:1;stroke:#000000;stroke-width:2;stroke-miterlimit:4;stroke-opacity:1" />
      <path
         inkscape:connector-curvature="0"
         id="rect3514"
         d="m 371.84619,227.8696 40,0 0,40 -40,0 0,-40 z"
         style="fill:#ffffff;fill-opacity:1;stroke:#000000;stroke-width:2;stroke-miterlimit:4;stroke-opacity:1" />
      <path
         inkscape:connector-curvature="0"
         id="flowRoot3516"
         d="m 63.892578,118.00735 c 1.321602,0.28256 2.353828,0.87045 3.09668,1.76367 0.742823,0.89324 1.114242,1.9961 1.114258,3.3086 -1.6e-5,2.01432 -0.692724,3.57292 -2.078125,4.67578 -1.385429,1.10286 -3.354177,1.6543 -5.90625,1.6543 -0.856778,0 -1.738613,-0.0843 -2.645508,-0.25293 -0.906905,-0.16862 -1.843428,-0.42155 -2.80957,-0.75879 l 0,-2.66602 c 0.765622,0.44662 1.604162,0.78386 2.515625,1.01172 0.911452,0.22787 1.863925,0.3418 2.857421,0.3418 1.731762,0 3.051097,-0.3418 3.958008,-1.02539 0.906889,-0.68359 1.360339,-1.67708 1.360352,-2.98047 -1.3e-5,-1.20312 -0.421562,-2.1442 -1.264649,-2.82324 -0.843109,-0.67903 -2.016611,-1.01855 -3.520507,-1.01856 l -2.378907,0 0,-2.26953 2.488282,0 c 1.358063,1e-5 2.397124,-0.27115 3.117187,-0.81348 0.72004,-0.5423 1.080066,-1.32388 1.080078,-2.34472 -1.2e-5,-1.04816 -0.371431,-1.85253 -1.114258,-2.41309 -0.742849,-0.56053 -1.806975,-0.8408 -3.192382,-0.84082 -0.756518,2e-5 -1.567715,0.082 -2.433594,0.24609 -0.86589,0.16408 -1.818363,0.41929 -2.857422,0.76563 l 0,-2.46094 c 1.048173,-0.29165 2.030269,-0.51039 2.946289,-0.65625 0.916009,-0.14581 1.779615,-0.21873 2.59082,-0.21875 2.096344,2e-5 3.755197,0.47626 4.976563,1.42871 1.221339,0.95249 1.832016,2.23993 1.832031,3.86231 -1.5e-5,1.13022 -0.323582,2.08497 -0.970703,2.86425 -0.647149,0.77931 -1.567721,1.31935 -2.761719,1.62012 l 0,0 z"
         style="font-size:28px;stroke-width:2;stroke-miterlimit:4"
         transform="translate(330.5512,128.8642)" />
      <path
         inkscape:connector-curvature="0"
         id="rect3526"
         d="m 51.846165,187.86955 40,0 0,40 -40,0 0,-40 z"
         style="fill:#ffffff;fill-opacity:1;stroke:#000000;stroke-width:2;stroke-miterlimit:4;stroke-opacity:1" />
      <path
         inkscape:connector-curvature="0"
         id="rect3538"
         d="m 51.846165,267.86957 40,0 0,40 -40,0 0,-40 z"
         style="fill:#ffffff;fill-opacity:1;stroke:#000000;stroke-width:2;stroke-miterlimit:4;stroke-opacity:1" />
      <path
         inkscape:connector-curvature="0"
         id="flowRoot3540"
         d="m 63.113281,111.00735 -6.972656,10.89649 6.972656,0 0,-10.89649 z m -0.724609,-2.40625 3.472656,0 0,13.30274 2.91211,0 0,2.29687 -2.91211,0 0,4.8125 -2.748047,0 0,-4.8125 -9.214843,0 0,-2.66601 8.490234,-12.9336 z"
         style="font-size:28px;stroke-width:2;stroke-miterlimit:4"
         transform="translate(10.55124,168.8642)" />
      <path
         inkscape:connector-curvature="0"
         id="rect3550"
         d="m 211.84619,267.8696 40,0 0,40 -40,0 0,-40 z"
         style="fill:#ffffff;fill-opacity:1;stroke:#000000;stroke-width:2;stroke-miterlimit:4;stroke-opacity:1" />
      <path
         inkscape:connector-curvature="0"
         id="rect3562"
         d="m 251.84619,347.8696 40,0 0,40 -40,0 0,-40 z"
         style="fill:#ffffff;fill-opacity:1;stroke:#000000;stroke-width:2;stroke-miterlimit:4;stroke-opacity:1" />
      <path
         inkscape:connector-curvature="0"
         id="rect3574"
         d="m 171.84613,267.86957 40,0 0,40 -40,0 0,-40 z"
         style="fill:#ffffff;fill-opacity:1;stroke:#000000;stroke-width:2;stroke-miterlimit:4;stroke-opacity:1" />
      <path
         inkscape:connector-curvature="0"
         id="flowRoot3576"
         d="m 61.431641,119.31985 c -1.312508,1e-5 -2.344733,0.35092 -3.09668,1.05274 -0.751958,0.70183 -1.127934,1.66797 -1.12793,2.89843 -4e-6,1.23048 0.375972,2.19662 1.12793,2.89844 0.751947,0.70183 1.784172,1.05274 3.09668,1.05274 1.312489,0 2.346994,-0.35319 3.103515,-1.05957 0.756498,-0.70638 1.134753,-1.67025 1.134766,-2.89161 -1.3e-5,-1.23046 -0.375989,-2.1966 -1.12793,-2.89843 -0.751964,-0.70182 -1.788747,-1.05273 -3.110351,-1.05274 l 0,0 z m -2.761719,-1.17578 c -1.184901,-0.29165 -2.107752,-0.84309 -2.768555,-1.6543 -0.66081,-0.81118 -0.991213,-1.80011 -0.991211,-2.96679 -2e-6,-1.6315 0.581052,-2.92121 1.743164,-3.86914 1.162104,-0.9479 2.754876,-1.42186 4.778321,-1.42188 2.032541,2e-5 3.627591,0.47398 4.785156,1.42188 1.157537,0.94793 1.736313,2.23764 1.736328,3.86914 -1.5e-5,1.16668 -0.330419,2.15561 -0.991211,2.96679 -0.660821,0.81121 -1.579114,1.36265 -2.754883,1.6543 1.330716,0.30991 2.367499,0.91603 3.110352,1.81836 0.742823,0.90235 1.114242,2.00522 1.114258,3.30859 -1.6e-5,1.97787 -0.603857,3.49545 -1.811524,4.55274 -1.207695,1.05729 -2.937185,1.58594 -5.188476,1.58594 -2.251309,0 -3.9808,-0.52865 -5.188477,-1.58594 -1.207685,-1.05729 -1.811525,-2.57487 -1.811523,-4.55274 -2e-6,-1.30337 0.373695,-2.40624 1.121093,-3.30859 0.747392,-0.90233 1.786454,-1.50845 3.117188,-1.81836 l 0,0 z m -1.011719,-4.36133 c -5e-6,1.05731 0.330398,1.88218 0.991211,2.47461 0.660801,0.59246 1.588209,0.88869 2.782227,0.88867 1.184885,2e-5 2.112293,-0.29621 2.782226,-0.88867 0.66991,-0.59243 1.00487,-1.4173 1.004883,-2.47461 -1.3e-5,-1.05727 -0.334973,-1.88214 -1.004883,-2.47461 -0.669933,-0.59243 -1.597341,-0.88865 -2.782226,-0.88867 -1.194018,2e-5 -2.121426,0.29624 -2.782227,0.88867 -0.660813,0.59247 -0.991216,1.41734 -0.991211,2.47461 l 0,0 z"
         style="font-size:28px;stroke-width:2;stroke-miterlimit:4"
         transform="translate(130.5512,168.8642)" />
      <path
         inkscape:connector-curvature="0"
         id="rect3586"
         d="m 131.84616,347.8696 40,0 0,40 -40,0 0,-40 z"
         style="fill:#ffffff;fill-opacity:1;stroke:#000000;stroke-width:2;stroke-miterlimit:4;stroke-opacity:1" />
      <path
         inkscape:connector-curvature="0"
         id="rect3598"
         d="m 291.84619,347.8696 40,0 0,40 -40,0 0,-40 z"
         style="fill:#ffffff;fill-opacity:1;stroke:#000000;stroke-width:2;stroke-miterlimit:4;stroke-opacity:1" />
      <path
         inkscape:connector-curvature="0"
         id="flowRoot3600"
         d="m 57.904297,126.68899 9.638672,0 0,2.32422 -12.960938,0 0,-2.32422 c 1.048174,-1.08463 2.476884,-2.54068 4.286133,-4.36816 1.809237,-1.82747 2.94628,-3.00553 3.411133,-3.53418 0.884104,-0.99348 1.501616,-1.8343 1.852539,-2.52246 0.350899,-0.68814 0.526355,-1.3649 0.526367,-2.03028 -1.2e-5,-1.08462 -0.380545,-1.96873 -1.141601,-2.65234 -0.761078,-0.68357 -1.752288,-1.02537 -2.973633,-1.02539 -0.865893,2e-5 -1.779629,0.15041 -2.741211,0.45117 -0.961593,0.3008 -1.989261,0.75653 -3.083008,1.36719 l 0,-2.78906 c 1.111976,-0.4466 2.151037,-0.78384 3.117188,-1.01172 0.966139,-0.22785 1.850253,-0.34178 2.652343,-0.3418 2.114574,2e-5 3.80077,0.52867 5.058594,1.58594 1.257798,1.05731 1.886704,2.47007 1.886719,4.23828 -1.5e-5,0.83856 -0.157242,1.6338 -0.47168,2.38574 -0.314467,0.75197 -0.886407,1.63836 -1.71582,2.65918 -0.227877,0.26433 -0.952486,1.02768 -2.173828,2.29004 -1.221364,1.26238 -2.944018,3.02833 -5.167969,5.29785 l 0,0 z"
         style="font-size:28px;stroke-width:2;stroke-miterlimit:4"
         transform="translate(250.5512,248.8642)" />
      <path
         inkscape:connector-curvature="0"
         id="rect3610"
         d="m 331.84613,227.86955 40,0 0,40 -40,0 0,-40 z"
         style="fill:#ffffff;fill-opacity:1;stroke:#000000;stroke-width:2;stroke-miterlimit:4;stroke-opacity:1" />
      <path
         inkscape:connector-curvature="0"
         id="rect3622"
         d="m 91.846161,347.8696 39.999999,0 0,40 -39.999999,0 0,-40 z"
         style="fill:#ffffff;fill-opacity:1;stroke:#000000;stroke-width:2;stroke-miterlimit:4;stroke-opacity:1" />
      <path
         inkscape:connector-curvature="0"
         id="flowRoot3624"
         d="m 61.773438,117.70657 c -1.239592,1e-5 -2.221687,0.42384 -2.94629,1.27149 -0.724615,0.84766 -1.086919,2.00977 -1.086914,3.48632 -5e-6,1.46746 0.362299,2.62729 1.086914,3.4795 0.724603,0.85221 1.706698,1.27832 2.94629,1.27832 1.239572,0 2.221668,-0.42611 2.946289,-1.27832 0.724596,-0.85221 1.0869,-2.01204 1.086914,-3.4795 -1.4e-5,-1.47655 -0.362318,-2.63866 -1.086914,-3.48632 -0.724621,-0.84765 -1.706717,-1.27148 -2.946289,-1.27149 l 0,0 z m 5.482421,-8.6543 0,2.51563 c -0.692722,-0.32811 -1.392266,-0.57876 -2.098632,-0.75195 -0.706393,-0.17316 -1.405936,-0.25975 -2.098633,-0.25977 -1.822926,2e-5 -3.215177,0.61525 -4.176758,1.8457 -0.961594,1.23049 -1.510747,3.08986 -1.647461,5.57813 0.537755,-0.79296 1.212234,-1.40136 2.023438,-1.8252 0.81119,-0.42381 1.704418,-0.63573 2.679687,-0.63574 2.05077,1e-5 3.670885,0.62208 4.860352,1.86621 1.189437,1.24415 1.784163,2.93718 1.784179,5.0791 -1.6e-5,2.09636 -0.619807,3.778 -1.859375,5.04493 -1.239596,1.26692 -2.889334,1.90039 -4.949218,1.90039 -2.360684,0 -4.16537,-0.90463 -5.414063,-2.71387 -1.2487,-1.80924 -1.873049,-4.43196 -1.873047,-7.86817 -2e-6,-3.22654 0.765622,-5.79913 2.296875,-7.71777 1.531244,-1.9186 3.586581,-2.87791 6.166016,-2.87793 0.692697,2e-5 1.392241,0.0684 2.098633,0.20508 0.706367,0.13674 1.442368,0.34182 2.208007,0.61523 l 0,0 z"
         style="font-size:28px;stroke-width:2;stroke-miterlimit:4"
         transform="translate(50.55121,248.8642)" />
      <path
         inkscape:connector-curvature="0"
         id="rect3634"
         d="m 251.84619,307.8696 40,0 0,40 -40,0 0,-40 z"
         style="fill:#ffffff;fill-opacity:1;stroke:#000000;stroke-width:2;stroke-miterlimit:4;stroke-opacity:1" />
      <path
         inkscape:connector-curvature="0"
         id="rect3646"
         d="m 211.84613,347.86957 40,0 0,40 -40,0 0,-40 z"
         style="fill:#ffffff;fill-opacity:1;stroke:#000000;stroke-width:2;stroke-miterlimit:4;stroke-opacity:1" />
      <path
         inkscape:connector-curvature="0"
         id="rect3658"
         d="m 331.84619,427.8696 40,0 0,40 -40,0 0,-40 z"
         style="fill:#ffffff;fill-opacity:1;stroke:#000000;stroke-width:2;stroke-miterlimit:4;stroke-opacity:1" />
      <path
         inkscape:connector-curvature="0"
         id="flowRoot3660"
         d="m 54.828125,108.6011 13.125,0 0,1.17578 -7.410156,19.23633 -2.884766,0 6.972656,-18.08789 -9.802734,0 0,-2.32422 z"
         style="font-size:28px;stroke-width:2;stroke-miterlimit:4"
         transform="translate(290.5512,328.8642)" />
      <path
         inkscape:connector-curvature="0"
         id="rect3670"
         d="m 251.84619,427.8696 40,0 0,40 -40,0 0,-40 z"
         style="fill:#ffffff;fill-opacity:1;stroke:#000000;stroke-width:2;stroke-miterlimit:4;stroke-opacity:1" />
      <path
         inkscape:connector-curvature="0"
         id="rect3682"
         d="m 291.84613,427.86957 40,0 0,40 -40,0 0,-40 z"
         style="fill:#ffffff;fill-opacity:1;stroke:#000000;stroke-width:2;stroke-miterlimit:4;stroke-opacity:1" />
      <path
         inkscape:connector-curvature="0"
         id="rect3694"
         d="m 211.84619,427.8696 40,0 0,40 -40,0 0,-40 z"
         style="fill:#ffffff;fill-opacity:1;stroke:#000000;stroke-width:2;stroke-miterlimit:4;stroke-opacity:1" />
      <path
         inkscape:connector-curvature="0"
         id="flowRoot3696"
         d="m 61.431641,119.31985 c -1.312508,1e-5 -2.344733,0.35092 -3.09668,1.05274 -0.751958,0.70183 -1.127934,1.66797 -1.12793,2.89843 -4e-6,1.23048 0.375972,2.19662 1.12793,2.89844 0.751947,0.70183 1.784172,1.05274 3.09668,1.05274 1.312489,0 2.346994,-0.35319 3.103515,-1.05957 0.756498,-0.70638 1.134753,-1.67025 1.134766,-2.89161 -1.3e-5,-1.23046 -0.375989,-2.1966 -1.12793,-2.89843 -0.751964,-0.70182 -1.788747,-1.05273 -3.110351,-1.05274 l 0,0 z m -2.761719,-1.17578 c -1.184901,-0.29165 -2.107752,-0.84309 -2.768555,-1.6543 -0.66081,-0.81118 -0.991213,-1.80011 -0.991211,-2.96679 -2e-6,-1.6315 0.581052,-2.92121 1.743164,-3.86914 1.162104,-0.9479 2.754876,-1.42186 4.778321,-1.42188 2.032541,2e-5 3.627591,0.47398 4.785156,1.42188 1.157537,0.94793 1.736313,2.23764 1.736328,3.86914 -1.5e-5,1.16668 -0.330419,2.15561 -0.991211,2.96679 -0.660821,0.81121 -1.579114,1.36265 -2.754883,1.6543 1.330716,0.30991 2.367499,0.91603 3.110352,1.81836 0.742823,0.90235 1.114242,2.00522 1.114258,3.30859 -1.6e-5,1.97787 -0.603857,3.49545 -1.811524,4.55274 -1.207695,1.05729 -2.937185,1.58594 -5.188476,1.58594 -2.251309,0 -3.9808,-0.52865 -5.188477,-1.58594 -1.207685,-1.05729 -1.811525,-2.57487 -1.811523,-4.55274 -2e-6,-1.30337 0.373695,-2.40624 1.121093,-3.30859 0.747392,-0.90233 1.786454,-1.50845 3.117188,-1.81836 l 0,0 z m -1.011719,-4.36133 c -5e-6,1.05731 0.330398,1.88218 0.991211,2.47461 0.660801,0.59246 1.588209,0.88869 2.782227,0.88867 1.184885,2e-5 2.112293,-0.29621 2.782226,-0.88867 0.66991,-0.59243 1.00487,-1.4173 1.004883,-2.47461 -1.3e-5,-1.05727 -0.334973,-1.88214 -1.004883,-2.47461 -0.669933,-0.59243 -1.597341,-0.88865 -2.782226,-0.88867 -1.194018,2e-5 -2.121426,0.29624 -2.782227,0.88867 -0.660813,0.59247 -0.991216,1.41734 -0.991211,2.47461 l 0,0 z"
         style="font-size:28px;stroke-width:2;stroke-miterlimit:4"
         transform="translate(170.5512,328.8642)" />
      <path
         inkscape:connector-curvature="0"
         id="rect3706"
         d="m 371.84619,427.8696 40,0 0,40 -40,0 0,-40 z"
         style="fill:#ffffff;fill-opacity:1;stroke:#000000;stroke-width:2;stroke-miterlimit:4;stroke-opacity:1" />
      <path
         inkscape:connector-curvature="0"
         id="flowRoot3708"
         d="m 55.607422,128.58938 0,-2.51562 c 0.692704,0.32813 1.394527,0.57878 2.105469,0.75195 0.710931,0.17318 1.408196,0.25977 2.091797,0.25977 1.822907,0 3.215158,-0.61296 4.176757,-1.83887 0.961576,-1.22591 1.51073,-3.08756 1.647461,-5.58496 -0.528658,0.78386 -1.198579,1.38542 -2.009765,1.80469 -0.811209,0.41927 -1.708994,0.62891 -2.69336,0.6289 -2.041673,10e-6 -3.657231,-0.6175 -4.846679,-1.85254 -1.189456,-1.23501 -1.784182,-2.92349 -1.78418,-5.06543 -2e-6,-2.09633 0.619789,-3.77797 1.859375,-5.04492 1.239578,-1.2669 2.889316,-1.90037 4.949219,-1.90039 2.360666,2e-5 4.163073,0.90464 5.407226,2.71387 1.244126,1.80926 1.866195,4.43654 1.866211,7.88183 -1.6e-5,3.21746 -0.763361,5.78549 -2.290039,7.70411 -1.526705,1.91862 -3.579763,2.87793 -6.15918,2.87793 -0.692715,0 -1.394537,-0.0684 -2.105468,-0.20508 -0.710942,-0.13672 -1.449223,-0.3418 -2.214844,-0.61524 l 0,0 z m 5.496094,-8.65429 c 1.239573,1e-5 2.221669,-0.42382 2.946289,-1.27149 0.724597,-0.84764 1.086901,-2.00975 1.086914,-3.48633 -1.3e-5,-1.46743 -0.362317,-2.62726 -1.086914,-3.47949 -0.72462,-0.85219 -1.706716,-1.2783 -2.946289,-1.27832 -1.239591,2e-5 -2.221686,0.42613 -2.946289,1.27832 -0.724615,0.85223 -1.086919,2.01206 -1.086914,3.47949 -5e-6,1.47658 0.362299,2.63869 1.086914,3.48633 0.724603,0.84767 1.706698,1.2715 2.946289,1.27149 l 0,0 z"
         style="font-size:28px;stroke-width:2;stroke-miterlimit:4"
         transform="translate(330.5512,328.8642)" />
      <path
         inkscape:connector-curvature="0"
         id="rect3718"
         d="m 171.84613,347.86957 40,0 0,40 -40,0 0,-40 z"
         style="fill:#ffffff;fill-opacity:1;stroke:#000000;stroke-width:2;stroke-miterlimit:4;stroke-opacity:1" />
      <path
         inkscape:connector-curvature="0"
         id="rect3730"
         d="m 171.84616,427.8696 40,0 0,40 -40,0 0,-40 z"
         style="fill:#ffffff;fill-opacity:1;stroke:#000000;stroke-width:2;stroke-miterlimit:4;stroke-opacity:1" />
      <path
         inkscape:connector-curvature="0"
         id="rect3742"
         d="m 131.84616,427.8696 40,0 0,40 -40,0 0,-40 z"
         style="fill:#ffffff;fill-opacity:1;stroke:#000000;stroke-width:2;stroke-miterlimit:4;stroke-opacity:1" />
      <path
         inkscape:connector-curvature="0"
         id="rect4158"
         d="m 172.12524,107.36218 120,0 0,120 -120,0 0,-120 z"
         style="fill:none;stroke:#000000;stroke-width:4;stroke-miterlimit:4;stroke-opacity:1" />
      <path
         inkscape:connector-curvature="0"
         id="rect6816"
         d="m 292.12524,107.36218 120,0 0,120 -120,0 0,-120 z"
         style="fill:none;stroke:#000000;stroke-width:4;stroke-miterlimit:4;stroke-opacity:1" />
      <path
         inkscape:connector-curvature="0"
         id="rect6818"
         d="m 172.12524,347.36218 120,0 0,120 -120,0 0,-120 z"
         style="fill:none;stroke:#000000;stroke-width:4;stroke-miterlimit:4;stroke-opacity:1" />
      <path
         inkscape:connector-curvature="0"
         id="rect6820"
         d="m 52.125244,107.36218 119.999996,0 0,120 -119.999996,0 0,-120 z"
         style="fill:none;stroke:#000000;stroke-width:4;stroke-miterlimit:4;stroke-opacity:1" />
      <path
         inkscape:connector-curvature="0"
         id="rect6822"
         d="m 172.12524,227.36218 120,0 0,120 -120,0 0,-120 z"
         style="fill:none;stroke:#000000;stroke-width:4;stroke-miterlimit:4;stroke-opacity:1" />
      <path
         inkscape:connector-curvature="0"
         id="rect6824"
         d="m 52.125244,347.36218 119.999996,0 0,120 -119.999996,0 0,-120 z"
         style="fill:none;stroke:#000000;stroke-width:4;stroke-miterlimit:4;stroke-opacity:1" />
      <path
         inkscape:connector-curvature="0"
         id="rect6826"
         d="m 52.125244,227.36218 119.999996,0 0,120 -119.999996,0 0,-120 z"
         style="fill:none;stroke:#000000;stroke-width:4;stroke-miterlimit:4;stroke-opacity:1" />
      <path
         inkscape:connector-curvature="0"
         id="rect6828"
         d="m 292.12524,227.36218 120,0 0,120 -120,0 0,-120 z"
         style="fill:none;stroke:#000000;stroke-width:4;stroke-miterlimit:4;stroke-opacity:1" />
      <path
         inkscape:connector-curvature="0"
         id="rect6830"
         d="m 292.12524,347.36218 120,0 0,120 -120,0 0,-120 z"
         style="fill:none;stroke:#000000;stroke-width:4;stroke-miterlimit:4;stroke-opacity:1" />
    </g>
  </g>
</svg>
