<?xml version="1.0" encoding="UTF-8" standalone="no"?>
<!-- Created with Inkscape (http://www.inkscape.org/) -->

<svg
   xmlns:dc="http://purl.org/dc/elements/1.1/"
   xmlns:cc="http://creativecommons.org/ns#"
   xmlns:rdf="http://www.w3.org/1999/02/22-rdf-syntax-ns#"
   xmlns:svg="http://www.w3.org/2000/svg"
   xmlns="http://www.w3.org/2000/svg"
   xmlns:sodipodi="http://sodipodi.sourceforge.net/DTD/sodipodi-0.dtd"
   xmlns:inkscape="http://www.inkscape.org/namespaces/inkscape"
   width="815.90076"
   height="558.26947"
   id="svg3052"
   version="1.1"
   inkscape:version="0.48.1 r9760"
   sodipodi:docname="New document 4">
  <defs
     id="defs3054">
    <marker
       inkscape:stockid="Arrow1Mend"
       orient="auto"
       refY="0"
       refX="0"
       id="Arrow1Mend"
       style="overflow:visible">
      <path
         id="path3895"
         d="M 0,0 5,-5 -12.5,0 5,5 0,0 z"
         style="fill-rule:evenodd;stroke:#000000;stroke-width:1pt;marker-start:none"
         transform="matrix(-0.4,0,0,-0.4,-4,0)"
         inkscape:connector-curvature="0" />
    </marker>
    <marker
       inkscape:stockid="Arrow1Mstart"
       orient="auto"
       refY="0"
       refX="0"
       id="Arrow1Mstart"
       style="overflow:visible">
      <path
         id="path3892"
         d="M 0,0 5,-5 -12.5,0 5,5 0,0 z"
         style="fill-rule:evenodd;stroke:#000000;stroke-width:1pt;marker-start:none"
         transform="matrix(0.4,0,0,0.4,4,0)"
         inkscape:connector-curvature="0" />
    </marker>
  </defs>
  <sodipodi:namedview
     id="base"
     pagecolor="#ffffff"
     bordercolor="#666666"
     borderopacity="1.0"
     inkscape:pageopacity="0.0"
     inkscape:pageshadow="2"
     inkscape:zoom="1"
     inkscape:cx="374.53715"
     inkscape:cy="254.58695"
     inkscape:current-layer="layer1"
     inkscape:document-units="px"
     showgrid="false"
     fit-margin-top="0"
     fit-margin-left="0"
     fit-margin-right="0"
     fit-margin-bottom="0"
     inkscape:window-width="1600"
     inkscape:window-height="870"
     inkscape:window-x="0"
     inkscape:window-y="0"
     inkscape:window-maximized="1" />
  <metadata
     id="metadata3057">
    <rdf:RDF>
      <cc:Work
         rdf:about="">
        <dc:format>image/svg+xml</dc:format>
        <dc:type
           rdf:resource="http://purl.org/dc/dcmitype/StillImage" />
        <dc:title></dc:title>
      </cc:Work>
    </rdf:RDF>
  </metadata>
  <g
     id="layer1"
     inkscape:label="Layer 1"
     inkscape:groupmode="layer"
     transform="translate(185.93619,56.386347)">
    <g
       id="g3108"
       transform="translate(-6.4539032,-3.8723412)">
      <rect
         ry="10"
         rx="10"
         y="41.78014"
         x="-177.48228"
         height="114.87944"
         width="242.66669"
         id="rect2993"
         style="fill:#ddffdd;fill-opacity:1;stroke:#2a8b17;stroke-width:4;stroke-linecap:round;stroke-linejoin:round;stroke-miterlimit:4;stroke-opacity:1;stroke-dasharray:none" />
      <text
         sodipodi:linespacing="125%"
         id="text3073"
         y="111.14955"
         x="-99.008316"
         style="font-size:32px;font-style:normal;font-weight:normal;line-height:125%;letter-spacing:0px;word-spacing:0px;fill:#000000;fill-opacity:1;stroke:none;font-family:Sans"
         xml:space="preserve"><tspan
           y="111.14955"
           x="-99.008316"
           id="tspan3075"
           sodipodi:role="line">Sales</tspan></text>
    </g>
    <g
       id="g3103"
       transform="translate(9.0354614,0)">
      <rect
         style="fill:#ddffdd;fill-opacity:1;stroke:#2a8b17;stroke-width:4;stroke-linecap:round;stroke-linejoin:round;stroke-miterlimit:4;stroke-opacity:1;stroke-dasharray:none"
         id="rect3067"
         width="242.66669"
         height="114.87944"
         x="376.26239"
         y="37.907799"
         rx="10"
         ry="10" />
      <text
         xml:space="preserve"
         style="font-size:32px;font-style:normal;font-weight:normal;line-height:125%;letter-spacing:0px;word-spacing:0px;fill:#000000;fill-opacity:1;stroke:none;font-family:Sans"
         x="448.4473"
         y="104.17564"
         id="text3081"
         sodipodi:linespacing="125%"><tspan
           sodipodi:role="line"
           id="tspan3083"
           x="448.4473"
           y="104.17564">Billing</tspan></text>
    </g>
    <g
       id="g3098"
       transform="translate(0,1.2907715)">
      <rect
         ry="10"
         rx="10"
         y="334.78723"
         x="385.29785"
         height="114.87944"
         width="242.66669"
         id="rect3071"
         style="fill:#ddffdd;fill-opacity:1;stroke:#2a8b17;stroke-width:4;stroke-linecap:round;stroke-linejoin:round;stroke-miterlimit:4;stroke-opacity:1;stroke-dasharray:none" />
      <text
         sodipodi:linespacing="125%"
         id="text3085"
         y="400.5629"
         x="429.0687"
         style="font-size:32px;font-style:normal;font-weight:normal;line-height:125%;letter-spacing:0px;word-spacing:0px;fill:#000000;fill-opacity:1;stroke:none;font-family:Sans"
         xml:space="preserve"><tspan
           y="400.5629"
           x="429.0687"
           id="tspan3087"
           sodipodi:role="line">Inventory</tspan></text>
    </g>
    <g
       id="g3093">
      <rect
         style="fill:#ddffdd;fill-opacity:1;stroke:#2a8b17;stroke-width:4;stroke-linecap:round;stroke-linejoin:round;stroke-miterlimit:4;stroke-opacity:1;stroke-dasharray:none"
         id="rect3069"
         width="242.66669"
         height="114.87944"
         x="-183.93619"
         y="336.078"
         rx="10"
         ry="10" />
      <text
         xml:space="preserve"
         style="font-size:32px;font-style:normal;font-weight:normal;line-height:125%;letter-spacing:0px;word-spacing:0px;fill:#000000;fill-opacity:1;stroke:none;font-family:Sans"
         x="-132.01691"
         y="402.34586"
         id="text3089"
         sodipodi:linespacing="125%"><tspan
           sodipodi:role="line"
           id="tspan3091"
           x="-132.01691"
           y="402.34586">Shipping</tspan></text>
    </g>
    <path
       style="fill:none;stroke:#000000;stroke-width:2;stroke-linecap:butt;stroke-linejoin:miter;stroke-miterlimit:4;stroke-opacity:1;stroke-dasharray:none;marker-start:none;marker-end:url(#Arrow1Mend)"
       d="m 73.574469,35.971628 c 85.382591,-31.2240171 182.680821,-34.1484254 295.588651,0"
       id="path3113"
       inkscape:connector-curvature="0"
       sodipodi:nodetypes="cc" />
    <path
       sodipodi:nodetypes="cc"
       inkscape:connector-curvature="0"
       id="path4697"
       d="m 373.15904,150.92795 c -85.38259,31.22402 -182.68082,34.14842 -295.588651,0"
       style="fill:none;stroke:#000000;stroke-width:2;stroke-linecap:butt;stroke-linejoin:miter;stroke-miterlimit:4;stroke-opacity:1;stroke-dasharray:none;marker-start:none;marker-end:url(#Arrow1Mend)" />
    <path
       sodipodi:nodetypes="cc"
       inkscape:connector-curvature="0"
       id="path4699"
       d="M 64.539008,157.30496 C 121.52444,253.86817 260.12763,307.7381 373.03546,341.88652"
       style="fill:none;stroke:#000000;stroke-width:2;stroke-linecap:butt;stroke-linejoin:miter;stroke-miterlimit:4;stroke-opacity:1;stroke-dasharray:none;marker-start:none;marker-end:url(#Arrow1Mend)" />
    <path
       sodipodi:type="arc"
       style="fill:#ddffdd;fill-opacity:1;stroke:#2a8b17;stroke-width:2;stroke-linecap:round;stroke-linejoin:round;stroke-miterlimit:4;stroke-opacity:1;stroke-dasharray:none"
       id="path4713"
       sodipodi:cx="222.01419"
       sodipodi:cy="-19.531918"
       sodipodi:rx="24.524822"
       sodipodi:ry="24.524822"
       d="m 246.53901,-19.531918 c 0,13.5446857 -10.98013,24.5248227 -24.52482,24.5248227 -13.54468,0 -24.52482,-10.980137 -24.52482,-24.5248227 0,-13.544685 10.98014,-24.524822 24.52482,-24.524822 13.54469,0 24.52482,10.980137 24.52482,24.524822 z"
       transform="translate(2.6825867,-11.329607)" />
    <text
       xml:space="preserve"
       style="font-size:24px;font-style:normal;font-weight:normal;line-height:125%;letter-spacing:0px;word-spacing:0px;fill:#000000;fill-opacity:1;stroke:none;font-family:Sans"
       x="216.85107"
       y="-22.113478"
       id="text4701"
       sodipodi:linespacing="125%"><tspan
         sodipodi:role="line"
         id="tspan4703"
         x="216.85107"
         y="-22.113478">1</tspan></text>
    <path
       transform="translate(90.455637,299.74841)"
       d="m 246.53901,-19.531918 c 0,13.5446857 -10.98013,24.5248227 -24.52482,24.5248227 -13.54468,0 -24.52482,-10.980137 -24.52482,-24.5248227 0,-13.544685 10.98014,-24.524822 24.52482,-24.524822 13.54469,0 24.52482,10.980137 24.52482,24.524822 z"
       sodipodi:ry="24.524822"
       sodipodi:rx="24.524822"
       sodipodi:cy="-19.531918"
       sodipodi:cx="222.01419"
       id="path4715"
       style="fill:#ddffdd;fill-opacity:1;stroke:#2a8b17;stroke-width:2;stroke-linecap:round;stroke-linejoin:round;stroke-miterlimit:4;stroke-opacity:1;stroke-dasharray:none"
       sodipodi:type="arc" />
    <text
       xml:space="preserve"
       style="font-size:24px;font-style:normal;font-weight:normal;line-height:125%;letter-spacing:0px;word-spacing:0px;fill:#000000;fill-opacity:1;stroke:none;font-family:Sans"
       x="305.15732"
       y="289.12274"
       id="text4705"
       sodipodi:linespacing="125%"><tspan
         sodipodi:role="line"
         id="tspan4707"
         x="305.15732"
         y="289.12274">2</tspan></text>
    <path
       sodipodi:type="arc"
       style="fill:#ddffdd;fill-opacity:1;stroke:#2a8b17;stroke-width:2;stroke-linecap:round;stroke-linejoin:round;stroke-miterlimit:4;stroke-opacity:1;stroke-dasharray:none"
       id="path4717"
       sodipodi:cx="222.01419"
       sodipodi:cy="-19.531918"
       sodipodi:rx="24.524822"
       sodipodi:ry="24.524822"
       d="m 246.53901,-19.531918 c 0,13.5446857 -10.98013,24.5248227 -24.52482,24.5248227 -13.54468,0 -24.52482,-10.980137 -24.52482,-24.5248227 0,-13.544685 10.98014,-24.524822 24.52482,-24.524822 13.54469,0 24.52482,10.980137 24.52482,24.524822 z"
       transform="translate(45.278332,153.89024)" />
    <text
       xml:space="preserve"
       style="font-size:24px;font-style:normal;font-weight:normal;line-height:125%;letter-spacing:0px;word-spacing:0px;fill:#000000;fill-opacity:1;stroke:none;font-family:Sans"
       x="259.74564"
       y="143.10637"
       id="text4709"
       sodipodi:linespacing="125%"><tspan
         sodipodi:role="line"
         id="tspan4711"
         x="259.74564"
         y="143.10637">4</tspan></text>
    <rect
       style="fill:#ddffdd;fill-opacity:1;stroke:#2a8b17;stroke-width:2;stroke-linecap:round;stroke-linejoin:round;stroke-miterlimit:4;stroke-opacity:1;stroke-dasharray:none"
       id="rect4719"
       width="96.520264"
       height="33.560272"
       x="200.1844"
       y="395.00708"
       rx="10"
       ry="10" />
    <rect
       style="fill:#ddffdd;fill-opacity:1;stroke:#2a8b17;stroke-width:2;stroke-linecap:round;stroke-linejoin:round;stroke-miterlimit:4;stroke-opacity:1;stroke-dasharray:none"
       id="rect4721"
       width="27.10639"
       height="33.560307"
       x="169.55441"
       y="394.56198"
       rx="10"
       ry="10" />
    <path
       sodipodi:type="arc"
       style="fill:#ddffdd;fill-opacity:1;stroke:#2a8b17;stroke-width:2;stroke-linecap:round;stroke-linejoin:round;stroke-miterlimit:4;stroke-opacity:1;stroke-dasharray:none"
       id="path4734"
       sodipodi:cx="167.86502"
       sodipodi:cy="452.23392"
       sodipodi:rx="4.7921166"
       sodipodi:ry="4.7921166"
       d="m 172.65714,452.23392 c 0,2.64661 -2.14551,4.79211 -4.79212,4.79211 -2.64661,0 -4.79212,-2.1455 -4.79212,-4.79211 0,-2.64662 2.14551,-4.79212 4.79212,-4.79212 2.64661,0 4.79212,2.1455 4.79212,4.79212 z"
       transform="translate(44,-14)" />
    <path
       d="m 172.65714,452.23392 c 0,2.64661 -2.14551,4.79211 -4.79212,4.79211 -2.64661,0 -4.79212,-2.1455 -4.79212,-4.79211 0,-2.64662 2.14551,-4.79212 4.79212,-4.79212 2.64661,0 4.79212,2.1455 4.79212,4.79212 z"
       sodipodi:ry="4.7921166"
       sodipodi:rx="4.7921166"
       sodipodi:cy="452.23392"
       sodipodi:cx="167.86502"
       id="path4736"
       style="fill:#ddffdd;fill-opacity:1;stroke:#2a8b17;stroke-width:2;stroke-linecap:round;stroke-linejoin:round;stroke-miterlimit:4;stroke-opacity:1;stroke-dasharray:none"
       sodipodi:type="arc"
       transform="translate(55.980291,-14)" />
    <path
       d="m 172.65714,452.23392 c 0,2.64661 -2.14551,4.79211 -4.79212,4.79211 -2.64661,0 -4.79212,-2.1455 -4.79212,-4.79211 0,-2.64662 2.14551,-4.79212 4.79212,-4.79212 2.64661,0 4.79212,2.1455 4.79212,4.79212 z"
       sodipodi:ry="4.7921166"
       sodipodi:rx="4.7921166"
       sodipodi:cy="452.23392"
       sodipodi:cx="167.86502"
       id="path4740"
       style="fill:#ddffdd;fill-opacity:1;stroke:#2a8b17;stroke-width:2;stroke-linecap:round;stroke-linejoin:round;stroke-miterlimit:4;stroke-opacity:1;stroke-dasharray:none"
       sodipodi:type="arc"
       transform="translate(108.55263,-14)" />
    <path
       transform="translate(120.53292,-14)"
       sodipodi:type="arc"
       style="fill:#ddffdd;fill-opacity:1;stroke:#2a8b17;stroke-width:2;stroke-linecap:round;stroke-linejoin:round;stroke-miterlimit:4;stroke-opacity:1;stroke-dasharray:none"
       id="path4742"
       sodipodi:cx="167.86502"
       sodipodi:cy="452.23392"
       sodipodi:rx="4.7921166"
       sodipodi:ry="4.7921166"
       d="m 172.65714,452.23392 c 0,2.64661 -2.14551,4.79211 -4.79212,4.79211 -2.64661,0 -4.79212,-2.1455 -4.79212,-4.79211 0,-2.64662 2.14551,-4.79212 4.79212,-4.79212 2.64661,0 4.79212,2.1455 4.79212,4.79212 z" />
    <path
       transform="translate(9.468571,-14)"
       sodipodi:type="arc"
       style="fill:#ddffdd;fill-opacity:1;stroke:#2a8b17;stroke-width:2;stroke-linecap:round;stroke-linejoin:round;stroke-miterlimit:4;stroke-opacity:1;stroke-dasharray:none"
       id="path4744"
       sodipodi:cx="167.86502"
       sodipodi:cy="452.23392"
       sodipodi:rx="4.7921166"
       sodipodi:ry="4.7921166"
       d="m 172.65714,452.23392 c 0,2.64661 -2.14551,4.79211 -4.79212,4.79211 -2.64661,0 -4.79212,-2.1455 -4.79212,-4.79211 0,-2.64662 2.14551,-4.79212 4.79212,-4.79212 2.64661,0 4.79212,2.1455 4.79212,4.79212 z" />
    <path
       d="m 172.65714,452.23392 c 0,2.64661 -2.14551,4.79211 -4.79212,4.79211 -2.64661,0 -4.79212,-2.1455 -4.79212,-4.79211 0,-2.64662 2.14551,-4.79212 4.79212,-4.79212 2.64661,0 4.79212,2.1455 4.79212,4.79212 z"
       sodipodi:ry="4.7921166"
       sodipodi:rx="4.7921166"
       sodipodi:cy="452.23392"
       sodipodi:cx="167.86502"
       id="path4746"
       style="fill:#ddffdd;fill-opacity:1;stroke:#2a8b17;stroke-width:2;stroke-linecap:round;stroke-linejoin:round;stroke-miterlimit:4;stroke-opacity:1;stroke-dasharray:none"
       sodipodi:type="arc"
       transform="translate(21.448862,-14)" />
    <path
       transform="translate(114.27833,495.89024)"
       d="m 246.53901,-19.531918 c 0,13.5446857 -10.98013,24.5248227 -24.52482,24.5248227 -13.54468,0 -24.52482,-10.980137 -24.52482,-24.5248227 0,-13.544685 10.98014,-24.524822 24.52482,-24.524822 13.54469,0 24.52482,10.980137 24.52482,24.524822 z"
       sodipodi:ry="24.524822"
       sodipodi:rx="24.524822"
       sodipodi:cy="-19.531918"
       sodipodi:cx="222.01419"
       id="path4748"
       style="fill:#ddffdd;fill-opacity:1;stroke:#2a8b17;stroke-width:2;stroke-linecap:round;stroke-linejoin:round;stroke-miterlimit:4;stroke-opacity:1;stroke-dasharray:none"
       sodipodi:type="arc" />
    <text
       sodipodi:linespacing="125%"
       id="text4750"
       y="485.09467"
       x="328.70462"
       style="font-size:24px;font-style:normal;font-weight:normal;line-height:125%;letter-spacing:0px;word-spacing:0px;fill:#000000;fill-opacity:1;stroke:none;font-family:Sans"
       xml:space="preserve"><tspan
         y="485.09467"
         x="328.70462"
         id="tspan4752"
         sodipodi:role="line">3</tspan></text>
    <path
       style="fill:none;stroke:#000000;stroke-width:2;stroke-linecap:butt;stroke-linejoin:miter;stroke-miterlimit:4;stroke-opacity:1;stroke-dasharray:none;marker-start:none;marker-end:url(#Arrow1Mend)"
       d="m 373.15904,418.92795 c -35.38259,1.22402 -17.68082,2.14842 -63.58865,1"
       id="path4754"
       inkscape:connector-curvature="0"
       sodipodi:nodetypes="cc" />
  </g>
</svg>
